<svg width="3160" height="2299" viewBox="0 0 3160 2299" fill="none" xmlns="http://www.w3.org/2000/svg">
<g clip-path="url(#clip0)">
<path opacity="0.1" d="M1787.39 313.002C1584.84 313.287 1389.87 252.777 1203.39 185.557C1016.91 118.337 831.858 43.0635 633.073 11.1666C505.228 -9.33645 359.851 -7.45177 259.917 66.9932C163.721 138.611 135.865 257.146 122.425 366.658C112.318 449.042 107.657 535.509 145.512 610.867C171.796 663.182 216.778 706.301 248.482 756.159C359.147 929.607 292.596 1151.17 185.047 1328.65C134.619 1411.92 75.5469 1491.73 37.4211 1579.77C-0.704775 1667.8 -16.3399 1767.63 22.5447 1854.53C61.077 1940.65 148.113 2003.16 241.518 2045.85C431.198 2132.72 652.041 2151.34 866.949 2158.51C1342.67 2174.41 1819.31 2141.97 2294.68 2109.53C2470.59 2097.54 2647.29 2085.46 2819.58 2050.71C2915.23 2031.43 3013.73 2002.82 3081.55 1940.11C3167.64 1860.5 3185.25 1730.51 3122.61 1637.08C3017.55 1480.36 2740.53 1450.81 2665.2 1281.24C2623.66 1187.89 2659.49 1080.84 2712.24 990.86C2825.4 797.794 3020.18 624.86 3023.46 408.921C3025.71 260.63 2924.42 115.966 2773.13 51.516C2614.56 -15.99 2398.35 1.37198 2287.25 127.189C2173.01 256.804 1966.23 312.802 1787.39 313.002Z" fill="#6DD5ED"/>
<path d="M2689.49 1842.88C2689.49 1842.88 2656.18 1819.72 2623.18 1836.2C2623.18 1836.2 2633.34 1856.81 2675.13 1854.87L2689.49 1842.88Z" fill="#6DD5ED"/>
<path d="M2693.71 1844.11C2693.71 1844.11 2703.85 1884.77 2678.43 1912.44C2678.43 1912.44 2663.15 1895.68 2678.43 1854.61L2693.71 1844.11Z" fill="#6DD5ED"/>
<path d="M2735.11 1805.07C2735.11 1805.07 2732.65 1770.49 2658.54 1781.97C2658.54 1781.97 2658.19 1804.27 2684.2 1814.84C2710.21 1825.4 2722.13 1816.49 2735.11 1805.07Z" fill="#6DD5ED"/>
<path d="M2739.78 1804.84C2739.78 1804.84 2771.1 1815.44 2743.17 1888.68C2743.17 1888.68 2722.49 1883.83 2718.78 1854.67C2715.07 1825.52 2726.07 1815.46 2739.78 1804.84Z" fill="#6DD5ED"/>
<path d="M2781.61 1755.78C2781.61 1755.78 2785.87 1698.87 2710.13 1704.7C2710.13 1704.7 2704.71 1756.1 2768.25 1769.46L2781.61 1755.78Z" fill="#6DD5ED"/>
<path d="M2831.66 1691.53C2831.66 1691.53 2821.29 1627.02 2745.58 1646.24C2745.58 1646.24 2745.31 1702.01 2819.31 1706.9L2831.66 1691.53Z" fill="#6DD5ED"/>
<path d="M2868.24 1625.11C2868.24 1625.11 2850.85 1562.29 2775.84 1581.08C2775.84 1581.08 2793.7 1637.59 2863.26 1636.71L2868.24 1625.11Z" fill="#6DD5ED"/>
<path d="M2902.99 1560.23C2902.99 1560.23 2886 1495.04 2813.57 1514.54C2813.57 1514.54 2837.74 1576.48 2898.19 1571.25L2902.99 1560.23Z" fill="#6DD5ED"/>
<path d="M2925.37 1498.61C2925.37 1498.61 2912.3 1418.88 2844.78 1436.53C2844.78 1436.53 2864.4 1509.06 2920.41 1510.23L2925.37 1498.61Z" fill="#6DD5ED"/>
<path d="M2946.37 1424.16C2946.37 1424.16 2930.68 1343.81 2862.36 1367.05C2862.36 1367.05 2889.14 1443.01 2941.52 1435.16L2946.37 1424.16Z" fill="#6DD5ED"/>
<path d="M2959.26 1354.89C2959.26 1354.89 2934.36 1274.5 2881.55 1276.67C2881.55 1276.67 2906.99 1361.57 2954.84 1370.91L2959.26 1354.89Z" fill="#6DD5ED"/>
<path d="M2967.61 1287.27C2967.61 1287.27 2940.51 1190.52 2897.54 1197.97C2897.54 1197.97 2916.29 1271.93 2966.09 1302.35L2967.61 1287.27Z" fill="#6DD5ED"/>
<path d="M2972.32 1206.6C2972.32 1206.6 2946.9 1125.98 2904.58 1122.76C2904.58 1122.76 2921.87 1202.09 2971.48 1227.56L2972.32 1206.6Z" fill="#6DD5ED"/>
<path d="M2977.44 1131.32C2977.44 1131.32 2945.77 1050.63 2917.83 1048.8C2917.83 1048.8 2931.59 1128.27 2974.73 1144.57L2977.44 1131.32Z" fill="#6DD5ED"/>
<path d="M2980.94 1061.31C2980.94 1061.31 2961.46 973.668 2933.47 966.387C2933.47 966.387 2937.29 1038.09 2978.12 1067.87L2980.94 1061.31Z" fill="#6DD5ED"/>
<path d="M2991.51 969.584C2991.51 969.584 2971.02 899.708 2948.34 889.057C2948.34 889.057 2952.81 971.44 2986.28 986.661L2991.51 969.584Z" fill="#6DD5ED"/>
<path d="M3000.26 909.617L3004.38 786.427C3004.38 786.427 2961.97 879.29 2997.2 931.233L3000.26 909.617Z" fill="#6DD5ED"/>
<path d="M3032.99 787.084C3032.99 787.084 3063.53 697.133 3070.93 692.107C3070.93 692.107 3011.05 750.476 3016.9 825.549L3032.99 787.084Z" fill="#6DD5ED"/>
<path d="M2783.68 1755.35C2783.68 1755.35 2837.38 1747.96 2835.79 1827.94C2835.79 1827.94 2787.25 1836.28 2771.4 1770.12L2783.68 1755.35Z" fill="#6DD5ED"/>
<path d="M2834.21 1689.36C2834.21 1689.36 2896.26 1689.16 2891.11 1771.03C2891.11 1771.03 2839 1780.85 2821.82 1704.84L2834.21 1689.36Z" fill="#6DD5ED"/>
<path d="M2868.83 1630.39C2868.83 1630.39 2925.17 1602.55 2961.21 1674.43C2961.21 1674.43 2909.18 1697.61 2863.85 1642.02L2868.83 1630.39Z" fill="#6DD5ED"/>
<path d="M2904.23 1560.83C2904.23 1560.83 2961.92 1531.22 2995.79 1601.41C2995.79 1601.41 2935.69 1623.23 2899.46 1571.94L2904.23 1560.83Z" fill="#6DD5ED"/>
<path d="M2924.63 1500.35C2924.63 1500.35 2980.16 1444.47 3024.46 1500.98C3024.46 1500.98 2967.75 1546.98 2922.09 1512.8L2924.63 1500.35Z" fill="#6DD5ED"/>
<path d="M2943.22 1422.25C2943.22 1422.25 2999.07 1365.14 3043.02 1424.88C3043.02 1424.88 2980.35 1471.8 2941.22 1434.24L2943.22 1422.25Z" fill="#6DD5ED"/>
<path d="M2953.65 1352.6C2953.65 1352.6 2996.68 1281.21 3047.36 1297.15C3047.36 1297.15 3002.7 1372.74 2954.14 1369.37L2953.65 1352.6Z" fill="#6DD5ED"/>
<path d="M2966.33 1286.81C2966.33 1286.81 3009.69 1196.92 3050.71 1212.57C3050.71 1212.57 3019.44 1281.67 2965.22 1301.97L2966.33 1286.81Z" fill="#6DD5ED"/>
<path d="M2969.34 1201.91C2969.34 1201.91 3013.92 1131.15 3055.68 1139.8C3055.68 1139.8 3019.23 1211.57 2965.01 1222.39L2969.34 1201.91Z" fill="#6DD5ED"/>
<path d="M2972.81 1129.75C2972.81 1129.75 3007.36 1050.34 3035.43 1049.8C3035.43 1049.8 3018.85 1128.64 2975.14 1143.23L2972.81 1129.75Z" fill="#6DD5ED"/>
<path d="M2979.58 1059.59C2979.58 1059.59 3017.98 979.179 3046.84 979.007C3046.84 979.007 3027.2 1047.77 2980.86 1066.65L2979.58 1059.59Z" fill="#6DD5ED"/>
<path d="M2985.36 974.61C2985.36 974.61 3014.08 908.075 3037.88 900.536C3037.88 900.536 3023.51 981.635 2988.53 992.257L2985.36 974.61Z" fill="#6DD5ED"/>
<path d="M3003.68 907.19L3067.87 804.132C3067.87 804.132 3051.42 905.791 2994.3 926.922L3003.68 907.19Z" fill="#6DD5ED"/>
<path d="M3047.73 795.394C3047.73 795.394 3122.33 741.138 3125.04 732.372C3125.04 732.372 3087.11 808.359 3016.65 821.78L3047.73 795.394Z" fill="#6DD5ED"/>
<path d="M3052.2 770.979C3052.2 770.979 3137.86 684.198 3159.73 684.283C3159.73 684.283 3089.08 687.681 3050.15 766.353L3052.2 770.979Z" fill="#6DD5ED"/>
<path d="M2986.2 987.488L2989.31 987.917C3005.41 855.161 3028.88 776.604 3055.38 766.98L3054.35 763.839C3026.25 774.119 3002.62 851.477 2986.2 987.488Z" fill="#444053"/>
<path d="M2962.51 1304.97L2967.23 1305.37C2968.23 1292.98 2968.99 1280.3 2969.5 1267.65C2974 1157.77 2980.97 1056.85 2990.12 981.206L2987.41 977.637C2978.23 1053.45 2969.29 1157.4 2964.79 1267.45C2964.27 1280.01 2963.51 1292.64 2962.51 1304.97Z" fill="#444053"/>
<path d="M2601.58 1906.22C2602.39 1905.84 2685.39 1866.78 2771.53 1773.63C2822 1719.07 2863.94 1656.42 2895.77 1588.02C2935.61 1502.55 2959.88 1397.52 2968.01 1295.49L2963.11 1297.92C2944.82 1526.94 2845.89 1683.42 2767.22 1768.66C2681.92 1860.98 2599.84 1899.65 2599.03 1900.02L2601.58 1906.22Z" fill="#444053"/>
<path d="M2816.49 243.38H212.769C206.617 243.38 200.718 245.956 196.368 250.54C192.018 255.124 189.574 261.341 189.574 267.824V339.042H2839.69V267.824C2839.69 261.341 2837.24 255.124 2832.89 250.54C2828.54 245.956 2822.64 243.38 2816.49 243.38V243.38Z" fill="#3F3D56"/>
<path d="M189.574 339.042V1941.71C189.574 1954.78 194.501 1967.32 203.273 1976.56C212.044 1985.8 223.94 1991 236.344 1991H2792.92C2805.32 1991 2817.22 1985.8 2825.99 1976.56C2834.76 1967.32 2839.69 1954.78 2839.69 1941.71V339.042H189.574Z" fill="white"/>
<path opacity="0.8" d="M231.546 301.92C237.533 301.92 242.385 296.806 242.385 290.498C242.385 284.189 237.533 279.075 231.546 279.075C225.56 279.075 220.708 284.189 220.708 290.498C220.708 296.806 225.56 301.92 231.546 301.92Z" fill="#FA5959"/>
<path opacity="0.8" d="M261.35 301.92C267.337 301.92 272.189 296.806 272.189 290.498C272.189 284.189 267.337 279.075 261.35 279.075C255.364 279.075 250.511 284.189 250.511 290.498C250.511 296.806 255.364 301.92 261.35 301.92Z" fill="#FED253"/>
<path opacity="0.8" d="M291.158 301.92C297.144 301.92 301.997 296.806 301.997 290.498C301.997 284.189 297.144 279.075 291.158 279.075C285.172 279.075 280.319 284.189 280.319 290.498C280.319 296.806 285.172 301.92 291.158 301.92Z" fill="#8CCF4D"/>
<path opacity="0.05" d="M2565.76 606.269H435.914V1593.21H2565.76V606.269Z" fill="black"/>
<path d="M2549.5 613.75H452.175V1578.94H2549.5V613.75Z" fill="#3F3D56"/>
<path d="M1023.92 862.157C982.658 862.157 942.318 875.052 908.005 899.213C873.693 923.374 846.95 957.714 831.158 997.892C815.366 1038.07 811.234 1082.28 819.285 1124.93C827.336 1167.59 847.207 1206.76 876.388 1237.51C905.568 1268.27 942.745 1289.21 983.219 1297.69C1023.69 1306.18 1065.65 1301.82 1103.77 1285.18C1141.9 1268.54 1174.48 1240.35 1197.41 1204.19C1220.34 1168.04 1232.57 1125.52 1232.57 1082.04C1232.57 1053.16 1227.18 1024.57 1216.69 997.892C1206.21 971.215 1190.84 946.976 1171.46 926.558C1152.09 906.14 1129.09 889.944 1103.77 878.894C1078.46 867.844 1051.32 862.157 1023.92 862.157V862.157ZM1061.35 1087.32V1191.43H987.587V1087.32C977.38 1079.18 969.857 1067.86 966.081 1054.97C962.305 1042.08 962.466 1028.27 966.541 1015.48C970.616 1002.69 978.4 991.572 988.793 983.696C999.187 975.82 1011.66 971.583 1024.47 971.583C1037.27 971.583 1049.75 975.82 1060.14 983.696C1070.53 991.572 1078.32 1002.69 1082.39 1015.48C1086.47 1028.27 1086.63 1042.08 1082.85 1054.97C1079.08 1067.86 1071.55 1079.18 1061.35 1087.32V1087.32Z" fill="#6DD5ED"/>
<path opacity="0.05" d="M1023.92 862.157C982.658 862.157 942.318 875.052 908.005 899.213C873.693 923.374 846.95 957.714 831.158 997.892C815.366 1038.07 811.234 1082.28 819.285 1124.93C827.336 1167.59 847.207 1206.76 876.388 1237.51C905.568 1268.27 942.745 1289.21 983.219 1297.69C1023.69 1306.18 1065.65 1301.82 1103.77 1285.18C1141.9 1268.54 1174.48 1240.35 1197.41 1204.19C1220.34 1168.04 1232.57 1125.52 1232.57 1082.04C1232.57 1053.16 1227.18 1024.57 1216.69 997.892C1206.21 971.215 1190.84 946.976 1171.46 926.558C1152.09 906.14 1129.09 889.944 1103.77 878.894C1078.46 867.844 1051.32 862.157 1023.92 862.157V862.157ZM1061.35 1087.32V1191.43H987.587V1087.32C977.38 1079.18 969.857 1067.86 966.081 1054.97C962.305 1042.08 962.466 1028.27 966.541 1015.48C970.616 1002.69 978.4 991.572 988.793 983.696C999.187 975.82 1011.66 971.583 1024.47 971.583C1037.27 971.583 1049.75 975.82 1060.14 983.696C1070.53 991.572 1078.32 1002.69 1082.39 1015.48C1086.47 1028.27 1086.63 1042.08 1082.85 1054.97C1079.08 1067.86 1071.55 1079.18 1061.35 1087.32V1087.32Z" fill="black"/>
<path d="M1023.93 799.334C970.869 799.334 919.003 815.915 874.888 846.978C830.772 878.042 796.388 922.194 776.084 973.851C755.78 1025.51 750.467 1082.35 760.818 1137.19C771.169 1192.03 796.719 1242.4 834.236 1281.94C871.753 1321.47 919.553 1348.4 971.591 1359.31C1023.63 1370.22 1077.57 1364.62 1126.59 1343.22C1175.6 1321.82 1217.5 1285.59 1246.98 1239.1C1276.46 1192.61 1292.19 1137.95 1292.19 1082.04C1292.19 1007.06 1263.93 935.153 1213.62 882.136C1163.31 829.119 1095.07 799.334 1023.93 799.334V799.334ZM1072.02 1088.83V1222.67H977.184V1088.83C964.055 1078.36 954.379 1063.81 949.521 1047.23C944.663 1030.66 944.868 1012.89 950.108 996.442C955.348 979.994 965.358 965.696 978.725 955.566C992.092 945.437 1008.14 939.987 1024.6 939.987C1041.07 939.987 1057.12 945.437 1070.48 955.566C1083.85 965.696 1093.86 979.994 1099.1 996.442C1104.34 1012.89 1104.55 1030.66 1099.69 1047.23C1094.83 1063.81 1085.15 1078.36 1072.02 1088.83V1088.83Z" fill="#6DD5ED"/>
<path d="M2270.39 1044.94H1403.28V1142.03H2270.39V1044.94Z" fill="white"/>
<path d="M2270.4 1221.99H2083.43V1319.08H2270.4V1221.99Z" fill="#6DD5ED"/>
<path d="M1488.64 1092.03H1472.95L1486.91 1077.35C1487.16 1077.08 1487.3 1076.72 1487.3 1076.34C1487.3 1075.96 1487.16 1075.6 1486.91 1075.33C1486.78 1075.19 1486.63 1075.09 1486.47 1075.01C1486.3 1074.94 1486.12 1074.9 1485.95 1074.9C1485.77 1074.9 1485.59 1074.94 1485.42 1075.01C1485.26 1075.09 1485.11 1075.19 1484.98 1075.33L1471.03 1090.03V1073.47C1471.03 1073.09 1470.89 1072.73 1470.63 1072.46C1470.38 1072.19 1470.03 1072.04 1469.67 1072.04C1469.32 1072.05 1468.98 1072.2 1468.72 1072.47C1468.47 1072.73 1468.33 1073.09 1468.32 1073.47V1090.03L1454.39 1075.24C1454.26 1075.11 1454.12 1075 1453.95 1074.93C1453.78 1074.86 1453.61 1074.82 1453.43 1074.82C1453.25 1074.82 1453.07 1074.86 1452.91 1074.93C1452.74 1075 1452.59 1075.11 1452.47 1075.24C1452.22 1075.51 1452.08 1075.88 1452.08 1076.25C1452.08 1076.63 1452.22 1077 1452.47 1077.27L1466.42 1091.95H1450.71C1450.35 1091.95 1450.01 1092.11 1449.76 1092.37C1449.5 1092.64 1449.36 1093 1449.35 1093.37C1449.35 1093.75 1449.49 1094.12 1449.75 1094.38C1450 1094.65 1450.35 1094.8 1450.71 1094.8H1466.42L1452.47 1109.51C1452.22 1109.78 1452.08 1110.14 1452.08 1110.52C1452.08 1110.9 1452.22 1111.26 1452.47 1111.53C1452.73 1111.79 1453.07 1111.93 1453.43 1111.93C1453.79 1111.93 1454.13 1111.79 1454.39 1111.53L1468.32 1096.83V1113.36C1468.32 1113.74 1468.46 1114.1 1468.72 1114.37C1468.97 1114.64 1469.31 1114.79 1469.67 1114.79C1470.03 1114.79 1470.38 1114.64 1470.63 1114.37C1470.89 1114.1 1471.03 1113.74 1471.03 1113.36V1096.83L1484.98 1111.53C1485.24 1111.79 1485.59 1111.93 1485.95 1111.93C1486.3 1111.93 1486.65 1111.79 1486.91 1111.53C1487.16 1111.26 1487.3 1110.9 1487.3 1110.52C1487.3 1110.14 1487.16 1109.78 1486.91 1109.51L1472.95 1094.8H1488.64C1489 1094.8 1489.35 1094.65 1489.6 1094.38C1489.85 1094.12 1490 1093.75 1490 1093.37C1489.98 1093.01 1489.82 1092.67 1489.57 1092.42C1489.32 1092.17 1488.99 1092.03 1488.64 1092.03Z" fill="#6DD5ED"/>
<path d="M1545.55 1092.03H1529.86L1543.81 1077.35C1544.06 1077.08 1544.2 1076.72 1544.2 1076.34C1544.2 1075.96 1544.06 1075.6 1543.81 1075.33C1543.69 1075.19 1543.54 1075.09 1543.37 1075.01C1543.21 1074.94 1543.03 1074.9 1542.85 1074.9C1542.67 1074.9 1542.5 1074.94 1542.33 1075.01C1542.16 1075.09 1542.02 1075.19 1541.89 1075.33L1527.93 1090.03V1073.47C1527.93 1073.09 1527.79 1072.73 1527.54 1072.46C1527.28 1072.19 1526.94 1072.04 1526.58 1072.04C1526.22 1072.05 1525.88 1072.2 1525.63 1072.47C1525.38 1072.73 1525.23 1073.09 1525.22 1073.47V1090.03L1511.3 1075.24C1511.17 1075.11 1511.02 1075 1510.86 1074.93C1510.69 1074.86 1510.51 1074.82 1510.33 1074.82C1510.16 1074.82 1509.98 1074.86 1509.81 1074.93C1509.65 1075 1509.5 1075.11 1509.37 1075.24C1509.12 1075.51 1508.98 1075.88 1508.98 1076.25C1508.98 1076.63 1509.12 1077 1509.37 1077.27L1523.33 1091.95H1507.61C1507.25 1091.95 1506.91 1092.11 1506.66 1092.37C1506.41 1092.64 1506.26 1093 1506.26 1093.37C1506.26 1093.75 1506.4 1094.12 1506.65 1094.38C1506.91 1094.65 1507.25 1094.8 1507.61 1094.8H1523.33L1509.37 1109.51C1509.12 1109.78 1508.98 1110.14 1508.98 1110.52C1508.98 1110.9 1509.12 1111.26 1509.37 1111.53C1509.63 1111.79 1509.98 1111.93 1510.33 1111.93C1510.69 1111.93 1511.04 1111.79 1511.3 1111.53L1525.22 1096.83V1113.36C1525.22 1113.74 1525.37 1114.1 1525.62 1114.37C1525.88 1114.64 1526.22 1114.79 1526.58 1114.79C1526.94 1114.79 1527.28 1114.64 1527.54 1114.37C1527.79 1114.1 1527.93 1113.74 1527.93 1113.36V1096.83L1541.89 1111.53C1542.15 1111.79 1542.49 1111.93 1542.85 1111.93C1543.21 1111.93 1543.55 1111.79 1543.81 1111.53C1544.06 1111.26 1544.2 1110.9 1544.2 1110.52C1544.2 1110.14 1544.06 1109.78 1543.81 1109.51L1529.86 1094.8H1545.55C1545.91 1094.8 1546.25 1094.65 1546.51 1094.38C1546.76 1094.12 1546.9 1093.75 1546.9 1093.37C1546.88 1093.01 1546.73 1092.67 1546.48 1092.42C1546.23 1092.17 1545.89 1092.03 1545.55 1092.03Z" fill="#6DD5ED"/>
<path d="M1602.45 1092.03H1586.76L1600.72 1077.35C1600.97 1077.08 1601.11 1076.72 1601.11 1076.34C1601.11 1075.96 1600.97 1075.6 1600.72 1075.33C1600.59 1075.19 1600.44 1075.09 1600.28 1075.01C1600.11 1074.94 1599.94 1074.9 1599.76 1074.9C1599.58 1074.9 1599.4 1074.94 1599.24 1075.01C1599.07 1075.09 1598.92 1075.19 1598.79 1075.33L1584.84 1090.03V1073.47C1584.84 1073.09 1584.7 1072.73 1584.44 1072.46C1584.19 1072.19 1583.84 1072.04 1583.48 1072.04C1583.13 1072.05 1582.79 1072.2 1582.53 1072.47C1582.28 1072.73 1582.14 1073.09 1582.13 1073.47V1090.03L1568.2 1075.24C1568.08 1075.11 1567.93 1075 1567.76 1074.93C1567.6 1074.86 1567.42 1074.82 1567.24 1074.82C1567.06 1074.82 1566.88 1074.86 1566.72 1074.93C1566.55 1075 1566.4 1075.11 1566.28 1075.24C1566.03 1075.51 1565.89 1075.88 1565.89 1076.25C1565.89 1076.63 1566.03 1077 1566.28 1077.27L1580.23 1091.95H1564.52C1564.16 1091.95 1563.82 1092.11 1563.57 1092.37C1563.31 1092.64 1563.17 1093 1563.16 1093.37C1563.16 1093.75 1563.3 1094.12 1563.56 1094.38C1563.81 1094.65 1564.16 1094.8 1564.52 1094.8H1580.23L1566.28 1109.51C1566.03 1109.78 1565.89 1110.14 1565.89 1110.52C1565.89 1110.9 1566.03 1111.26 1566.28 1111.53C1566.54 1111.79 1566.88 1111.93 1567.24 1111.93C1567.6 1111.93 1567.94 1111.79 1568.2 1111.53L1582.13 1096.83V1113.36C1582.13 1113.74 1582.27 1114.1 1582.53 1114.37C1582.78 1114.64 1583.13 1114.79 1583.48 1114.79C1583.84 1114.79 1584.19 1114.64 1584.44 1114.37C1584.7 1114.1 1584.84 1113.74 1584.84 1113.36V1096.83L1598.79 1111.53C1599.06 1111.79 1599.4 1111.93 1599.76 1111.93C1600.11 1111.93 1600.46 1111.79 1600.72 1111.53C1600.97 1111.26 1601.11 1110.9 1601.11 1110.52C1601.11 1110.14 1600.97 1109.78 1600.72 1109.51L1586.76 1094.8H1602.45C1602.81 1094.8 1603.16 1094.65 1603.41 1094.38C1603.66 1094.12 1603.81 1093.75 1603.81 1093.37C1603.79 1093.01 1603.63 1092.67 1603.38 1092.42C1603.13 1092.17 1602.8 1092.03 1602.45 1092.03Z" fill="#6DD5ED"/>
<path d="M1659.36 1092.03H1643.67L1657.62 1077.35C1657.87 1077.08 1658.01 1076.72 1658.01 1076.34C1658.01 1075.96 1657.87 1075.6 1657.62 1075.33C1657.5 1075.19 1657.35 1075.09 1657.18 1075.01C1657.02 1074.94 1656.84 1074.9 1656.66 1074.9C1656.48 1074.9 1656.31 1074.94 1656.14 1075.01C1655.98 1075.09 1655.83 1075.19 1655.7 1075.33L1641.75 1090.03V1073.47C1641.75 1073.09 1641.6 1072.73 1641.35 1072.46C1641.09 1072.19 1640.75 1072.04 1640.39 1072.04C1640.03 1072.05 1639.69 1072.2 1639.44 1072.47C1639.19 1072.73 1639.04 1073.09 1639.04 1073.47V1090.03L1625.11 1075.24C1624.98 1075.11 1624.83 1075 1624.67 1074.93C1624.5 1074.86 1624.32 1074.82 1624.15 1074.82C1623.97 1074.82 1623.79 1074.86 1623.62 1074.93C1623.46 1075 1623.31 1075.11 1623.18 1075.24C1622.93 1075.51 1622.79 1075.88 1622.79 1076.25C1622.79 1076.63 1622.93 1077 1623.18 1077.27L1637.14 1091.95H1621.42C1621.07 1091.95 1620.72 1092.11 1620.47 1092.37C1620.22 1092.64 1620.07 1093 1620.07 1093.37C1620.07 1093.75 1620.21 1094.12 1620.46 1094.38C1620.72 1094.65 1621.06 1094.8 1621.42 1094.8H1637.14L1623.18 1109.51C1622.93 1109.78 1622.79 1110.14 1622.79 1110.52C1622.79 1110.9 1622.93 1111.26 1623.18 1111.53C1623.44 1111.79 1623.79 1111.93 1624.15 1111.93C1624.5 1111.93 1624.85 1111.79 1625.11 1111.53L1639.04 1096.83V1113.36C1639.04 1113.74 1639.18 1114.1 1639.43 1114.37C1639.69 1114.64 1640.03 1114.79 1640.39 1114.79C1640.75 1114.79 1641.09 1114.64 1641.35 1114.37C1641.6 1114.1 1641.75 1113.74 1641.75 1113.36V1096.83L1655.7 1111.53C1655.96 1111.79 1656.31 1111.93 1656.66 1111.93C1657.02 1111.93 1657.36 1111.79 1657.62 1111.53C1657.87 1111.26 1658.01 1110.9 1658.01 1110.52C1658.01 1110.14 1657.87 1109.78 1657.62 1109.51L1643.67 1094.8H1659.36C1659.72 1094.8 1660.06 1094.65 1660.32 1094.38C1660.57 1094.12 1660.71 1093.75 1660.71 1093.37C1660.69 1093.01 1660.54 1092.67 1660.29 1092.42C1660.04 1092.17 1659.7 1092.03 1659.36 1092.03Z" fill="#6DD5ED"/>
<path d="M1716.25 1092.03H1700.56L1714.52 1077.35C1714.77 1077.08 1714.91 1076.72 1714.91 1076.34C1714.91 1075.96 1714.77 1075.6 1714.52 1075.33C1714.39 1075.19 1714.24 1075.09 1714.08 1075.01C1713.91 1074.94 1713.74 1074.9 1713.56 1074.9C1713.38 1074.9 1713.2 1074.94 1713.04 1075.01C1712.87 1075.09 1712.72 1075.19 1712.6 1075.33L1698.64 1090.03V1073.47C1698.64 1073.09 1698.5 1072.73 1698.24 1072.46C1697.99 1072.19 1697.64 1072.04 1697.29 1072.04C1696.93 1072.05 1696.59 1072.2 1696.34 1072.47C1696.08 1072.73 1695.94 1073.09 1695.93 1073.47V1090.03L1682 1075.24C1681.88 1075.11 1681.73 1075 1681.56 1074.93C1681.4 1074.86 1681.22 1074.82 1681.04 1074.82C1680.86 1074.82 1680.68 1074.86 1680.52 1074.93C1680.35 1075 1680.2 1075.11 1680.08 1075.24C1679.83 1075.51 1679.69 1075.88 1679.69 1076.25C1679.69 1076.63 1679.83 1077 1680.08 1077.27L1694.03 1091.95H1678.32C1677.96 1091.95 1677.62 1092.11 1677.37 1092.37C1677.11 1092.64 1676.97 1093 1676.96 1093.37C1676.96 1093.75 1677.11 1094.12 1677.36 1094.38C1677.61 1094.65 1677.96 1094.8 1678.32 1094.8H1694.03L1680.08 1109.51C1679.83 1109.78 1679.69 1110.14 1679.69 1110.52C1679.69 1110.9 1679.83 1111.26 1680.08 1111.53C1680.34 1111.79 1680.68 1111.93 1681.04 1111.93C1681.4 1111.93 1681.74 1111.79 1682 1111.53L1695.93 1096.83V1113.36C1695.93 1113.74 1696.07 1114.1 1696.33 1114.37C1696.58 1114.64 1696.93 1114.79 1697.29 1114.79C1697.64 1114.79 1697.99 1114.64 1698.24 1114.37C1698.5 1114.1 1698.64 1113.74 1698.64 1113.36V1096.83L1712.6 1111.53C1712.86 1111.79 1713.2 1111.93 1713.56 1111.93C1713.91 1111.93 1714.26 1111.79 1714.52 1111.53C1714.77 1111.26 1714.91 1110.9 1714.91 1110.52C1714.91 1110.14 1714.77 1109.78 1714.52 1109.51L1700.56 1094.8H1716.25C1716.61 1094.8 1716.96 1094.65 1717.21 1094.38C1717.47 1094.12 1717.61 1093.75 1717.61 1093.37C1717.59 1093.01 1717.44 1092.67 1717.18 1092.42C1716.93 1092.17 1716.6 1092.03 1716.25 1092.03Z" fill="#6DD5ED"/>
<path d="M1773.16 1092.03H1757.47L1771.43 1077.35C1771.68 1077.08 1771.82 1076.72 1771.82 1076.34C1771.82 1075.96 1771.68 1075.6 1771.43 1075.33C1771.3 1075.19 1771.15 1075.09 1770.98 1075.01C1770.82 1074.94 1770.64 1074.9 1770.46 1074.9C1770.28 1074.9 1770.11 1074.94 1769.94 1075.01C1769.78 1075.09 1769.63 1075.19 1769.5 1075.33L1755.55 1090.03V1073.47C1755.55 1073.09 1755.4 1072.73 1755.15 1072.46C1754.9 1072.19 1754.55 1072.04 1754.19 1072.04C1753.83 1072.05 1753.49 1072.2 1753.24 1072.47C1752.99 1072.73 1752.84 1073.09 1752.84 1073.47V1090.03L1738.91 1075.24C1738.78 1075.11 1738.63 1075 1738.47 1074.93C1738.3 1074.86 1738.13 1074.82 1737.95 1074.82C1737.77 1074.82 1737.59 1074.86 1737.43 1074.93C1737.26 1075 1737.11 1075.11 1736.98 1075.24C1736.73 1075.51 1736.59 1075.88 1736.59 1076.25C1736.59 1076.63 1736.73 1077 1736.98 1077.27L1750.94 1091.95H1735.22C1734.87 1091.95 1734.53 1092.11 1734.27 1092.37C1734.02 1092.64 1733.88 1093 1733.87 1093.37C1733.87 1093.75 1734.01 1094.12 1734.27 1094.38C1734.52 1094.65 1734.86 1094.8 1735.22 1094.8H1750.94L1736.98 1109.51C1736.73 1109.78 1736.59 1110.14 1736.59 1110.52C1736.59 1110.9 1736.73 1111.26 1736.98 1111.53C1737.25 1111.79 1737.59 1111.93 1737.95 1111.93C1738.3 1111.93 1738.65 1111.79 1738.91 1111.53L1752.84 1096.83V1113.36C1752.84 1113.74 1752.98 1114.1 1753.23 1114.37C1753.49 1114.64 1753.83 1114.79 1754.19 1114.79C1754.55 1114.79 1754.9 1114.64 1755.15 1114.37C1755.4 1114.1 1755.55 1113.74 1755.55 1113.36V1096.83L1769.5 1111.53C1769.76 1111.79 1770.11 1111.93 1770.46 1111.93C1770.82 1111.93 1771.16 1111.79 1771.43 1111.53C1771.68 1111.26 1771.82 1110.9 1771.82 1110.52C1771.82 1110.14 1771.68 1109.78 1771.43 1109.51L1757.47 1094.8H1773.16C1773.52 1094.8 1773.86 1094.65 1774.12 1094.38C1774.37 1094.12 1774.51 1093.75 1774.51 1093.37C1774.49 1093.01 1774.34 1092.67 1774.09 1092.42C1773.84 1092.17 1773.51 1092.03 1773.16 1092.03Z" fill="#6DD5ED"/>
<path d="M1830.07 1092.03H1814.38L1828.33 1077.35C1828.58 1077.08 1828.72 1076.72 1828.72 1076.34C1828.72 1075.96 1828.58 1075.6 1828.33 1075.33C1828.21 1075.19 1828.06 1075.09 1827.89 1075.01C1827.73 1074.94 1827.55 1074.9 1827.37 1074.9C1827.19 1074.9 1827.01 1074.94 1826.85 1075.01C1826.68 1075.09 1826.53 1075.19 1826.41 1075.33L1812.45 1090.03V1073.47C1812.45 1073.09 1812.31 1072.73 1812.06 1072.46C1811.8 1072.19 1811.46 1072.04 1811.1 1072.04C1810.74 1072.05 1810.4 1072.2 1810.15 1072.47C1809.89 1072.73 1809.75 1073.09 1809.74 1073.47V1090.03L1795.81 1075.24C1795.69 1075.11 1795.54 1075 1795.37 1074.93C1795.21 1074.86 1795.03 1074.82 1794.85 1074.82C1794.67 1074.82 1794.5 1074.86 1794.33 1074.93C1794.17 1075 1794.02 1075.11 1793.89 1075.24C1793.64 1075.51 1793.5 1075.88 1793.5 1076.25C1793.5 1076.63 1793.64 1077 1793.89 1077.27L1807.85 1091.95H1792.13C1791.77 1091.95 1791.43 1092.11 1791.18 1092.37C1790.93 1092.64 1790.78 1093 1790.77 1093.37C1790.77 1093.75 1790.92 1094.12 1791.17 1094.38C1791.43 1094.65 1791.77 1094.8 1792.13 1094.8H1807.85L1793.89 1109.51C1793.64 1109.78 1793.5 1110.14 1793.5 1110.52C1793.5 1110.9 1793.64 1111.26 1793.89 1111.53C1794.15 1111.79 1794.5 1111.93 1794.85 1111.93C1795.21 1111.93 1795.55 1111.79 1795.81 1111.53L1809.74 1096.83V1113.36C1809.74 1113.74 1809.89 1114.1 1810.14 1114.37C1810.39 1114.64 1810.74 1114.79 1811.1 1114.79C1811.46 1114.79 1811.8 1114.64 1812.06 1114.37C1812.31 1114.1 1812.45 1113.74 1812.45 1113.36V1096.83L1826.41 1111.53C1826.67 1111.79 1827.01 1111.93 1827.37 1111.93C1827.73 1111.93 1828.07 1111.79 1828.33 1111.53C1828.58 1111.26 1828.72 1110.9 1828.72 1110.52C1828.72 1110.14 1828.58 1109.78 1828.33 1109.51L1814.38 1094.8H1830.07C1830.42 1094.8 1830.77 1094.65 1831.02 1094.38C1831.28 1094.12 1831.42 1093.75 1831.42 1093.37C1831.4 1093.01 1831.25 1092.67 1831 1092.42C1830.74 1092.17 1830.41 1092.03 1830.07 1092.03Z" fill="#6DD5ED"/>
<path d="M1886.97 1092.03H1871.28L1885.24 1077.35C1885.49 1077.08 1885.63 1076.72 1885.63 1076.34C1885.63 1075.96 1885.49 1075.6 1885.24 1075.33C1885.11 1075.19 1884.96 1075.09 1884.8 1075.01C1884.63 1074.94 1884.45 1074.9 1884.27 1074.9C1884.1 1074.9 1883.92 1074.94 1883.75 1075.01C1883.59 1075.09 1883.44 1075.19 1883.31 1075.33L1869.36 1090.03V1073.47C1869.36 1073.09 1869.21 1072.73 1868.96 1072.46C1868.71 1072.19 1868.36 1072.04 1868 1072.04C1867.65 1072.05 1867.3 1072.2 1867.05 1072.47C1866.8 1072.73 1866.65 1073.09 1866.65 1073.47V1090.03L1852.72 1075.24C1852.59 1075.11 1852.44 1075 1852.28 1074.93C1852.11 1074.86 1851.94 1074.82 1851.76 1074.82C1851.58 1074.82 1851.4 1074.86 1851.24 1074.93C1851.07 1075 1850.92 1075.11 1850.8 1075.24C1850.55 1075.51 1850.41 1075.88 1850.41 1076.25C1850.41 1076.63 1850.55 1077 1850.8 1077.27L1864.75 1091.95H1849.03C1848.68 1091.95 1848.34 1092.11 1848.08 1092.37C1847.83 1092.64 1847.69 1093 1847.68 1093.37C1847.68 1093.75 1847.82 1094.12 1848.08 1094.38C1848.33 1094.65 1848.67 1094.8 1849.03 1094.8H1864.75L1850.8 1109.51C1850.55 1109.78 1850.41 1110.14 1850.41 1110.52C1850.41 1110.9 1850.55 1111.26 1850.8 1111.53C1851.06 1111.79 1851.4 1111.93 1851.76 1111.93C1852.11 1111.93 1852.46 1111.79 1852.72 1111.53L1866.65 1096.83V1113.36C1866.65 1113.74 1866.79 1114.1 1867.04 1114.37C1867.3 1114.64 1867.64 1114.79 1868 1114.79C1868.36 1114.79 1868.71 1114.64 1868.96 1114.37C1869.21 1114.1 1869.36 1113.74 1869.36 1113.36V1096.83L1883.31 1111.53C1883.57 1111.79 1883.92 1111.93 1884.27 1111.93C1884.63 1111.93 1884.98 1111.79 1885.24 1111.53C1885.49 1111.26 1885.63 1110.9 1885.63 1110.52C1885.63 1110.14 1885.49 1109.78 1885.24 1109.51L1871.28 1094.8H1886.97C1887.33 1094.8 1887.67 1094.65 1887.93 1094.38C1888.18 1094.12 1888.33 1093.75 1888.33 1093.37C1888.3 1093.01 1888.15 1092.67 1887.9 1092.42C1887.65 1092.17 1887.32 1092.03 1886.97 1092.03Z" fill="#6DD5ED"/>
<path d="M1943.88 1092.03H1928.19L1942.14 1077.35C1942.39 1077.08 1942.53 1076.72 1942.53 1076.34C1942.53 1075.96 1942.39 1075.6 1942.14 1075.33C1942.02 1075.19 1941.87 1075.09 1941.7 1075.01C1941.54 1074.94 1941.36 1074.9 1941.18 1074.9C1941 1074.9 1940.82 1074.94 1940.66 1075.01C1940.49 1075.09 1940.34 1075.19 1940.22 1075.33L1926.26 1090.03V1073.47C1926.26 1073.09 1926.12 1072.73 1925.87 1072.46C1925.61 1072.19 1925.27 1072.04 1924.91 1072.04C1924.55 1072.05 1924.21 1072.2 1923.96 1072.47C1923.71 1072.73 1923.56 1073.09 1923.55 1073.47V1090.03L1909.63 1075.24C1909.5 1075.11 1909.35 1075 1909.18 1074.93C1909.02 1074.86 1908.84 1074.82 1908.66 1074.82C1908.48 1074.82 1908.31 1074.86 1908.14 1074.93C1907.98 1075 1907.83 1075.11 1907.7 1075.24C1907.45 1075.51 1907.31 1075.88 1907.31 1076.25C1907.31 1076.63 1907.45 1077 1907.7 1077.27L1921.66 1091.95H1905.94C1905.58 1091.95 1905.24 1092.11 1904.99 1092.37C1904.74 1092.64 1904.59 1093 1904.59 1093.37C1904.59 1093.75 1904.73 1094.12 1904.98 1094.38C1905.24 1094.65 1905.58 1094.8 1905.94 1094.8H1921.66L1907.7 1109.51C1907.45 1109.78 1907.31 1110.14 1907.31 1110.52C1907.31 1110.9 1907.45 1111.26 1907.7 1111.53C1907.96 1111.79 1908.31 1111.93 1908.66 1111.93C1909.02 1111.93 1909.36 1111.79 1909.63 1111.53L1923.55 1096.83V1113.36C1923.55 1113.74 1923.7 1114.1 1923.95 1114.37C1924.2 1114.64 1924.55 1114.79 1924.91 1114.79C1925.27 1114.79 1925.61 1114.64 1925.87 1114.37C1926.12 1114.1 1926.26 1113.74 1926.26 1113.36V1096.83L1940.22 1111.53C1940.48 1111.79 1940.82 1111.93 1941.18 1111.93C1941.54 1111.93 1941.88 1111.79 1942.14 1111.53C1942.39 1111.26 1942.53 1110.9 1942.53 1110.52C1942.53 1110.14 1942.39 1109.78 1942.14 1109.51L1928.19 1094.8H1943.88C1944.24 1094.8 1944.58 1094.65 1944.83 1094.38C1945.09 1094.12 1945.23 1093.75 1945.23 1093.37C1945.21 1093.01 1945.06 1092.67 1944.81 1092.42C1944.55 1092.17 1944.22 1092.03 1943.88 1092.03Z" fill="#6DD5ED"/>
<path d="M2000.78 1092.03H1985.09L1999.05 1077.35C1999.3 1077.08 1999.44 1076.72 1999.44 1076.34C1999.44 1075.96 1999.3 1075.6 1999.05 1075.33C1998.92 1075.19 1998.77 1075.09 1998.61 1075.01C1998.44 1074.94 1998.26 1074.9 1998.08 1074.9C1997.91 1074.9 1997.73 1074.94 1997.56 1075.01C1997.4 1075.09 1997.25 1075.19 1997.12 1075.33L1983.17 1090.03V1073.47C1983.17 1073.09 1983.03 1072.73 1982.77 1072.46C1982.52 1072.19 1982.17 1072.04 1981.81 1072.04C1981.46 1072.05 1981.12 1072.2 1980.86 1072.47C1980.61 1072.73 1980.47 1073.09 1980.46 1073.47V1090.03L1966.53 1075.24C1966.4 1075.11 1966.25 1075 1966.09 1074.93C1965.92 1074.86 1965.75 1074.82 1965.57 1074.82C1965.39 1074.82 1965.21 1074.86 1965.05 1074.93C1964.88 1075 1964.73 1075.11 1964.61 1075.24C1964.36 1075.51 1964.22 1075.88 1964.22 1076.25C1964.22 1076.63 1964.36 1077 1964.61 1077.27L1978.56 1091.95H1962.85C1962.49 1091.95 1962.15 1092.11 1961.89 1092.37C1961.64 1092.64 1961.5 1093 1961.49 1093.37C1961.49 1093.75 1961.63 1094.12 1961.89 1094.38C1962.14 1094.65 1962.49 1094.8 1962.85 1094.8H1978.56L1964.61 1109.51C1964.36 1109.78 1964.22 1110.14 1964.22 1110.52C1964.22 1110.9 1964.36 1111.26 1964.61 1111.53C1964.87 1111.79 1965.21 1111.93 1965.57 1111.93C1965.93 1111.93 1966.27 1111.79 1966.53 1111.53L1980.46 1096.83V1113.36C1980.46 1113.74 1980.6 1114.1 1980.86 1114.37C1981.11 1114.64 1981.45 1114.79 1981.81 1114.79C1982.17 1114.79 1982.52 1114.64 1982.77 1114.37C1983.03 1114.1 1983.17 1113.74 1983.17 1113.36V1096.83L1997.12 1111.53C1997.38 1111.79 1997.73 1111.93 1998.08 1111.93C1998.44 1111.93 1998.79 1111.79 1999.05 1111.53C1999.3 1111.26 1999.44 1110.9 1999.44 1110.52C1999.44 1110.14 1999.3 1109.78 1999.05 1109.51L1985.09 1094.8H2000.78C2001.14 1094.8 2001.48 1094.65 2001.74 1094.38C2001.99 1094.12 2002.14 1093.75 2002.14 1093.37C2002.12 1093.01 2001.96 1092.67 2001.71 1092.42C2001.46 1092.17 2001.13 1092.03 2000.78 1092.03Z" fill="#6DD5ED"/>
<path d="M2057.69 1092.03H2042L2055.95 1077.35C2056.2 1077.08 2056.34 1076.72 2056.34 1076.34C2056.34 1075.96 2056.2 1075.6 2055.95 1075.33C2055.83 1075.19 2055.68 1075.09 2055.51 1075.01C2055.35 1074.94 2055.17 1074.9 2054.99 1074.9C2054.81 1074.9 2054.63 1074.94 2054.47 1075.01C2054.3 1075.09 2054.15 1075.19 2054.03 1075.33L2040.07 1090.03V1073.47C2040.07 1073.09 2039.93 1072.73 2039.68 1072.46C2039.42 1072.19 2039.08 1072.04 2038.72 1072.04C2038.36 1072.05 2038.02 1072.2 2037.77 1072.47C2037.52 1072.73 2037.37 1073.09 2037.36 1073.47V1090.03L2023.44 1075.24C2023.31 1075.11 2023.16 1075 2023 1074.93C2022.83 1074.86 2022.65 1074.82 2022.47 1074.82C2022.3 1074.82 2022.12 1074.86 2021.95 1074.93C2021.79 1075 2021.64 1075.11 2021.51 1075.24C2021.26 1075.51 2021.12 1075.88 2021.12 1076.25C2021.12 1076.63 2021.26 1077 2021.51 1077.27L2035.47 1091.95H2019.75C2019.39 1091.95 2019.05 1092.11 2018.8 1092.37C2018.55 1092.64 2018.4 1093 2018.4 1093.37C2018.4 1093.75 2018.54 1094.12 2018.79 1094.38C2019.05 1094.65 2019.39 1094.8 2019.75 1094.8H2035.47L2021.51 1109.51C2021.26 1109.78 2021.12 1110.14 2021.12 1110.52C2021.12 1110.9 2021.26 1111.26 2021.51 1111.53C2021.77 1111.79 2022.12 1111.93 2022.47 1111.93C2022.83 1111.93 2023.18 1111.79 2023.44 1111.53L2037.36 1096.83V1113.36C2037.36 1113.74 2037.51 1114.1 2037.76 1114.37C2038.02 1114.64 2038.36 1114.79 2038.72 1114.79C2039.08 1114.79 2039.42 1114.64 2039.68 1114.37C2039.93 1114.1 2040.07 1113.74 2040.07 1113.36V1096.83L2054.03 1111.53C2054.29 1111.79 2054.63 1111.93 2054.99 1111.93C2055.35 1111.93 2055.69 1111.79 2055.95 1111.53C2056.2 1111.26 2056.34 1110.9 2056.34 1110.52C2056.34 1110.14 2056.2 1109.78 2055.95 1109.51L2042 1094.8H2057.69C2058.05 1094.8 2058.39 1094.65 2058.65 1094.38C2058.9 1094.12 2059.04 1093.75 2059.04 1093.37C2059.02 1093.01 2058.87 1092.67 2058.62 1092.42C2058.37 1092.17 2058.03 1092.03 2057.69 1092.03Z" fill="#6DD5ED"/>
<path d="M2493.92 1439.41C2493.84 1435.96 2493.44 1432.53 2492.7 1429.16C2490.26 1419.51 2484.76 1407.83 2475.71 1404.92C2466.37 1401.9 2457.34 1397.88 2448.78 1392.92C2447.15 1362.31 2453.82 1330.99 2446.56 1301.32C2443.85 1290.47 2439.37 1280.07 2438.18 1268.96C2436.69 1255.14 2440.27 1240.41 2435.04 1227.67C2430.92 1217.62 2421.87 1210.54 2412.14 1206.83C2402.41 1203.11 2391.93 1202.11 2381.6 1201.11C2368.6 1200 2326.49 1194.75 2311.8 1207C2310.79 1207.83 2309.88 1208.78 2309.09 1209.85V1209.85C2308.77 1210.32 2308.48 1210.82 2308.22 1211.34L2308.09 1211.57C2307.79 1212.16 2307.55 1212.78 2307.36 1213.42V1213.42C2307.15 1214.12 2307 1214.84 2306.9 1215.56C2306.9 1215.79 2306.9 1216.02 2306.9 1216.25C2306.9 1216.48 2306.9 1217.25 2306.9 1217.76V1218.53C2306.9 1219.05 2306.9 1219.56 2306.9 1220.1C2306.9 1220.65 2306.9 1220.5 2306.9 1220.7C2307.09 1223.27 2307.44 1225.84 2307.44 1228.38C2307.47 1229.65 2307.36 1230.92 2307.11 1232.15C2306.21 1235.52 2304.68 1238.67 2302.62 1241.41V1241.41L2302.13 1242.15C2301.83 1242.61 2301.53 1243.03 2301.26 1243.49C2300.99 1243.95 2300.77 1244.29 2300.56 1244.69C2300.34 1245.09 2300.12 1245.35 2299.93 1245.72C2299.67 1246.19 2299.44 1246.68 2299.23 1247.17C2299.23 1247.46 2298.93 1247.72 2298.82 1248C2298.48 1248.77 2298.21 1249.58 2298.01 1250.4C2297.37 1252.88 2297.32 1255.49 2297.85 1258C2298.58 1261.2 2299.83 1264.24 2301.56 1266.99C2302.24 1268.16 2302.97 1269.31 2303.73 1270.45L2305.62 1273.16C2305.27 1275.81 2305.08 1278.48 2305.05 1281.16C2305.06 1290.1 2306.98 1298.92 2310.69 1306.97C2314.4 1315.01 2319.79 1322.06 2326.46 1327.59C2327.53 1339.65 2327.42 1351.79 2326.11 1363.83C2325.86 1366.34 2325.57 1368.88 2325.24 1371.39C2324.92 1373.91 2324.67 1375.56 2324.35 1377.65C2320.38 1378.24 2316.34 1377.92 2312.51 1376.7C2310.74 1375.87 2308.93 1375.14 2307.09 1374.51C2299.2 1372.42 2291.15 1380.7 2283.35 1378.19C2283.35 1378.59 2283.13 1378.96 2283 1379.33C2281.37 1378.26 2279.49 1377.68 2277.58 1377.65C2272.94 1377.42 2269.18 1373.88 2265.82 1370.54L2255.49 1360.28C2254.82 1359.66 2254.22 1358.95 2253.7 1358.17C2253.15 1357.06 2252.73 1355.88 2252.46 1354.66C2250.72 1348.75 2246.52 1344.04 2242.46 1339.55C2241.69 1338.53 2240.67 1337.75 2239.51 1337.3C2239.06 1337.23 2238.6 1337.23 2238.15 1337.3C2237.87 1336.9 2237.58 1336.52 2237.26 1336.15C2236.56 1335.31 2235.8 1334.51 2235.01 1333.76C2230.08 1328.96 2229.59 1324.85 2225.31 1319.48C2221.57 1314.36 2218.19 1308.97 2215.17 1303.34C2214.82 1300.35 2214.33 1297.26 2213.74 1294.15C2212.37 1287.02 2210.38 1280.04 2207.8 1273.3L2202.38 1260.65L2201.76 1261.31C2197.83 1255.14 2193.63 1251.77 2189.86 1252.57C2183.55 1253.94 2180.43 1266.85 2181.44 1283.73L2183.6 1300.86C2183.6 1301.29 2183.79 1301.72 2183.9 1302.14C2183.51 1304.18 2183.31 1306.24 2183.31 1308.31C2183.31 1310.71 2185.42 1312.48 2186.53 1314.62C2188.31 1317.52 2189.25 1320.91 2189.24 1324.36C2189.1 1325.59 2188.75 1326.76 2188.7 1327.96C2188.85 1330.64 2189.73 1333.22 2191.25 1335.38L2204.79 1359.37L2207.5 1364.4L2207.67 1364.62C2208.52 1366.38 2209.77 1367.89 2211.3 1369.02C2211.83 1375.03 2213.34 1380.89 2215.77 1386.36C2216.23 1387.44 2216.74 1388.47 2217.29 1389.5C2220.93 1395.81 2225.22 1401.68 2230.08 1407L2236.53 1414.63C2242.89 1422.11 2249.26 1429.62 2256.17 1436.53C2258.64 1439.3 2261.63 1441.51 2264.95 1443.01C2266.58 1443.7 2268.34 1443.92 2270.07 1443.65C2271.81 1443.38 2273.44 1442.64 2274.81 1441.5C2274.81 1445.04 2274.81 1448.58 2274.81 1452.12C2275.82 1452.19 2276.79 1452.53 2277.63 1453.13C2278.46 1453.72 2279.13 1454.54 2279.57 1455.49C2280.01 1456.45 2280.19 1457.51 2280.11 1458.57C2280.03 1459.63 2279.68 1460.65 2279.09 1461.51C2273.4 1476.91 2267.66 1492.44 2259.04 1506.23C2265.13 1510.03 2270.76 1514.56 2275.84 1519.74C2279.14 1523.59 2282.07 1527.77 2284.6 1532.22C2284.84 1534.33 2285.03 1536.42 2285.14 1538.5C2287.14 1572.54 2274.65 1606.32 2263.46 1638.76C2260.24 1647.96 2256.71 1657.58 2256.98 1667.15C2254.86 1668.52 2252.83 1670.06 2250.91 1671.74C2253.14 1677.85 2252.27 1683.31 2252.02 1689.85C2251.94 1693.77 2251.18 1697.64 2249.78 1701.27C2248.6 1703.79 2247.29 1706.24 2245.87 1708.61C2238.86 1721.66 2237.31 1737.16 2235.9 1752.07C2235.06 1761.07 2238.37 1772.06 2234.49 1780.11C2227.8 1793.93 2221.87 1808.67 2220.94 1824.03C2220.91 1827.49 2220.49 1830.93 2219.7 1834.28C2218.86 1837.14 2217.37 1839.57 2216.61 1842.36C2215.83 1846.11 2215.64 1849.97 2216.07 1853.79C2216.58 1867.47 2214.65 1881.14 2210.38 1894.08C2206.99 1904.27 2203.25 1915.18 2205.91 1925.66C2199.37 1932.9 2195.33 1942.24 2194.44 1952.19C2194.37 1954.73 2194.08 1957.27 2193.58 1959.76C2192.75 1962.3 2191.66 1964.74 2190.32 1967.04C2184.87 1977.51 2182.32 1989.38 2182.95 2001.31C2174.82 2012.93 2170.76 2027.26 2168.35 2041.51C2165.94 2055.76 2164.88 2070.27 2161.79 2084.35C2157.67 2102.96 2150.22 2121.78 2148.76 2140.86C2139.98 2146.77 2136.18 2158.22 2134.5 2169.04C2132.82 2179.87 2132.55 2191.23 2128.24 2201.22C2126.02 2206.42 2122.83 2211.08 2120.71 2216.39C2119.23 2220.62 2118.14 2224.99 2117.46 2229.44C2116.16 2236.41 2115.02 2244.17 2116.62 2250.85C2114.32 2253.42 2111.64 2255.57 2108.68 2257.22C2109.11 2255.45 2109.47 2253.68 2109.76 2251.88C2102.77 2258.56 2090.09 2256.22 2084.51 2264.25C2082.83 2266.83 2082.18 2270.01 2082.69 2273.09C2083.19 2276.18 2084.82 2278.94 2087.22 2280.78C2088.97 2281.9 2090.85 2282.76 2092.83 2283.32C2106.38 2287.89 2120.31 2292.49 2134.23 2290.06C2135.88 2289.87 2137.47 2289.34 2138.92 2288.49C2140.73 2287.09 2142.22 2285.27 2143.28 2283.18C2145.37 2279.7 2147.46 2276.21 2149.52 2272.73C2154.51 2274.3 2159.58 2275.55 2164.72 2276.47C2165.23 2281.04 2165.61 2285.61 2165.8 2290.18C2168.51 2290.75 2172.14 2290.92 2173.42 2288.26C2173.8 2287.26 2173.96 2286.17 2173.88 2285.09C2173.88 2283.07 2174.15 2280.38 2174.31 2277.64H2174.85C2183.12 2277.99 2191.34 2276.24 2198.83 2272.53C2195.93 2247.23 2205.5 2222.5 2213.79 2198.57C2222.54 2173.38 2230.05 2147.74 2237.61 2122.1C2243.03 2104.05 2249.02 2086.57 2254.33 2068.5C2261.01 2045.65 2267.72 2022.81 2274.46 1999.96C2277.39 1989.91 2280.34 1979.97 2283.7 1969.98C2290.77 1949.76 2299.17 1930.07 2308.82 1911.07C2311.53 1905.67 2314.24 1900.33 2316.46 1894.74C2319.17 1887.91 2321.1 1880.77 2323.26 1873.72C2327.99 1859.25 2333.67 1845.14 2340.28 1831.51C2340.47 1831.14 2340.61 1830.8 2340.8 1830.46C2342.99 1839.91 2345.18 1849.5 2346.65 1859.01C2348.63 1870.67 2348.78 1882.59 2347.11 1894.31C2345.81 1902.27 2343.34 1910.16 2343.64 1918.24C2344.05 1929.4 2349.71 1939.54 2352.5 1950.3C2354.3 1958.36 2355.32 1966.59 2355.54 1974.86C2356.29 1987.71 2362.91 2002.13 2358.25 2014.04C2343.75 2051.76 2350.77 2094.37 2342.5 2133.98C2338.25 2154.31 2325.21 2173.41 2326.24 2194.2C2326.97 2208.95 2328.19 2223.67 2329.93 2238.35C2330.35 2242.98 2331.49 2247.5 2333.32 2251.74C2334.4 2253.97 2335.64 2256.11 2337.03 2258.14C2335.84 2258.62 2334.83 2259.91 2333.97 2262.62C2331.74 2269.76 2333.97 2278.61 2339.98 2282.61C2342.43 2283.99 2345.08 2284.95 2347.81 2285.46C2351.5 2286.57 2355.31 2287.13 2359.14 2287.12C2360.33 2287.05 2361.52 2286.9 2362.69 2286.66C2366.88 2288.52 2371.16 2290.14 2375.51 2291.52C2375.51 2292.69 2375.72 2293.86 2375.86 2295.03C2375.87 2295.64 2376 2296.25 2376.24 2296.8C2376.48 2297.36 2376.83 2297.85 2377.27 2298.26C2377.94 2298.59 2378.69 2298.73 2379.44 2298.66H2394.15C2394.15 2297.37 2394.15 2296.06 2394.15 2294.77C2395.83 2294.96 2397.54 2294.77 2399.15 2294.22C2400.76 2293.67 2402.24 2292.77 2403.5 2291.58C2404.8 2289.83 2405.73 2287.8 2406.21 2285.64C2410.22 2271.3 2414.2 2256.96 2418.16 2242.6C2422.9 2226.74 2424.88 2210.09 2423.98 2193.49C2418.75 2140.86 2430.24 2088.06 2426.5 2035.29C2424.25 2003.57 2425.8 1971.68 2431.11 1940.37C2432.33 1933.29 2433.82 1926.09 2434.36 1919.04C2435.55 1905.73 2434.09 1892.28 2434.99 1879.06C2435.28 1874.43 2435.88 1869.83 2436.42 1865.24C2440.13 1836.7 2442.08 1807.94 2442.25 1779.14C2442.16 1769.6 2441.6 1760.07 2440.57 1750.59C2443.39 1749.83 2445.96 1748.24 2447.96 1746.02C2450.38 1742.7 2449.75 1738.05 2449.73 1733.82C2449.73 1723.71 2453.76 1714.18 2457.02 1704.64C2461.19 1691.48 2464.61 1678.08 2467.26 1664.49C2470.06 1653.54 2471.59 1642.27 2471.81 1630.94C2471.81 1629.79 2471.76 1628.65 2471.65 1627.51C2472.67 1626.76 2473.52 1625.79 2474.14 1624.65C2474.85 1622.98 2475.29 1621.2 2475.44 1619.37C2476.42 1612.09 2477.42 1604.78 2478.39 1597.47C2479.12 1592.23 2479.83 1587.01 2480.54 1581.79L2489.15 1518.43C2489.88 1512.92 2490.64 1507.43 2491.37 1501.95L2493.62 1485.56C2493.87 1483.62 2494.14 1481.68 2494.33 1479.85C2500.94 1468.2 2494.63 1452.66 2493.92 1439.41ZM2422.03 1676.65C2418.84 1668.66 2415.85 1660.46 2416.61 1651.84H2416.32C2417.03 1649.19 2416.9 1646.36 2415.96 1643.79C2415.12 1641.7 2413.66 1639.93 2412.77 1637.85C2411.8 1635.3 2411.31 1632.59 2411.3 1629.85C2410.63 1612.48 2411.93 1595.09 2415.18 1578.05C2415.53 1576.05 2415.91 1574.02 2416.26 1572.03C2417.4 1571.33 2418.44 1570.48 2419.35 1569.48C2420.78 1567.77 2421.95 1565.85 2422.85 1563.77C2425.91 1557.29 2428.7 1550.69 2431.27 1543.98C2432.11 1541.81 2433.33 1539.3 2435.42 1538.76C2434.98 1555.46 2436.61 1572.51 2430.16 1587.59C2428.94 1590.02 2428.03 1592.61 2427.45 1595.3C2426.86 1599.55 2428.54 1603.87 2427.94 1608.09C2427.64 1610.29 2426.75 1612.32 2426.4 1614.49C2426.13 1615.55 2426.13 1616.67 2426.41 1617.74C2426.68 1618.8 2427.22 1619.77 2427.97 1620.54C2428.33 1620.81 2428.72 1621.02 2429.13 1621.17C2428.97 1622.31 2428.83 1623.48 2428.73 1624.6C2428.51 1626.94 2428.4 1629.14 2428.26 1630.51C2427.64 1637.49 2427.4 1644.51 2427.53 1651.53C2427.53 1659.09 2427.8 1666.66 2427.7 1674.37C2427.8 1676.58 2427.44 1678.79 2426.67 1680.85C2426.13 1681.91 2425.43 1682.88 2424.61 1683.71C2423.82 1681.14 2422.95 1678.88 2422.03 1676.65Z" fill="url(#paint0_linear)"/>
<path d="M2208.14 1345.32C2216.4 1343.53 2219.22 1322.09 2214.42 1297.41C2209.62 1272.74 2199.03 1254.18 2190.76 1255.97C2182.49 1257.76 2179.68 1279.2 2184.48 1303.88C2189.27 1328.55 2199.87 1347.11 2208.14 1345.32Z" fill="#FBBEBE"/>
<path d="M2334.4 2263.16C2332.18 2270.24 2334.4 2279.1 2340.42 2282.95C2342.85 2284.32 2345.48 2285.28 2348.19 2285.81C2351.87 2286.9 2355.67 2287.45 2359.49 2287.43C2364.18 2287.21 2368.68 2285.26 2373.37 2284.58C2373.91 2284.44 2374.48 2284.52 2374.97 2284.81C2375.2 2285.07 2375.38 2285.39 2375.48 2285.74C2375.58 2286.08 2375.61 2286.45 2375.56 2286.81C2375.61 2289.61 2375.81 2292.42 2376.16 2295.2C2376.16 2295.81 2376.29 2296.42 2376.53 2296.98C2376.78 2297.53 2377.13 2298.03 2377.57 2298.43C2378.24 2298.76 2378.99 2298.9 2379.73 2298.83H2394.42C2394.75 2285.23 2393.34 2271.65 2390.22 2258.45C2390.02 2257.44 2389.65 2256.47 2389.14 2255.59C2387.89 2254.16 2386.25 2253.16 2384.45 2252.74C2380.86 2251.16 2376.98 2250.45 2373.1 2250.65C2368.35 2251.31 2364.4 2254.54 2360.36 2257.22C2356.32 2259.91 2350.82 2262.28 2345.92 2260.91C2341.01 2259.54 2336.92 2255.22 2334.4 2263.16Z" fill="#3F3D56"/>
<path d="M2118.76 2250.63C2114.63 2255.28 2109.57 2258.91 2103.94 2261.25L2101.45 2262.5C2101.1 2262.64 2100.81 2262.89 2100.61 2263.22C2100.56 2263.44 2100.56 2263.67 2100.61 2263.89C2100.65 2264.12 2100.75 2264.32 2100.88 2264.5C2102.95 2267.88 2106.02 2270.46 2109.61 2271.84C2113.2 2273.21 2117.12 2273.31 2120.77 2272.13C2122.38 2271.7 2123.88 2270.88 2125.13 2269.73C2127.19 2267.15 2128.38 2263.91 2128.49 2260.53C2129.31 2257.05 2129.17 2253.4 2128.08 2250C2124.32 2241.06 2122.93 2245.11 2118.76 2250.63Z" fill="#FBBEBE"/>
<path d="M2175.07 2285.81C2175.15 2286.89 2174.99 2287.97 2174.61 2288.98C2173.33 2291.6 2169.78 2291.46 2167.02 2290.89C2166.6 2281.2 2165.49 2271.56 2163.69 2262.05C2158.43 2261.79 2154.64 2267.05 2151.82 2271.76L2144.56 2283.89C2143.51 2285.98 2142.02 2287.8 2140.22 2289.2C2138.77 2290.04 2137.18 2290.58 2135.53 2290.78C2121.66 2293.2 2107.65 2288.61 2094.26 2284.04C2092.29 2283.48 2090.4 2282.63 2088.66 2281.52C2086.27 2279.68 2084.65 2276.92 2084.14 2273.85C2083.64 2270.77 2084.28 2267.6 2085.95 2265.02C2091.55 2257.02 2104.15 2259.31 2111.15 2252.68C2110.42 2257.34 2109.22 2261.91 2107.57 2266.3C2116.92 2264.82 2123.2 2255.79 2130.74 2249.77C2132.63 2248.08 2134.91 2246.94 2137.35 2246.46C2139.17 2246.3 2141.01 2246.5 2142.77 2247.06C2151.45 2249.36 2159.58 2253.58 2166.61 2259.42C2169.46 2261.79 2173.9 2265.13 2175.15 2268.79C2176.48 2273.16 2175.07 2281.15 2175.07 2285.81Z" fill="#3F3D56"/>
<path d="M2361.47 1343.64C2392.39 1343.64 2417.45 1317.22 2417.45 1284.64C2417.45 1252.06 2392.39 1225.64 2361.47 1225.64C2330.55 1225.64 2305.49 1252.06 2305.49 1284.64C2305.49 1317.22 2330.55 1343.64 2361.47 1343.64Z" fill="#FBBEBE"/>
<path d="M2471.75 1632.96C2471.53 1644.24 2470.01 1655.45 2467.23 1666.35C2464.58 1679.88 2461.16 1693.23 2456.99 1706.32C2453.76 1715.83 2449.72 1725.37 2449.75 1735.45C2449.75 1739.65 2450.4 1744.3 2447.96 1747.62C2445.79 1749.94 2443.05 1751.59 2440.05 1752.38C2438.55 1752.8 2437.17 1753.59 2436.01 1754.67C2434.85 1755.76 2433.95 1757.12 2433.38 1758.64C2430.84 1754.63 2428.94 1750.21 2427.75 1745.56C2422.89 1729.87 2418.37 1714.1 2414.2 1698.24C2413.82 1697.33 2413.65 1696.33 2413.72 1695.34C2413.78 1694.34 2414.08 1693.38 2414.58 1692.53C2415.27 1691.9 2416.07 1691.43 2416.94 1691.13C2419.71 1689.94 2422.26 1688.22 2424.44 1686.05C2425.47 1685.09 2426.31 1683.94 2426.94 1682.65C2427.72 1680.6 2428.08 1678.4 2427.99 1676.2C2427.99 1668.63 2427.99 1661.09 2427.8 1653.52C2427.69 1646.54 2427.94 1639.55 2428.56 1632.59C2428.56 1631.22 2428.8 1629.02 2429.02 1626.68C2429.43 1622.2 2430.24 1617 2432.54 1615.26C2435.99 1612.83 2446.28 1616.09 2450.18 1616.66C2456.9 1617.63 2463.73 1618.77 2470.29 1620.11C2471.24 1624.32 2471.73 1628.64 2471.75 1632.96Z" fill="#3F3D56"/>
<path d="M2245.71 1350.69C2243.54 1355.26 2238.34 1357.46 2234.33 1360.34L2220.59 1370.28C2219.67 1371.15 2218.6 1371.82 2217.43 1372.24C2216.26 1372.66 2215.02 1372.83 2213.79 1372.73C2212.67 1372.3 2211.65 1371.63 2210.78 1370.77C2209.91 1369.92 2209.21 1368.88 2208.72 1367.74C2208.73 1367.66 2208.73 1367.58 2208.72 1367.51L2205.88 1362.48L2192.33 1338.55C2190.82 1336.41 2189.95 1333.85 2189.81 1331.19C2189.81 1329.96 2190.22 1328.82 2190.32 1327.59C2190.36 1324.14 2189.42 1320.76 2187.61 1317.88C2186.53 1315.74 2184.36 1313.97 2184.42 1311.57C2184.31 1308.42 2184.83 1305.28 2185.93 1302.34C2187.36 1299.63 2189.4 1297.34 2191.87 1295.66C2193.14 1294.69 2194.44 1293.78 2195.8 1292.81C2196.52 1292.29 2197.31 1291.9 2198.16 1291.66C2200.4 1291.18 2202.63 1293.15 2204.9 1293.24C2214.68 1300.15 2218.45 1313.22 2226.15 1322.65C2230.48 1328.02 2230.92 1332.13 2235.82 1336.93C2236.61 1337.67 2237.36 1338.47 2238.1 1339.3C2239.07 1340.41 2239.89 1341.66 2240.54 1343.01C2241.43 1345.46 2246.82 1348.35 2245.71 1350.69Z" fill="#3F3D56"/>
<path d="M2341.8 1343.66C2345.83 1352.66 2348.98 1362.54 2347.81 1372.42C2347.57 1375.1 2346.77 1377.68 2345.45 1379.99C2341.55 1386.3 2333.37 1387.44 2326.24 1387.81C2324.74 1387.68 2323.23 1387.86 2321.8 1388.35C2320.36 1388.84 2319.04 1389.63 2317.9 1390.67C2316.94 1392.13 2316.48 1393.88 2316.57 1395.64C2316.66 1397.41 2317.31 1399.1 2318.41 1400.43C2320.7 1403.01 2323.55 1404.97 2326.7 1406.14C2337.98 1411.37 2350.14 1415.68 2362.39 1414.48C2368.08 1413.91 2373.61 1412.17 2379.27 1411.28C2385.45 1410.58 2391.65 1410.22 2397.86 1410.2C2405.23 1409.91 2412.57 1409.14 2419.92 1408.37L2439.37 1406.34C2440.44 1406.36 2441.47 1405.96 2442.27 1405.23C2443.71 1403.46 2441.87 1400.86 2440.08 1399.52C2429.75 1391.47 2416.61 1385.93 2410.73 1373.82C2408.02 1368.11 2407.18 1361.31 2405.18 1355.14C2403.17 1348.98 2399.97 1343.41 2398.73 1337.13C2398.06 1331.61 2397.76 1326.06 2397.83 1320.51C2397.9 1314.9 2395.97 1309.48 2392.41 1305.31C2388.54 1301.52 2382.93 1300.55 2377.67 1300.32C2364.72 1299.72 2350.93 1302.97 2341.74 1312.6C2339.28 1315.19 2337.16 1318.31 2334.62 1320.65C2332.07 1322.99 2328.6 1323.68 2330.28 1326.76C2331.96 1329.84 2335.27 1331.76 2337.05 1334.47C2338.86 1337.4 2340.45 1340.47 2341.8 1343.66V1343.66Z" fill="#FBBEBE"/>
<path d="M2452.16 1426.73C2448.75 1448.72 2443.19 1470.28 2435.58 1491.07C2431.76 1500.46 2428.5 1510.09 2425.83 1519.91C2423.74 1528.76 2424.15 1538.24 2422.22 1547.13C2419.84 1558.18 2417.45 1569.26 2415.53 1580.39C2412.3 1597.4 2411.01 1614.75 2411.68 1632.08C2411.69 1634.81 2412.18 1637.51 2413.14 1640.05C2414.04 1642.1 2415.47 1643.87 2416.31 1645.99C2416.94 1647.84 2417.2 1649.81 2417.07 1651.78C2416.94 1653.75 2416.42 1655.66 2415.56 1657.41C2414.17 1660.68 2412.28 1663.69 2409.97 1666.32C2384.72 1674.26 2357.7 1671.66 2331.39 1673.34C2307.14 1674.88 2282.62 1680.14 2258.72 1675.77C2256.01 1664.35 2260.53 1652.38 2264.41 1641.25C2275.65 1608.89 2288.09 1575.2 2286.09 1541.3C2285.87 1537.35 2285.45 1533.41 2284.81 1529.51C2280.88 1505.49 2285.16 1480.62 2292.02 1457.35C2296.27 1442.84 2296.08 1427.39 2295.11 1412.28C2294.63 1407.38 2294.56 1402.44 2294.92 1397.52C2295.31 1392.5 2297.08 1387.71 2300.01 1383.73C2300.01 1383.53 2300.26 1383.33 2300.39 1383.13C2300.53 1382.93 2301.58 1382.96 2302.42 1383.13C2302.64 1383.22 2302.87 1383.27 2303.1 1383.27C2303.33 1383.27 2303.57 1383.22 2303.78 1383.13L2304.08 1382.93C2304.19 1382.84 2304.33 1382.8 2304.47 1382.8C2304.61 1382.8 2304.75 1382.84 2304.86 1382.93C2305.49 1383.33 2305.84 1384.7 2307.19 1384.96C2309.2 1385.28 2311.21 1385.48 2313.24 1385.56C2315.67 1385.63 2318.09 1386 2320.44 1386.64H2320.77C2324.29 1387.27 2327.91 1386.94 2331.28 1385.7C2333.53 1385.11 2335.69 1384.23 2337.73 1383.07C2338.33 1382.39 2342.07 1381.76 2342.83 1381.27C2345.29 1379.7 2344.75 1372.33 2345.27 1369.31C2345.55 1366.27 2346.23 1363.29 2347.3 1360.46C2348.53 1358.36 2350.23 1356.62 2352.26 1355.38C2354.28 1354.14 2356.56 1353.44 2358.9 1353.35C2363.56 1353.23 2368.22 1353.67 2372.8 1354.66C2382.9 1356.17 2393.25 1355.92 2403.17 1358.37C2408.16 1359.6 2413.6 1361.45 2418.18 1359.06C2419.43 1359.37 2419.62 1360.51 2419.62 1361.91C2419.5 1363.24 2419.25 1364.55 2418.86 1365.82C2417.13 1373.71 2423.01 1380.96 2428.43 1386.67C2430.72 1389.36 2433.42 1391.63 2436.42 1393.38C2439.13 1394.69 2441.84 1395.24 2444.55 1396.66C2446.74 1397.9 2448.61 1399.7 2449.97 1401.89C2451.53 1404.41 2452.58 1407.24 2453.06 1410.2C2453.64 1415.72 2453.34 1421.31 2452.16 1426.73Z" fill="#3F3D56"/>
<path opacity="0.1" d="M2452.17 1426.73C2448.75 1448.72 2443.19 1470.28 2435.58 1491.07C2431.76 1500.46 2428.5 1510.09 2425.83 1519.91C2423.74 1528.76 2424.15 1538.24 2422.22 1547.13C2419.84 1558.18 2417.46 1569.26 2415.53 1580.39C2414.96 1580.74 2414.37 1581.05 2413.77 1581.34C2410.4 1583.03 2406.83 1584.24 2403.15 1584.93C2396.54 1585.78 2389.85 1585.54 2383.31 1584.25L2344.64 1578.79C2329.2 1576.6 2312.75 1573.94 2301.29 1562.92C2294.92 1556.86 2290.75 1548.87 2286.17 1541.16C2285.96 1537.2 2285.53 1533.27 2284.89 1529.36C2280.97 1505.35 2285.25 1480.48 2292.1 1457.2C2296.36 1442.7 2296.17 1427.25 2295.19 1412.14C2294.71 1407.24 2294.65 1402.3 2295 1397.38C2295.39 1392.36 2297.16 1387.57 2300.1 1383.59C2300.89 1383.34 2301.69 1383.15 2302.51 1383.02V1383.02C2303.05 1382.9 2303.61 1382.82 2304.16 1382.79H2304.95C2305.86 1382.79 2306.77 1382.91 2307.66 1383.13C2309.5 1383.75 2311.31 1384.48 2313.08 1385.33H2313.4C2315.72 1386.14 2318.16 1386.5 2320.61 1386.41C2324.19 1386.41 2327.87 1385.81 2331.45 1385.56C2335.87 1384.83 2340.39 1385.68 2344.29 1387.98C2346.81 1390.12 2349.2 1392.42 2351.45 1394.87C2354.16 1397.11 2357.21 1398.86 2360.47 1400.03C2383.79 1409.42 2409.67 1408.84 2432.6 1398.44C2434.81 1397.12 2437.3 1396.45 2439.84 1396.49C2441.71 1396.88 2443.48 1397.68 2445.04 1398.84C2446.67 1399.83 2448.27 1400.81 2449.92 1401.69C2451.48 1404.21 2452.53 1407.04 2453.01 1410C2453.63 1415.59 2453.34 1421.25 2452.17 1426.73V1426.73Z" fill="black"/>
<path d="M2475.77 1407.83C2464.98 1404.36 2454.61 1399.56 2444.88 1393.55C2443.32 1392.4 2441.55 1391.61 2439.68 1391.21C2437.14 1391.18 2434.63 1391.85 2432.42 1393.15C2409.49 1403.56 2383.63 1404.13 2360.31 1394.75C2357.05 1393.56 2354 1391.82 2351.29 1389.58C2349.03 1387.14 2346.64 1384.84 2344.13 1382.7C2335.22 1376.62 2322.89 1383.76 2312.92 1379.84C2311.15 1379.01 2309.34 1378.28 2307.5 1377.65C2299.61 1375.56 2291.59 1383.84 2283.84 1381.33C2280.96 1389.59 2278.83 1398.12 2277.47 1406.8C2276.37 1416.77 2275.78 1426.8 2275.71 1436.84C2275.71 1442.87 2275.44 1448.89 2275.71 1454.92C2276.67 1455.08 2277.58 1455.45 2278.39 1456.01C2279.2 1456.57 2279.9 1457.29 2280.43 1458.15C2280.78 1459.14 2280.93 1460.21 2280.85 1461.27C2280.78 1462.33 2280.48 1463.36 2279.99 1464.28C2274.33 1479.62 2268.58 1495.12 2260 1508.86C2266.05 1512.66 2271.67 1517.18 2276.74 1522.34C2286.23 1532.9 2290.89 1547.72 2301.13 1557.49C2312.67 1568.49 2329.12 1571.17 2344.48 1573.34L2383.15 1578.79C2389.7 1580.09 2396.4 1580.33 2403.01 1579.51C2406.68 1578.8 2410.25 1577.58 2413.61 1575.88C2415.81 1574.91 2417.81 1573.52 2419.52 1571.77C2420.95 1570.06 2422.12 1568.13 2423.01 1566.06C2426.07 1559.6 2428.87 1553.01 2431.44 1546.33C2432.33 1543.96 2433.69 1541.19 2436.13 1540.99C2450.49 1527.34 2464.04 1513.34 2478.4 1499.69C2484.17 1494.65 2489.35 1488.9 2493.82 1482.56C2500.94 1471.45 2494.47 1455.72 2493.82 1442.3C2493.74 1438.86 2493.33 1435.45 2492.6 1432.1C2490.27 1422.36 2484.79 1410.71 2475.77 1407.83Z" fill="#6DD5ED"/>
<path opacity="0.1" d="M2245.71 1350.69C2243.54 1355.26 2238.34 1357.46 2234.33 1360.34L2220.59 1370.28C2219.67 1371.15 2218.6 1371.82 2217.43 1372.24C2216.26 1372.66 2215.02 1372.83 2213.79 1372.73C2212.67 1372.3 2211.65 1371.63 2210.78 1370.78C2209.91 1369.92 2209.21 1368.88 2208.72 1367.74C2208.72 1367.08 2208.72 1366.37 2208.72 1365.68C2208.62 1363.37 2208.91 1361.06 2209.59 1358.86C2210.93 1355.63 2213.02 1352.8 2215.66 1350.63C2220.76 1345.54 2226.83 1341.65 2233.46 1339.21C2234.49 1338.79 2235.62 1338.67 2236.71 1338.87C2237.13 1338.98 2237.54 1339.17 2237.9 1339.41C2238.87 1340.52 2239.69 1341.77 2240.34 1343.12C2241.43 1345.46 2246.82 1348.35 2245.71 1350.69Z" fill="black"/>
<path d="M2278.07 1380.79C2273.46 1380.56 2269.69 1377.05 2266.33 1373.71L2256.06 1363.65C2255.38 1363.04 2254.77 1362.33 2254.27 1361.54C2253.72 1360.43 2253.3 1359.25 2253.03 1358.03C2250.85 1352.26 2247.44 1347.1 2243.06 1342.95C2242.29 1341.93 2241.27 1341.16 2240.1 1340.72C2239 1340.51 2237.86 1340.63 2236.82 1341.07C2230.19 1343.5 2224.12 1347.4 2219.02 1352.49C2216.38 1354.66 2214.3 1357.49 2212.95 1360.71C2212.27 1362.91 2211.98 1365.23 2212.08 1367.54C2212.15 1375.08 2213.76 1382.53 2216.8 1389.36C2217.26 1390.41 2217.77 1391.47 2218.32 1392.5C2221.93 1398.79 2226.2 1404.65 2231.05 1409.94L2237.5 1417.54C2243.84 1425.02 2250.18 1432.5 2257.07 1439.39C2259.53 1442.16 2262.52 1444.36 2265.85 1445.84C2267.51 1446.56 2269.34 1446.78 2271.11 1446.47C2272.89 1446.17 2274.56 1445.36 2275.93 1444.13C2277.22 1442.54 2278.2 1440.7 2278.8 1438.7C2282.97 1427.28 2286.93 1415.4 2287.17 1403.09C2287.23 1398.16 2287.03 1393.23 2286.57 1388.33C2286.17 1383.13 2282.67 1381.1 2278.07 1380.79Z" fill="#6DD5ED"/>
<path d="M2442.28 1780.57C2442.12 1809.29 2440.18 1837.98 2436.48 1866.44C2435.94 1871.03 2435.34 1875.63 2435.04 1880.23C2434.15 1893.56 2435.61 1906.96 2434.42 1920.21C2433.8 1927.37 2432.39 1934.48 2431.2 1941.48C2425.9 1972.71 2424.35 2004.51 2426.59 2036.14C2430.33 2088.77 2418.87 2141.43 2424.07 2193.91C2424.7 2204.12 2424.16 2214.37 2422.47 2224.44C2421.5 2230.69 2420.1 2236.85 2418.27 2242.89C2414.31 2257.18 2410.34 2271.46 2406.35 2285.72C2405.88 2287.89 2404.95 2289.92 2403.64 2291.66C2402.26 2292.92 2400.63 2293.85 2398.88 2294.4C2397.13 2294.95 2395.29 2295.09 2393.48 2294.83C2377.84 2294.32 2363.13 2287.21 2348.93 2280.27C2347.3 2279.59 2345.78 2278.62 2344.46 2277.41C2341.5 2274.18 2341.75 2269.1 2340.45 2264.85C2339.15 2260.59 2335.62 2256.59 2333.62 2252.22C2331.97 2248.09 2330.97 2243.7 2330.67 2239.23C2328.86 2224.61 2327.63 2209.93 2326.98 2195.2C2325.95 2174.47 2338.96 2155.39 2343.24 2135.23C2351.37 2095.6 2344.49 2053.1 2358.93 2015.5C2363.48 2003.62 2356.87 1989.23 2356.22 1976.43C2355.98 1968.18 2354.97 1959.97 2353.18 1951.93C2350.47 1941.19 2344.76 1931.09 2344.35 1919.95C2344.05 1911.9 2346.52 1904.04 2347.79 1896.1C2349.48 1884.42 2349.32 1872.53 2347.33 1860.9C2345.89 1851.3 2343.7 1841.71 2341.5 1832.34L2341.02 1833.4C2334.41 1846.99 2328.74 1861.07 2324.03 1875.52C2321.86 1882.51 2319.96 1889.65 2317.25 1896.45C2315.03 1902.16 2312.29 1907.38 2309.61 1912.75C2299.99 1931.68 2291.61 1951.29 2284.55 1971.44C2281.19 1981.32 2278.23 1991.42 2275.31 2001.33L2255.23 2069.87C2249.81 2087.89 2243.87 2105.3 2238.56 2123.29C2231.06 2149 2223.55 2174.47 2214.82 2199.6C2206.7 2223.44 2197.02 2248.14 2199.92 2273.33C2192.45 2277.03 2184.24 2278.78 2175.99 2278.44C2162.03 2277.14 2148.33 2273.63 2135.35 2268.04C2130.17 2266.02 2124.81 2263.73 2121.31 2259.25C2115.3 2251.51 2116.79 2240.17 2118.6 2230.32C2119.29 2225.88 2120.38 2221.52 2121.85 2217.3C2123.91 2212.05 2127.27 2207.39 2129.39 2202.19C2133.64 2192.23 2133.91 2180.95 2135.59 2170.13C2137.27 2159.3 2141.01 2147.88 2149.79 2142C2151.28 2122.98 2158.71 2104.22 2162.8 2085.63C2165.89 2071.55 2166.92 2057.07 2169.36 2042.8C2171.79 2028.52 2175.72 2014.24 2183.91 2002.68C2183.26 1990.75 2185.82 1978.87 2191.28 1968.41C2192.6 1966.11 2193.68 1963.67 2194.5 1961.13C2195.01 1958.65 2195.3 1956.12 2195.37 1953.59C2196.26 1943.66 2200.29 1934.34 2206.8 1927.12C2204.09 1916.69 2207.86 1905.81 2211.25 1895.71C2215.51 1882.81 2217.44 1869.18 2216.94 1855.53C2216.52 1851.72 2216.69 1847.86 2217.45 1844.1C2218.21 1841.25 2219.7 1838.82 2220.57 1836.08C2221.34 1832.72 2221.75 1829.28 2221.79 1825.83C2222.85 1810.38 2228.78 1795.82 2235.34 1782.02C2239.24 1773.97 2235.93 1763.03 2236.75 1754.07C2238.16 1739.16 2239.7 1723.74 2246.72 1710.75C2248.02 1708.29 2249.43 1705.95 2250.59 1703.41C2252 1699.78 2252.77 1695.91 2252.84 1691.99C2253.09 1685.45 2253.95 1680.02 2251.73 1673.94C2266.23 1661.23 2286.01 1657.66 2304.87 1656.81C2323.73 1655.95 2342.8 1657.75 2361.26 1653.52C2366.68 1652.24 2372.1 1650.47 2377.81 1649.61C2390.79 1647.61 2403.96 1650.72 2416.78 1653.81C2415.89 1662.38 2418.87 1670.6 2422.2 1678.57C2435.21 1710.84 2442.04 1745.5 2442.28 1780.57V1780.57Z" fill="#33313F"/>
<path opacity="0.1" d="M2378.46 1787.11L2347.33 1860.9C2345.89 1851.3 2343.69 1841.71 2341.5 1832.34L2341.01 1833.4V1831.86L2357.97 1792.53L2378.46 1787.11Z" fill="black"/>
<path opacity="0.1" d="M2471.75 1632.96C2469.96 1634.38 2467.81 1635.22 2465.57 1635.39C2462.14 1635.52 2458.71 1635.03 2455.44 1633.93L2431.05 1627.51C2430.29 1627.31 2429.54 1627.03 2428.83 1626.68C2429.24 1622.2 2430.05 1617 2432.35 1615.26C2435.79 1612.83 2446.09 1616.09 2449.99 1616.66C2456.71 1617.63 2463.54 1618.77 2470.1 1620.11C2471.12 1624.32 2471.67 1628.63 2471.75 1632.96V1632.96Z" fill="black"/>
<path d="M2492.38 1463.06C2492.89 1465.43 2493.63 1467.77 2494.06 1470.17C2494.79 1476.05 2494.6 1482.02 2493.49 1487.84L2491.27 1504.18L2489.05 1520.6L2480.46 1583.79L2478.34 1599.44L2475.36 1621.28C2475.22 1623.1 2474.78 1624.88 2474.06 1626.54C2473.17 1628.09 2471.93 1629.39 2470.45 1630.31C2468.97 1631.23 2467.3 1631.75 2465.58 1631.82C2462.15 1631.94 2458.72 1631.44 2455.44 1630.36L2431.06 1623.91C2429.99 1623.71 2428.97 1623.27 2428.08 1622.63C2427.33 1621.86 2426.79 1620.9 2426.52 1619.84C2426.24 1618.78 2426.24 1617.66 2426.5 1616.6C2426.86 1614.43 2427.75 1612.4 2428.05 1610.23C2428.64 1606.01 2426.96 1601.67 2427.56 1597.47C2428.15 1594.8 2429.06 1592.21 2430.27 1589.79C2438.4 1570.85 2433.68 1548.75 2436.45 1528.19C2438.94 1512.01 2445.42 1496.8 2455.25 1484.1C2461.32 1476.08 2468.29 1468.87 2476.01 1462.63C2479.05 1460.14 2483.87 1455.03 2487.69 1454.06C2492.6 1452.98 2491.57 1459.46 2492.38 1463.06Z" fill="#6DD5ED"/>
<path d="M2307.82 1217.08C2306.03 1223.07 2308.82 1229.67 2307.55 1235.78C2306.17 1242.52 2300.15 1247.2 2298.44 1253.97C2295.73 1264.28 2304.03 1273.67 2310.1 1282.24C2332.59 1314.05 2329.63 1358.09 2321.94 1396.89C2315.75 1428.03 2307.18 1458.59 2296.33 1488.27C2292.94 1497.5 2289.2 1506.86 2282.54 1513.77C2295 1510 2308.25 1506.2 2320.75 1509.86C2336.57 1514.49 2350.23 1530.68 2366.27 1526.99C2375.92 1524.74 2382.69 1515.71 2391.36 1510.72C2407.62 1501.49 2427.21 1507.29 2445.34 1510.26C2449.24 1511.23 2453.33 1511.01 2457.13 1509.63C2460.03 1507.99 2462.49 1505.6 2464.28 1502.69C2472.37 1491.75 2477.21 1478.54 2478.21 1464.71C2478.64 1457.83 2477.67 1450.92 2475.38 1444.46C2473.08 1438 2469.51 1432.12 2464.9 1427.22C2461.05 1423.39 2456.45 1420.31 2453.49 1415.8C2450.62 1410.53 2449.08 1404.57 2449.02 1398.49C2446.88 1367.08 2454.15 1335.01 2446.67 1304.63C2443.96 1293.81 2439.54 1283.44 2438.35 1272.36C2436.86 1258.57 2440.41 1243.81 2435.2 1231.18C2431.11 1221.16 2422.09 1214.05 2412.36 1210.4C2402.63 1206.74 2392.23 1205.71 2381.9 1204.68C2367.05 1203.37 2314.03 1196.66 2307.82 1217.08Z" fill="#33313F"/>
<g opacity="0.1">
<path opacity="0.1" d="M2321.94 1396.89C2315.78 1427.9 2307.26 1458.33 2296.47 1487.9C2298.34 1483.99 2299.91 1479.88 2301.4 1475.79C2312.26 1446.11 2320.82 1415.55 2327 1384.41C2334.73 1345.58 2337.68 1301.6 2315.19 1269.76C2309.77 1262.17 2302.81 1253.94 2303.05 1245.03C2301.05 1247.73 2299.49 1250.76 2298.44 1254C2295.73 1264.31 2304.03 1273.7 2310.1 1282.27C2332.59 1314.05 2329.63 1358.09 2321.94 1396.89Z" fill="black"/>
<path opacity="0.1" d="M2307.88 1232.9C2310.05 1230.05 2311.67 1226.78 2312.65 1223.27C2313.06 1219.03 2312.96 1214.75 2312.32 1210.54C2310.23 1212.19 2308.67 1214.47 2307.82 1217.08C2306.22 1222.13 2308.07 1227.61 2307.88 1232.9Z" fill="black"/>
<path opacity="0.1" d="M2469.37 1490.13C2467.58 1493.03 2465.12 1495.41 2462.22 1497.04C2458.43 1498.45 2454.34 1498.67 2450.43 1497.67C2432.3 1494.81 2412.5 1488.93 2396.45 1498.15C2387.76 1503.12 2381.01 1512.15 2371.34 1514.43C2355.32 1518.2 2341.66 1502.01 2325.84 1497.3C2314.62 1494.01 2302.81 1496.73 2291.51 1500.15C2289.26 1505.2 2286.23 1509.81 2282.54 1513.8C2295 1510.03 2308.25 1506.23 2320.75 1509.89C2336.57 1514.52 2350.23 1530.71 2366.27 1527.02C2375.92 1524.77 2382.69 1515.74 2391.36 1510.75C2407.62 1501.52 2427.21 1507.32 2445.34 1510.29C2449.24 1511.26 2453.33 1511.04 2457.13 1509.66C2460.03 1508.02 2462.49 1505.63 2464.28 1502.72C2469.19 1495.9 2472.98 1488.25 2475.5 1480.11C2473.69 1483.6 2471.64 1486.95 2469.37 1490.13Z" fill="black"/>
</g>
</g>
<defs>
<linearGradient id="paint0_linear" x1="2082.69" y1="1748.81" x2="2497.28" y2="1748.81" gradientUnits="userSpaceOnUse">
<stop stop-color="#808080" stop-opacity="0.25"/>
<stop offset="0.54" stop-color="#808080" stop-opacity="0.12"/>
<stop offset="1" stop-color="#808080" stop-opacity="0.1"/>
</linearGradient>
<clipPath id="clip0">
<rect width="3160" height="2299" fill="white"/>
</clipPath>
</defs>
</svg>
