<svg width="3168" height="2299" viewBox="0 0 3168 2299" fill="none" xmlns="http://www.w3.org/2000/svg">
<g clip-path="url(#clip0)">
<path opacity="0.1" d="M1749.26 317.763C1560.25 311.373 1380.23 251.754 1208.33 186.544C1036.44 121.335 866.175 49.1075 681.575 14.5344C562.917 -7.68712 427.205 -10.825 331.619 51.3325C239.596 111.236 209.866 214.328 193.891 310.118C181.859 382.174 174.792 458.023 207.734 525.487C230.63 572.326 271.254 611.691 299.319 656.534C397.066 812.655 327.968 1005.12 222.073 1157.56C172.426 1229.04 114.747 1297.33 76.4021 1373.36C38.0568 1449.38 20.4466 1536.67 54.0024 1614.46C87.2369 1691.47 166.468 1749.21 252.3 1789.86C426.621 1872.44 631.956 1896.06 832.327 1909.47C1275.74 1939.08 1721.48 1926.27 2166.06 1913.4C2330.6 1908.64 2495.84 1903.85 2657.69 1878.97C2747.58 1865.2 2840.36 1843.29 2905.63 1790.54C2988.46 1723.42 3008.99 1609.78 2953.47 1525.6C2860.36 1384.42 2603.02 1349.37 2537.86 1197.87C2502.06 1114.46 2538.82 1021.58 2590.9 944.244C2702.57 778.31 2889.74 632.743 2899.62 443.104C2906.36 312.856 2816.38 182.408 2677.25 120.764C2531.44 56.1819 2329.2 64.3117 2221.67 171.226C2110.84 281.05 1916.16 323.439 1749.26 317.763Z" fill="#6DD5ED"/>
<path d="M303.552 1951.36C303.552 1951.36 364.881 1941.77 401.678 1984.1C401.678 1984.1 374.694 2004.87 316.635 1976.12L303.552 1951.36Z" fill="#6DD5ED"/>
<path d="M296.976 1950.44C296.976 1950.44 257.871 1997.57 277.058 2049.83C277.058 2049.83 308.949 2037.36 312.425 1973.86L296.976 1950.44Z" fill="#6DD5ED"/>
<path d="M261.851 1873.08C261.851 1873.08 286.382 1829.15 384.509 1890.65C384.509 1890.65 371.425 1920.21 328.086 1917.81C284.747 1915.41 273.299 1896.24 261.851 1873.08Z" fill="#6DD5ED"/>
<path d="M255.508 1869.92C255.508 1869.92 204.604 1864.21 199.669 1978.03C199.669 1978.03 231.794 1984.59 254.865 1948.59C277.937 1912.59 268.328 1892.39 255.508 1869.92Z" fill="#6DD5ED"/>
<path d="M225.981 1779.15C225.981 1779.15 254.602 1701.64 358.452 1756.78C358.452 1756.78 334.738 1827.87 236.612 1805.5L225.981 1779.15Z" fill="#6DD5ED"/>
<path d="M193.86 1663.31C193.86 1663.31 247.859 1585.03 343.533 1657.6C343.533 1657.6 310.006 1731.11 202.038 1691.15L193.86 1663.31Z" fill="#6DD5ED"/>
<path d="M182.498 1553.08C182.498 1553.08 245.492 1481.2 340.348 1553.08C340.348 1553.08 280.654 1616.18 182.644 1571.45L182.498 1553.08Z" fill="#6DD5ED"/>
<path d="M172.684 1446.17C172.684 1446.17 236.495 1371.09 327.262 1442.17C327.262 1442.17 255.303 1508.47 172.684 1463.74V1446.17Z" fill="#6DD5ED"/>
<path d="M178.408 1351.01C178.408 1351.01 245.578 1254.33 330.534 1319.83C330.534 1319.83 258.574 1402.92 178.408 1369.38V1351.01Z" fill="#6DD5ED"/>
<path d="M193.86 1239.96C193.86 1239.96 265.031 1144.11 347.621 1217.59C347.621 1217.59 263.396 1300.66 193.86 1257.53V1239.96Z" fill="#6DD5ED"/>
<path d="M217.689 1140.71C217.689 1140.71 301.914 1050.66 375.392 1086.52C375.392 1086.52 287.604 1182.16 214.009 1164.59L217.689 1140.71Z" fill="#6DD5ED"/>
<path d="M247.126 1046.81C247.126 1046.81 344.435 936.556 400.857 973.326C400.857 973.326 329.248 1058.9 240.233 1067.46L247.126 1046.81Z" fill="#6DD5ED"/>
<path d="M289.62 937.525C289.62 937.525 374.692 847.441 436.839 869.948C436.839 869.948 364.062 963.426 278.201 965.822L289.62 937.525Z" fill="#6DD5ED"/>
<path d="M328.196 835.461C328.196 835.461 422.234 749.199 463.12 764.375C463.12 764.375 395.249 860.221 324.107 854.63L328.196 835.461Z" fill="#6DD5ED"/>
<path d="M365.7 741.212C365.7 741.212 446.655 638.177 490.812 646.165C490.812 646.165 441.748 738.017 365.7 751.71V741.212Z" fill="#6DD5ED"/>
<path d="M406.524 614.157C406.524 614.157 478.075 535.141 516.712 535.341C516.712 535.341 460.231 640.886 403.574 639.916L406.524 614.157Z" fill="#6DD5ED"/>
<path d="M430.707 529.551L499.804 365.043C499.804 365.043 503.279 513.776 421.916 560.13L430.707 529.551Z" fill="#6DD5ED"/>
<path d="M458.774 348.071C458.774 348.071 470.222 210.691 462.862 199.509C462.862 199.509 512.276 313.612 458.277 408.774L458.774 348.071Z" fill="#6DD5ED"/>
<path d="M223.063 1777.29C223.063 1777.29 151.396 1733.91 104.99 1840.05C104.99 1840.05 168.773 1881.38 231.474 1804.36L223.063 1777.29Z" fill="#6DD5ED"/>
<path d="M191.665 1658.91C191.665 1658.91 103.76 1619.72 61.0928 1730.57C61.0928 1730.57 129.022 1776.07 199.667 1686.9L191.665 1658.91Z" fill="#6DD5ED"/>
<path d="M178.412 1559.67C178.412 1559.67 115.448 1487.79 20.709 1559.67C20.709 1559.67 80.4027 1622.77 178.412 1578.04V1559.67Z" fill="#6DD5ED"/>
<path d="M170.493 1446.17C170.493 1446.17 106.71 1371.09 15.9141 1442.17C15.9141 1442.17 87.9027 1508.47 170.493 1463.74V1446.17Z" fill="#6DD5ED"/>
<path d="M178.407 1353.72C178.407 1353.72 133.665 1245.32 36.415 1292.01C36.415 1292.01 88.9829 1388.03 174.464 1371.69L178.407 1353.72Z" fill="#6DD5ED"/>
<path d="M199.698 1239.41C199.698 1239.41 155.249 1129.28 56.5967 1180.37C56.5967 1180.37 116.991 1281.29 195.317 1256.44L199.698 1239.41Z" fill="#6DD5ED"/>
<path d="M227.149 1141.28C227.149 1141.28 209.626 1020.54 128 1009.72C128 1009.72 145.318 1137.06 216.256 1163.05L227.149 1141.28Z" fill="#6DD5ED"/>
<path d="M249.349 1046.81C249.349 1046.81 242.515 901.326 174.907 896.277C174.907 896.277 177.185 1006.7 241.727 1067.43L249.349 1046.81Z" fill="#6DD5ED"/>
<path d="M296.626 933.389C296.626 933.389 276.446 812.411 211.934 797.606C211.934 797.606 219.936 914.79 290.26 963.055L296.626 933.389Z" fill="#6DD5ED"/>
<path d="M335.736 836.345C335.736 836.345 335.035 710.319 295.638 691.806C295.638 691.806 271.165 805.908 324.317 852.434L335.736 836.345Z" fill="#6DD5ED"/>
<path d="M368.701 739.814C368.701 739.814 363.24 610.022 322.354 591.737C322.354 591.737 308.365 694.429 362.568 748.314L368.701 739.814Z" fill="#6DD5ED"/>
<path d="M412.221 624.627C412.221 624.627 411.959 519.082 382.842 494.35C382.842 494.35 353.842 609.965 397.006 645.85L412.221 624.627Z" fill="#6DD5ED"/>
<path d="M427.255 524.331L398.926 348.669C398.926 348.669 360.318 492.61 428.627 556.165L427.255 524.331Z" fill="#6DD5ED"/>
<path d="M432.811 349.754C432.811 349.754 360.034 231.657 361.524 218.536C361.524 218.536 369.263 342.309 460.818 403.953L432.811 349.754Z" fill="#6DD5ED"/>
<path d="M441.335 314.867C441.335 314.867 372.647 147.136 341.573 133.529C341.573 133.529 439.7 182.28 447.059 310.075L441.335 314.867Z" fill="#6DD5ED"/>
<path d="M403.2 640.915L398.527 639.489C456.498 454.842 470.954 337.116 439.238 307.621L442.626 304.141C476.24 335.262 462.543 451.733 403.2 640.915Z" fill="#444053"/>
<path d="M243.502 1073.11L236.552 1070.71C242.685 1053.8 249.343 1036.62 256.294 1019.68C316.805 872.4 368.293 735.363 401.352 630.16L407.368 627.308C374.28 732.853 323.698 874.996 263.128 1022.47C256.294 1039.22 249.694 1056.28 243.502 1073.11Z" fill="#444053"/>
<path d="M389.846 2089.56C388.912 2088.54 294.932 1985.22 229.456 1808.76C191.058 1705.48 169.668 1596.9 166.083 1487.07C161.614 1349.78 191.082 1196.45 241.634 1057.22L247.125 1063.5C133.695 1376.02 178.757 1643.85 238.539 1805.16C303.343 1980 396.242 2082.23 397.147 2083.23L389.846 2089.56Z" fill="#444053"/>
<path opacity="0.1" d="M1547.34 2212.48C2268.28 2212.48 2852.71 2159.97 2852.71 2095.18C2852.71 2030.4 2268.28 1977.89 1547.34 1977.89C826.399 1977.89 241.962 2030.4 241.962 2095.18C241.962 2159.97 826.399 2212.48 1547.34 2212.48Z" fill="#6DD5ED"/>
<path d="M1471.14 2161.71C1968.72 2161.71 2372.09 1767.71 2372.09 1281.69C2372.09 795.668 1968.72 401.67 1471.14 401.67C973.557 401.67 570.186 795.668 570.186 1281.69C570.186 1767.71 973.557 2161.71 1471.14 2161.71Z" fill="#6DD5ED"/>
<path d="M1229.77 1230.63C1281.36 1230.63 1323.19 1177.12 1323.19 1111.1C1323.19 1045.09 1281.36 991.582 1229.77 991.582C1178.17 991.582 1136.34 1045.09 1136.34 1111.1C1136.34 1177.12 1178.17 1230.63 1229.77 1230.63Z" fill="#444053"/>
<path d="M1712.51 1230.63C1764.11 1230.63 1805.94 1177.12 1805.94 1111.1C1805.94 1045.09 1764.11 991.582 1712.51 991.582C1660.92 991.582 1619.09 1045.09 1619.09 1111.1C1619.09 1177.12 1660.92 1230.63 1712.51 1230.63Z" fill="#444053"/>
<path d="M2051.75 1487.04C2051.75 1658.63 1758.31 1947.68 1462.23 1947.68C1166.16 1947.68 883.987 1652.12 883.987 1480.51C883.987 1308.9 1160.17 1465.85 1456.39 1465.85C1752.61 1465.85 2051.75 1315.43 2051.75 1487.04Z" fill="#444053"/>
<path d="M977.145 1516.37C977.145 1516.37 1509.36 1632.07 1956.51 1519.62C1956.51 1519.62 2011.24 1519.62 1973.86 1581.41C1964.13 1597.42 1949.96 1610.41 1932.97 1618.86C1846.82 1661.88 1527.65 1789.02 1017.42 1626.88C1001.64 1622.02 987.338 1613.43 975.782 1601.87C964.226 1590.31 955.775 1576.13 951.182 1560.61C945.283 1539.39 947.853 1519.31 977.145 1516.37Z" fill="#F6F8FB"/>
<path opacity="0.05" d="M1028.44 626.567C1028.44 626.567 757.039 796.067 759.259 1061.07C761.478 1326.07 1028.44 626.567 1028.44 626.567Z" fill="black"/>
<path d="M2683.85 2077.04C2679.18 2058.87 2667.85 2058.56 2667.85 2058.56L2667.67 2056.73L2663.49 2011.86C2663.33 2012.09 2663.14 2012.29 2662.91 2012.46L2662.68 2006.75C2662.64 2005.68 2662.54 2004.6 2662.38 2003.53C2669.05 1998.79 2673.98 1992.08 2676.43 1984.39C2674.71 1982.25 2675.99 1982.68 2675.99 1982.68C2675.99 1982.68 2647.64 1954.32 2650.47 1939.55C2653.3 1924.77 2629.12 1908.71 2629.12 1908.71C2629.12 1908.71 2620.36 1882.3 2620.36 1874.28C2620.36 1866.27 2587.24 1813.64 2587.24 1813.64C2587.24 1813.64 2558.04 1746.69 2532.4 1717.93C2506.75 1689.18 2509.03 1673.52 2509.03 1673.52C2506.79 1670.48 2504.88 1667.22 2503.34 1663.79C2502.21 1661.42 2501.23 1658.98 2500.42 1656.49C2505.67 1655.83 2509.18 1655.72 2509.18 1655.72C2509.18 1655.72 2530.18 1652.21 2531.11 1647.99C2532.27 1643.22 2534.75 1638.86 2538.27 1635.38C2542.27 1631.19 2526.88 1551.31 2535.05 1530.66C2543.23 1510.01 2524.57 1415.25 2524.57 1415.25C2525.02 1412.37 2526.07 1409.62 2527.67 1407.17C2529.26 1404.71 2531.36 1402.61 2533.83 1400.98L2546.21 1396.22L2552.49 1394.74L2553.34 1394.54L2554.62 1394.22L2557.54 1393.51L2558.39 1393.28L2560.2 1392.8L2560.87 1392.62L2563.79 1391.74L2564.75 1391.43L2566.13 1390.97L2567.18 1390.57L2568.58 1390.03L2570.13 1389.32L2571.03 1388.86L2572 1388.32L2572.76 1387.83C2573.15 1387.56 2573.53 1387.27 2573.9 1386.95L2574.48 1386.38C2574.72 1386.14 2574.94 1385.9 2575.15 1385.64C2575.29 1385.46 2575.42 1385.27 2575.53 1385.07L2575.71 1384.84C2576.21 1383.82 2576.43 1382.69 2576.32 1381.56C2576.21 1380.43 2575.79 1379.35 2575.09 1378.45C2572.03 1374.17 2568.28 1370.41 2563.99 1367.29L2557.25 1357.17C2557.23 1357.1 2557.23 1357.03 2557.25 1356.97C2557.25 1356.45 2557.45 1355.88 2557.6 1355.31C2558.09 1353.18 2558.2 1350.98 2557.92 1348.81V1348.81C2557.94 1348.69 2557.94 1348.56 2557.92 1348.44C2558.01 1347.76 2558.06 1347.07 2558.07 1346.38V1345.5C2558.07 1344.84 2558.07 1344.19 2557.92 1343.53C2557.77 1342.88 2557.92 1342.88 2557.92 1342.53C2557.92 1342.19 2557.69 1341.28 2557.54 1340.65C2557.39 1340.02 2557.37 1339.91 2557.25 1339.54C2557.13 1339.17 2556.93 1338.37 2556.72 1337.77L2556.29 1336.6C2556.08 1336.06 2555.85 1335.49 2555.61 1334.95C2555.38 1334.4 2555.26 1334.12 2555.06 1333.72C2554.85 1333.32 2554.59 1332.69 2554.33 1332.18C2554.07 1331.67 2553.89 1331.35 2553.69 1330.95C2553.48 1330.55 2553.16 1329.98 2552.87 1329.5L2552.17 1328.3L2551.35 1326.99L2550.56 1325.79L2549.77 1324.62L2548.98 1323.51C2548.72 1323.16 2548.46 1322.79 2548.2 1322.48L2547.44 1321.45L2546.74 1320.57L2546.01 1319.66L2545.39 1318.91L2544.75 1318.14L2544.25 1317.6L2543.73 1317L2543.38 1316.6L2543 1316.2L2542.79 1315.98L2542.59 1315.78V1315.43C2542.59 1315.26 2542.59 1315.06 2542.59 1314.81V1314.52C2542.59 1314.26 2542.59 1313.98 2542.59 1313.64V1313.32C2542.59 1312.92 2542.59 1312.47 2542.41 1311.98V1311.81C2542.01 1308.85 2541.77 1305.87 2541.68 1302.88V1302.88C2541.76 1299.77 2542.48 1296.71 2543.79 1293.87C2544.18 1293.18 2544.37 1292.39 2544.33 1291.6C2544.3 1290.81 2544.04 1290.05 2543.58 1289.39C2543.67 1289.19 2543.76 1288.99 2543.87 1288.79C2545.89 1285 2542.06 1281.75 2537.27 1279.32C2537.27 1272.36 2534.35 1258.24 2510.76 1255.7C2510.76 1255.7 2496.94 1246.6 2510.29 1230.26C2523.63 1213.91 2502.43 1172.09 2502.43 1172.09C2502.43 1172.09 2495.69 1154.98 2499.31 1147.9C2502.93 1140.83 2495.1 1077.9 2495.1 1077.9C2495.1 1077.9 2495.1 1019.85 2481.96 995.176C2468.82 970.501 2459.85 926.201 2444.7 919.64C2429.54 913.079 2417.54 897.219 2417.54 897.219L2410.47 899.444C2409.24 897.675 2408.01 895.907 2406.85 894.138C2407.41 893.986 2407.97 893.796 2408.51 893.568C2411.76 892.139 2414.44 889.703 2416.13 886.636C2416.62 885.775 2417.04 884.879 2417.39 883.954V883.954C2418.58 880.599 2419.15 877.065 2419.08 873.514C2418.82 869.975 2418.93 866.42 2419.4 862.902C2420.6 857.197 2424.63 852.633 2428.17 847.869C2435.25 838.39 2439.76 827.309 2441.28 815.664C2442.71 803.959 2439.76 792.142 2432.96 782.403C2429.51 777.668 2425.04 773.474 2422.88 768.14C2421.89 765.687 2421.45 763.063 2420.69 760.552C2418.37 753.573 2414.02 747.405 2408.17 742.804C2402.32 738.204 2395.22 735.37 2387.75 734.651C2375.33 733.539 2363.1 738.16 2350.66 738.017C2336.23 737.846 2321.45 731.399 2307.93 736.305C2301.88 738.859 2296.53 742.768 2292.31 747.716C2289.03 751.252 2285.96 754.976 2283.14 758.869C2281.47 761.151 2279.9 763.462 2278.41 765.858V766.058C2276.89 768.482 2275.49 770.964 2274.14 773.503C2273.83 774.081 2273.75 774.756 2273.94 775.386C2274.31 776.113 2274.93 776.69 2275.69 777.012C2278.07 777.821 2280.27 779.06 2282.17 780.663C2282.9 781.48 2283.69 782.243 2284.54 782.945C2284.13 783.43 2283.69 783.886 2283.28 784.4C2276.35 793.027 2271.52 803.083 2269.16 813.804C2266.8 824.526 2266.97 835.632 2269.66 846.279C2272.35 856.927 2277.48 866.837 2284.68 875.257C2291.87 883.678 2300.93 890.389 2311.17 894.88L2312.66 898.075C2315.48 904.134 2317.83 910.389 2319.7 916.788L2313.33 917.358C2313.26 919.3 2312.44 921.144 2311.05 922.531C2309.66 923.918 2307.79 924.748 2305.8 924.86C2298.35 925.63 2274.67 934.188 2274.67 934.188C2274.67 934.188 2239.07 951.903 2217.6 957.522C2196.14 963.142 2186.62 958.349 2186.62 958.349C2186.62 958.349 2184.19 973.582 2159.89 965.196C2135.6 956.809 2132.38 965.652 2132.38 965.652C2132.38 965.652 2063.93 963.826 2014.08 970.33C1964.23 976.834 1942.5 972.27 1942.5 972.27C1942.5 972.27 1942.26 974.837 1942 979.002L1936.95 976.15C1903.83 958.863 1842.76 932.049 1834.06 964.739C1821.91 1010.18 1928.6 1029.49 1928.6 1029.49L1936.48 1028.67L1941.65 1028.12C1942.64 1040.73 1944.92 1050.94 1949.68 1052.06C1951.4 1052.48 2002.45 1052.37 2015.89 1058.5C2029.32 1064.64 2058.26 1055.65 2058.26 1055.65C2058.26 1055.65 2065.71 1054.05 2076.95 1060.56C2088.2 1067.06 2149.29 1067.09 2149.29 1067.09C2149.29 1067.09 2153.64 1068 2169.27 1072.48C2184.89 1076.96 2212.46 1073.08 2212.46 1073.08L2276.92 1081.21C2276.92 1081.21 2281.5 1125.34 2276.45 1141.37C2271.4 1157.4 2275.46 1236.28 2275.46 1236.28C2275.46 1236.28 2290.06 1332.26 2286.06 1343.65C2282.9 1352.46 2310.88 1342.65 2323.67 1337.77C2324.34 1340.37 2325.19 1343.47 2326.15 1346.98C2326.15 1347.3 2326.59 1347.5 2327.09 1347.61L2328.14 1348.3C2328.61 1350.18 2329.08 1352 2329.51 1353.72L2326.04 1354.63L2330.62 1357.62C2331.13 1359.43 2331.75 1361.22 2332.46 1362.96C2336.26 1371.52 2308.54 1387.18 2308.54 1387.18C2308.54 1387.18 2232 1428.05 2209.02 1447.08C2209.02 1447.08 2191.06 1452.79 2189.65 1458.23C2188.25 1463.68 2172.13 1461.8 2172.13 1461.8C2172.13 1461.8 2169.85 1467.7 2168.01 1473.64C2166.17 1479.57 2156.33 1488.73 2156.33 1488.73C2156.33 1488.73 2133.58 1492.21 2130.37 1504.02C2128.08 1513.15 2126.33 1522.41 2125.14 1531.74L2099.59 1577.16C2099.59 1577.16 2029.91 1627.88 2022.6 1647.27L1973.28 1679.56C1973.28 1679.56 1965.16 1697.25 1950.76 1697.88C1936.36 1698.51 1911.51 1723.55 1911.51 1723.55C1911.51 1723.55 1918.81 1726.4 1929.53 1731.25C1928.89 1732.22 1928.28 1733.19 1927.75 1734.11C1925.77 1737.77 1924.3 1741.67 1923.4 1745.72C1923.4 1745.72 1891.27 1764.77 1867.38 1756.78C1853.89 1752.28 1827.29 1744.49 1808.04 1743.55C1793.23 1742.83 1782.72 1746.17 1785.79 1758.18C1791.01 1778.92 1843.73 1831.12 1869.72 1855.88C1873.84 1859.8 1878.2 1863.47 1882.77 1866.86C1888.83 1871.41 1895.27 1875.43 1902.02 1878.9C1905.97 1880.93 1910.03 1882.76 1914.17 1884.38C1918.62 1886.14 1923.2 1887.58 1927.87 1888.69C1937.04 1890.77 1945.39 1890.68 1950.09 1885.83C1965.16 1870.77 1958.85 1860.16 1958.85 1860.16L1960.55 1858.93L2002.07 1828.58L2011.48 1820.74L2014.08 1818.57C2012.66 1829.71 2007.76 1840.15 2000.03 1848.47C2010.38 1842.58 2021.26 1837.64 2032.53 1833.69C2047.14 1829.24 2056.13 1802.31 2056.13 1802.31C2056.13 1802.31 2064.1 1794.38 2078.27 1780.17C2092.43 1765.97 2095.06 1729.6 2095.06 1729.6C2095.06 1729.6 2167.75 1684.41 2197.28 1632.3C2197.28 1632.3 2202.62 1625.17 2211.88 1614.7C2221.14 1604.23 2221.46 1586.86 2221.46 1586.86C2221.46 1586.86 2222.83 1581.81 2235.24 1568.86C2247.65 1555.91 2246.05 1547.8 2246.05 1547.8C2246.05 1547.8 2251.89 1539.85 2273.62 1541.44C2295.34 1543.04 2346.39 1517.88 2346.39 1517.88C2346.39 1517.88 2346.39 1520.19 2346.86 1524.19C2342.42 1534.17 2339.5 1541.1 2339.5 1541.1C2339.5 1541.1 2384.01 1714.62 2366.16 1741.89C2356.91 1756.16 2382.43 1745.32 2409.18 1731.71C2410.56 1733.34 2412.1 1735.05 2413.8 1736.87C2420.13 1743.55 2426.88 1749.83 2434.01 1755.7L2434.88 1756.44C2434.88 1756.44 2489.09 1838.14 2497.67 1847.72C2506.26 1857.31 2500.59 1885.49 2500.59 1885.49C2500.59 1885.49 2515.72 1983.99 2536.4 2001.25C2540.7 2004.44 2545.52 2006.92 2550.65 2008.58C2550.3 2020.85 2561.66 2030.92 2561.66 2030.92C2561.66 2030.92 2561.43 2063.55 2543.96 2077.36C2534.09 2085.2 2515.49 2101.12 2505.7 2114.84C2498.2 2125.42 2495.86 2134.81 2506.67 2138.12C2525.33 2144.02 2590.86 2129.76 2622.43 2122.25C2637.98 2118.65 2652.64 2112.08 2665.57 2102.91C2676.49 2095.07 2686.01 2085.57 2683.85 2077.04ZM1964.93 1750.59C1966.74 1751.76 1968.52 1752.96 1970.3 1754.19L1967.38 1756.47L1966.18 1757.38C1966.18 1756.78 1966.01 1756.13 1965.89 1755.47C1965.57 1753.9 1965.28 1752.28 1964.93 1750.59Z" fill="url(#paint0_linear)"/>
<path d="M1973.19 1032.54L1940.28 1035.94L1932.51 1036.77C1932.51 1036.77 1827.37 1017.63 1839.35 972.726C1847.93 940.236 1908.15 966.822 1940.83 984.137C1953.33 990.726 1961.77 995.918 1961.77 995.918L1973.19 1032.54Z" fill="#D17483"/>
<path d="M2050.53 1791.56L2014.49 1821.82L2005.2 1829.61L1983.59 1836L1930.06 1789.84L1969.83 1758.87L1971 1757.92L2003.19 1732.88L2050.53 1791.56Z" fill="#DCE6F2"/>
<path d="M2623.02 1976.03L2572.15 1978.34L2586.1 2039.07L2605.18 2045.49L2658.3 2041.16L2656.87 2006.3C2656.69 2002.14 2655.67 1998.05 2653.88 1994.27C2652.08 1990.5 2649.53 1987.1 2646.39 1984.29C2643.24 1981.48 2639.56 1979.3 2635.55 1977.88C2631.54 1976.47 2627.28 1975.84 2623.02 1976.03V1976.03Z" fill="#DCE6F2"/>
<path opacity="0.1" d="M1969.48 1757.1C1957.52 1749.14 1944.96 1742.08 1931.9 1735.99C1933.55 1732.49 1935.98 1729.39 1939.01 1726.92C1942.04 1724.46 1945.6 1722.68 1949.42 1721.73C1960.93 1719.36 1966.8 1741.12 1969.48 1757.1Z" fill="black"/>
<path opacity="0.1" d="M2014.46 1821.82C2016.65 1796.46 1994.86 1774.36 1971 1757.95L2003.13 1732.88L2050.44 1791.56L2014.46 1821.82Z" fill="black"/>
<path d="M2670.39 1984.1C2655.47 2032.23 2552.81 2017.76 2532.43 2000.65C2512.04 1983.53 2497.09 1885.8 2497.09 1885.8C2497.09 1885.8 2502.7 1857.71 2494.17 1848.32C2485.64 1838.94 2432.26 1757.9 2432.26 1757.9C2432.26 1757.9 2431.67 1757.41 2431.38 1757.18C2424.35 1751.36 2417.69 1745.12 2411.44 1738.5C2394.99 1720.9 2394.64 1712.4 2394.64 1712.4C2394.64 1712.4 2388.8 1679.08 2368.68 1633.84C2354.08 1600.46 2348.03 1555.11 2345.96 1533.57C2345.23 1525.9 2344.97 1521.25 2344.97 1521.25C2344.97 1521.25 2294.68 1546.18 2273.18 1544.61C2251.69 1543.04 2245.96 1550.94 2245.96 1550.94C2245.96 1550.94 2247.57 1558.96 2235.33 1571.82C2223.1 1584.69 2221.72 1589.68 2221.72 1589.68C2221.72 1589.68 2221.46 1606.94 2212.26 1617.29C2203.06 1627.65 2197.81 1634.75 2197.81 1634.75C2168.6 1686.47 2096.93 1731.28 2096.93 1731.28C2096.93 1731.28 2094.28 1767.39 2080.26 1781.49C2066.24 1795.58 2058.41 1803.45 2058.41 1803.45C2058.41 1803.45 2049.42 1830.24 2035.05 1834.66C2023.9 1838.56 2013.15 1843.47 2002.93 1849.32C2062.06 1779.97 1915.69 1725.32 1915.69 1725.32C1915.69 1725.32 1940.17 1700.45 1954.39 1699.82C1968.61 1699.19 1976.61 1681.65 1976.61 1681.65L2025.27 1649.56C2032.45 1630.3 2101.2 1580.01 2101.2 1580.01L2126.4 1534.97C2127.59 1525.79 2129.31 1516.68 2131.57 1507.7C2134.72 1496 2157.18 1492.52 2157.18 1492.52C2157.18 1492.52 2166.79 1483.39 2168.57 1477.55C2170.35 1471.7 2172.63 1465.82 2172.63 1465.82C2172.63 1465.82 2188.52 1467.76 2189.89 1462.28C2191.26 1456.81 2208.99 1451.22 2208.99 1451.22C2231.68 1432.19 2307.18 1391.65 2307.18 1391.65C2307.18 1391.65 2334.51 1376.08 2330.77 1367.61C2330.05 1365.89 2329.44 1364.12 2328.93 1362.33C2328.93 1362.16 2328.93 1362.02 2328.93 1361.87C2328.6 1360.79 2328.28 1359.65 2327.97 1358.45C2324.52 1345.41 2320.73 1325.42 2320.73 1325.42C2320.73 1325.42 2453.58 1249.97 2497.18 1269.11C2509.91 1274.67 2517.33 1288.71 2521.21 1306.62C2527.44 1335.29 2524.6 1373.85 2519.84 1403.46C2518.01 1415.65 2515.34 1427.71 2511.87 1439.55C2501.47 1472.21 2499.46 1520.51 2499.46 1520.51C2499.46 1520.51 2498.08 1612.56 2494.73 1635.21C2493.35 1645.75 2495.07 1656.45 2499.69 1666.07C2501.22 1669.47 2503.11 1672.7 2505.33 1675.71C2505.33 1675.71 2502.93 1691.23 2528.34 1719.79C2553.75 1748.34 2582.43 1814.69 2582.43 1814.69C2582.43 1814.69 2615.22 1866.86 2615.11 1874.88C2614.99 1882.9 2623.63 1909.11 2623.63 1909.11C2623.63 1909.11 2647.49 1924.97 2644.69 1939.66C2641.89 1954.35 2669.86 1982.45 2669.86 1982.45C2669.86 1982.45 2668.7 1981.97 2670.39 1984.1Z" fill="#BDD2E8"/>
<path opacity="0.1" d="M2330.65 1391.14C2330.65 1391.14 2359.27 1404.58 2361.61 1420.61C2363.95 1436.64 2330.65 1391.14 2330.65 1391.14Z" fill="black"/>
<path opacity="0.1" d="M2221.26 1483.34L2236.91 1501.22L2228.79 1468.73L2211.59 1467.65L2221.26 1483.34Z" fill="black"/>
<path opacity="0.1" d="M2203.12 1521.33C2204.81 1522.62 2224 1564.52 2229.14 1565.01C2234.28 1565.49 2203.12 1521.33 2203.12 1521.33Z" fill="black"/>
<path opacity="0.1" d="M2519.95 1403.38C2518.12 1415.57 2515.45 1427.62 2511.98 1439.46C2501.58 1472.13 2499.57 1520.42 2499.57 1520.42C2499.57 1520.42 2498.2 1612.47 2494.84 1635.12C2493.46 1645.66 2495.18 1656.37 2499.8 1665.99C2491.04 1666.81 2474.77 1669.29 2463.68 1676.28C2448.05 1686.15 2457.11 1713.2 2457.11 1713.2C2457.11 1713.2 2434.59 1726.43 2411.52 1738.41C2395.08 1720.81 2394.72 1712.31 2394.72 1712.31C2394.72 1712.31 2388.88 1678.99 2368.76 1633.75C2354.16 1600.38 2348.11 1555.02 2346.04 1533.48C2354.8 1513.52 2369.26 1482.77 2378.98 1469.5C2389.29 1455.44 2377 1412.88 2368.41 1387.97L2366.05 1386.41L2337.81 1367.89L2329.22 1362.19L2324.72 1359.33L2328.14 1358.42L2521.44 1306.62C2527.55 1335.29 2524.71 1373.85 2519.95 1403.38Z" fill="black"/>
<path d="M2324.78 1351.8L2337.87 1360.36L2366.08 1378.88L2368.47 1380.44C2377.06 1405.35 2389.35 1447.91 2379.01 1461.97C2364.09 1482.37 2338.13 1544.24 2338.13 1544.24C2338.13 1544.24 2381.93 1716.36 2364.41 1743.43C2346.89 1770.51 2457.19 1705.75 2457.19 1705.75C2457.19 1705.75 2448.17 1678.71 2463.79 1668.84C2479.42 1658.97 2505.7 1658.09 2505.7 1658.09C2505.7 1658.09 2526.41 1654.6 2527.34 1650.41C2528.47 1645.69 2530.92 1641.36 2534.41 1637.92C2538.32 1633.75 2523.17 1554.51 2531.23 1534.03C2539.29 1513.55 2520.86 1419.52 2520.86 1419.52C2521.29 1416.66 2522.33 1413.91 2523.91 1411.45C2525.49 1408.99 2527.57 1406.89 2530.03 1405.26C2532.34 1403.71 2534.88 1402.51 2537.57 1401.72L2539.23 1401.27C2540.22 1400.98 2541.27 1400.73 2542.15 1400.53C2554.71 1397.47 2568.43 1394.82 2571.35 1389.12L2568.43 1384.78L2553.04 1361.56C2552.73 1359.29 2552.88 1356.98 2553.48 1354.77C2553.48 1354.31 2553.66 1353.83 2553.71 1353.37C2555.96 1338.57 2538.5 1320.6 2538.5 1320.6C2537.72 1316.38 2537.28 1312.1 2537.16 1307.82V1307.68C2536.8 1303.15 2537.43 1298.59 2539.03 1294.33L2324.78 1351.8Z" fill="#653C5B"/>
<path opacity="0.1" d="M2373.99 1384.61C2372.47 1384.29 2468.2 1387.63 2497.79 1424.54C2497.79 1424.63 2498.84 1411.19 2373.99 1384.61Z" fill="black"/>
<path opacity="0.1" d="M2449.45 1446.17C2449.45 1446.17 2468.55 1580.24 2464.32 1603.6C2460.08 1626.96 2486.57 1611.9 2486.57 1611.9C2486.57 1611.9 2513.59 1417.3 2449.45 1446.17Z" fill="black"/>
<path d="M2539.23 1401.27L2537.57 1401.72C2480 1389.97 2413.45 1380.82 2366.66 1375.22C2363.74 1367.04 2361.64 1361.79 2361.64 1361.79L2326.42 1352.26L2325.45 1348.95C2323.76 1342.99 2322.36 1337.54 2321.54 1334.4L2320.75 1331.35C2320.75 1331.35 2344.12 1321.11 2377.2 1308.82C2388.21 1304.68 2400.31 1300.26 2412.95 1296.09L2519.96 1279.55C2523.86 1280.53 2527.67 1281.84 2531.35 1283.46C2536.81 1285.94 2541.77 1289.48 2539.52 1293.7C2535.11 1302.03 2538.73 1320.57 2538.73 1320.57C2538.73 1320.57 2557.37 1339.74 2553.72 1354.8C2550.07 1369.86 2564.2 1371.77 2570.92 1382.78C2577.63 1393.79 2556.49 1396.88 2539.23 1401.27Z" fill="#653C5B"/>
<path d="M2440.96 949.221C2440.96 949.221 2300.49 960.232 2316.61 947.852C2324.67 941.662 2319.12 923.234 2311.53 906.375C2306.49 895.392 2300.79 884.714 2294.44 874.398C2294.44 874.398 2401.22 844.275 2389.77 861.39C2386.38 866.439 2389.45 876.167 2395.61 887.377C2409.89 914.134 2440.96 949.221 2440.96 949.221Z" fill="#D17483"/>
<path opacity="0.1" d="M2395.52 887.464C2392.6 890.858 2385.04 886.808 2381.39 889.603C2368.62 899.359 2356.53 912.281 2339.1 912.024C2329.62 911.883 2320.25 909.945 2311.53 906.319C2306.49 895.336 2300.79 884.657 2294.44 874.342C2294.44 874.342 2401.22 844.276 2389.77 861.391C2386.38 866.526 2389.45 876.253 2395.52 887.464Z" fill="black"/>
<path d="M2413.77 838.57C2413.56 852.786 2409.04 866.623 2400.78 878.33C2392.52 890.036 2380.89 899.087 2367.36 904.338C2353.84 909.589 2339.02 910.803 2324.78 907.828C2310.55 904.853 2297.54 897.822 2287.4 887.624C2277.25 877.425 2270.44 864.518 2267.8 850.535C2265.17 836.551 2266.84 822.119 2272.61 809.064C2278.37 796.008 2287.97 784.916 2300.19 777.19C2312.41 769.464 2326.7 765.451 2341.26 765.658C2350.93 765.762 2360.49 767.734 2369.38 771.461C2378.26 775.187 2386.31 780.595 2393.05 787.372C2399.79 794.149 2405.09 802.162 2408.65 810.949C2412.2 819.735 2413.95 829.123 2413.77 838.57V838.57Z" fill="#D17483"/>
<path opacity="0.1" d="M2532.63 1295.67C2521.06 1295.81 2509.51 1294.62 2498.22 1292.13C2480.2 1288.08 2464.93 1303.85 2464.93 1303.85C2464.93 1303.85 2429.89 1317.23 2413.97 1314.49C2398.05 1311.75 2328.25 1347.73 2328.25 1347.73L2325.33 1348.84C2323.64 1342.88 2322.24 1337.43 2321.42 1334.29L2320.63 1331.24C2320.63 1331.24 2344 1321 2377.08 1308.7C2388.09 1304.57 2400.18 1300.14 2412.83 1295.98L2519.83 1279.43C2523.74 1280.42 2527.55 1281.72 2531.22 1283.34C2532.8 1287.26 2533.29 1291.51 2532.63 1295.67V1295.67Z" fill="black"/>
<path opacity="0.1" d="M1973.19 1032.54L1940.28 1035.94C1939.31 1018.63 1939.5 1001.28 1940.83 983.993C1953.33 990.583 1961.77 995.774 1961.77 995.774L1973.19 1032.54Z" fill="black"/>
<path d="M2414.94 905.12C2414.94 905.12 2394.17 911.538 2382.49 916.016C2370.81 920.495 2312.2 925.516 2312.2 925.516C2312.13 927.44 2311.34 929.272 2309.97 930.655C2308.6 932.037 2306.74 932.869 2304.78 932.989C2297.45 933.702 2274.08 942.203 2274.08 942.203C2274.08 942.203 2239.04 959.775 2217.78 965.366C2196.52 970.957 2187.2 966.193 2187.2 966.193C2187.2 966.193 2184.84 981.283 2160.92 972.954C2137 964.624 2133.79 973.41 2133.79 973.41C2133.79 973.41 2066.24 971.613 2016.97 978.06C1967.7 984.507 1946.35 980 1946.35 980C1946.35 980 1939.96 1055.65 1953.36 1059.13C1955.06 1059.59 2005.43 1059.44 2018.66 1065.52C2031.89 1071.6 2060.45 1062.67 2060.45 1062.67C2060.45 1062.67 2067.81 1061.1 2078.91 1067.57C2090.01 1074.05 2150.26 1074.05 2150.26 1074.05C2150.26 1074.05 2154.55 1074.93 2169.97 1079.38C2185.39 1083.83 2212.55 1079.98 2212.55 1079.98L2276.13 1088.11C2276.13 1088.11 2280.65 1131.9 2275.69 1147.79C2270.73 1163.68 2274.7 1241.92 2274.7 1241.92C2274.7 1241.92 2289.3 1337.14 2285.18 1348.44C2281.06 1359.73 2328.32 1340.22 2328.32 1340.22C2328.32 1340.22 2398.17 1304.22 2414.03 1306.96C2429.89 1309.7 2464.99 1296.35 2464.99 1296.35C2464.99 1296.35 2480.3 1280.57 2498.31 1284.63C2509.59 1287.09 2521.13 1288.24 2532.69 1288.05C2532.69 1288.05 2537.77 1264.17 2506.84 1260.78C2506.84 1260.78 2493.2 1251.76 2506.35 1235.56C2519.49 1219.36 2498.67 1178.02 2498.67 1178.02C2498.67 1178.02 2492.04 1161.11 2495.57 1154.01C2499.1 1146.9 2491.45 1084.6 2491.45 1084.6C2491.45 1084.6 2491.45 1027.01 2478.48 1002.42C2465.52 977.832 2456.67 933.959 2441.72 927.512C2426.76 921.066 2414.94 905.12 2414.94 905.12Z" fill="#DCE6F2"/>
<path opacity="0.1" d="M2336.73 1098.15C2336.73 1098.15 2427.82 1137.72 2452.29 1169.61C2476.76 1201.5 2336.73 1098.15 2336.73 1098.15Z" fill="black"/>
<path opacity="0.1" d="M2372.74 1165.99C2372.74 1165.99 2482.84 1228.52 2475.3 1244.38C2467.77 1260.24 2372.74 1165.99 2372.74 1165.99Z" fill="black"/>
<path opacity="0.1" d="M2390.73 1228.89C2390.73 1228.89 2430.54 1244.61 2437.72 1253.53C2444.91 1262.46 2390.73 1228.89 2390.73 1228.89Z" fill="black"/>
<path opacity="0.1" d="M2208.43 984.993C2208.43 984.993 2292.57 1029.06 2278.11 1046.95C2263.66 1064.84 2208.43 984.993 2208.43 984.993Z" fill="black"/>
<path opacity="0.1" d="M2174.85 1016.06C2174.85 1016.06 2188.57 1047.43 2188.92 1052.83C2189.27 1058.22 2163.57 1020.51 2174.85 1016.06Z" fill="black"/>
<path opacity="0.1" d="M2118.42 1024.5C2118.42 1026.18 2162.23 1052.43 2144.15 1059.33C2126.07 1066.23 2118.42 1024.5 2118.42 1024.5Z" fill="black"/>
<path opacity="0.1" d="M2151.75 1553.4C2153.03 1555.08 2157.59 1571.54 2171.61 1578.9C2185.63 1586.26 2151.75 1553.4 2151.75 1553.4Z" fill="black"/>
<path opacity="0.1" d="M2020.36 1678.05C2020.16 1691.92 2017.76 1736.04 2029.33 1740.81C2040.89 1745.57 2020.36 1678.05 2020.36 1678.05Z" fill="black"/>
<path opacity="0.1" d="M2052.48 1717.16C2052.48 1717.16 2078.94 1760.83 2069.8 1768.28C2060.66 1775.72 2050.15 1757.9 2050.15 1757.9L2052.48 1717.16Z" fill="black"/>
<path opacity="0.1" d="M2523.64 1812.18C2534.39 1814.21 2545.34 1815.07 2556.29 1814.75C2574.01 1814.15 2523.64 1812.18 2523.64 1812.18Z" fill="black"/>
<path opacity="0.1" d="M2509.76 1790.96C2509.76 1790.96 2542.38 1796.89 2554.1 1790.76C2565.81 1784.62 2509.76 1790.96 2509.76 1790.96Z" fill="black"/>
<path opacity="0.1" d="M2496.91 1757.1C2496.91 1757.1 2529.57 1759.66 2536.19 1748.83C2542.82 1737.99 2496.91 1757.1 2496.91 1757.1Z" fill="black"/>
<path opacity="0.1" d="M2487.72 1739.35C2487.72 1739.35 2519.05 1744.43 2524.31 1737.36C2529.57 1730.28 2487.72 1739.35 2487.72 1739.35Z" fill="black"/>
<path opacity="0.1" d="M2457.2 1675.03C2457.2 1675.03 2490.96 1690.63 2494.7 1699.53C2498.43 1708.43 2457.2 1675.03 2457.2 1675.03Z" fill="black"/>
<path opacity="0.1" d="M2413.77 838.57C2413.63 849.318 2411.01 859.895 2406.11 869.519C2401.21 879.144 2394.16 887.568 2385.47 894.167C2385.27 893.796 2385.09 893.425 2384.92 893.055C2381.7 886.351 2380.89 878.792 2377.91 872.117C2377.04 869.572 2375.17 867.468 2372.71 866.269C2367.98 864.472 2363.28 868.694 2360.15 872.488C2357.03 876.281 2352.38 880.56 2347.62 878.877C2344.98 877.642 2342.9 875.499 2341.78 872.858C2336.91 864.301 2331.85 855.258 2331.53 845.502C2331.88 840.698 2331.94 835.879 2331.71 831.068C2330.45 822.682 2324 815.636 2316.58 810.9C2308.83 806.545 2300.78 802.732 2292.49 799.49C2288.73 797.944 2285.27 795.783 2282.26 793.1C2291.78 781.289 2304.85 772.689 2319.63 768.509C2334.41 764.329 2350.16 764.781 2364.67 769.799C2379.17 774.818 2391.7 784.152 2400.5 796.488C2409.29 808.823 2413.9 823.541 2413.68 838.57H2413.77Z" fill="black"/>
<path d="M2273.21 782.431C2271.43 786.482 2278.2 786.111 2281.15 789.534C2284.35 792.802 2288.22 795.369 2292.51 797.065C2300.8 800.325 2308.85 804.137 2316.61 808.475C2324.05 813.239 2330.48 820.256 2331.73 828.671C2331.96 833.472 2331.91 838.281 2331.59 843.077C2331.91 852.861 2336.93 861.847 2341.81 870.461C2342.96 873.084 2345.03 875.219 2347.65 876.48C2352.44 878.135 2357.02 873.885 2360.18 870.091C2363.33 866.297 2368.03 862.075 2372.77 863.843C2375.21 865.051 2377.07 867.153 2377.93 869.691C2380.86 876.452 2381.73 883.954 2384.94 890.658C2388.16 897.361 2395.05 903.409 2402.76 902.41C2405.06 902.007 2407.25 901.093 2409.13 899.738C2411.02 898.383 2412.57 896.623 2413.65 894.594C2415.74 890.581 2416.74 886.114 2416.57 881.615C2416.31 878.105 2416.42 874.578 2416.89 871.089C2418.09 865.384 2422.03 860.877 2425.42 856.17C2432.38 846.774 2436.81 835.816 2438.3 824.307C2439.7 812.709 2436.79 801.006 2430.09 791.331C2426.71 786.624 2422.27 782.46 2420.13 777.068C2419.17 774.644 2418.73 772.048 2417.97 769.538C2415.71 762.63 2411.42 756.521 2405.65 751.96C2399.87 747.399 2392.86 744.585 2385.47 743.864C2373.26 742.752 2361.17 747.345 2348.91 747.202C2334.68 747.059 2319.99 740.641 2306.73 745.519C2300.75 748.078 2295.48 751.989 2291.34 756.929C2284.17 764.652 2278.1 773.288 2273.3 782.602" fill="#653C5B"/>
<path d="M1964.23 1859.79L1962.53 1861.02C1962.53 1861.02 1968.84 1871.63 1953.98 1886.69C1947 1893.68 1932.25 1890.48 1918.55 1885.15C1902.19 1878.63 1887.3 1869.02 1874.74 1856.88C1849.13 1832.32 1797.12 1780.54 1791.95 1759.89C1789.03 1747.97 1799.31 1744.66 1813.91 1745.37C1832.89 1746.31 1859.12 1753.93 1872.32 1758.52C1895.86 1766.42 1927.55 1747.54 1927.55 1747.54C1928.46 1743.57 1929.9 1739.73 1931.84 1736.13C1933.49 1732.63 1935.92 1729.53 1938.95 1727.06C1941.98 1724.6 1945.54 1722.82 1949.36 1721.87C1960.75 1719.61 1966.62 1741.38 1969.34 1757.21C1969.34 1757.84 1969.54 1758.49 1969.66 1759.12C1970.94 1767.02 1971.44 1773.04 1971.44 1773.04C1991.68 1771.67 2000.29 1800.37 1999.21 1815.06C1998.13 1829.75 2005.05 1829.87 2005.05 1829.87L1964.23 1859.79Z" fill="#FFD6DB"/>
<path d="M1962.53 1860.93C1962.53 1860.93 1968.84 1871.54 1953.98 1886.6C1947 1893.59 1932.25 1890.43 1918.55 1885.06C1902.18 1878.56 1887.29 1868.95 1874.74 1856.79C1849.1 1832.23 1797.12 1780.46 1791.95 1759.81C1789.03 1747.88 1799.31 1744.57 1813.91 1745.29C1815.17 1757.33 1818.32 1773.81 1826.03 1782.57C1839.17 1797.46 1876.7 1847.61 1923.63 1848.18C1938.04 1847.98 1952.18 1851.95 1964.28 1859.59L1962.53 1860.93Z" fill="#C8A9B4"/>
<path opacity="0.1" d="M1877.61 1813.49C1877.61 1813.49 1922.88 1779.66 1960.93 1794.92C1960.93 1794.92 1927.4 1792.33 1877.61 1813.49Z" fill="black"/>
<path opacity="0.1" d="M1928.92 1805.39C1928.92 1805.39 1972.2 1818.63 1980.81 1818.74C1989.43 1818.86 1936.3 1802.14 1928.92 1805.39Z" fill="black"/>
<path opacity="0.1" d="M2560.96 1906.8C2560.96 1906.8 2612.91 1907.86 2614.58 1919.38C2616.24 1930.9 2595.19 1930.22 2595.19 1930.22L2560.96 1906.8Z" fill="black"/>
<path d="M2661.77 2055.79L2661.95 2057.61C2661.95 2057.61 2673.13 2057.96 2677.72 2075.96C2679.88 2084.51 2670.47 2093.84 2659.84 2101.63C2647.1 2110.71 2632.64 2117.24 2617.29 2120.83C2586.16 2128.24 2521.5 2142.39 2503.1 2136.57C2492.44 2133.18 2494.75 2123.97 2502.17 2113.47C2511.81 2099.83 2530.15 2084.06 2539.9 2076.38C2557.1 2062.69 2557.42 2030.32 2557.42 2030.32C2557.42 2030.32 2542.15 2016.74 2547.73 2001.99C2553.31 1987.24 2597.81 2009.69 2597.81 2009.69C2606.28 1994.06 2632.6 2001.13 2643.49 2008.89C2654.38 2016.65 2657.71 2011.57 2657.71 2011.57L2661.77 2055.79Z" fill="#FFD6DB"/>
<path d="M2661.95 2057.62C2661.95 2057.62 2673.13 2057.96 2677.72 2075.96C2679.88 2084.51 2670.47 2093.84 2659.84 2101.63C2647.1 2110.71 2632.64 2117.24 2617.29 2120.83C2586.16 2128.24 2521.5 2142.39 2503.1 2136.57C2492.44 2133.18 2494.75 2123.97 2502.17 2113.47C2512.1 2118.18 2526.35 2123.59 2536.81 2122.03C2554.53 2119.17 2611.13 2115.07 2633.71 2080.64C2640.36 2069.88 2650.13 2061.28 2661.77 2055.93L2661.95 2057.62Z" fill="#C8A9B4"/>
<path opacity="0.1" d="M2585.14 2098.24C2585.14 2098.24 2580.17 2048.8 2609.93 2027.75C2609.93 2027.75 2592.15 2051.4 2585.14 2098.24Z" fill="black"/>
<path opacity="0.1" d="M2603.01 2056.39C2603.01 2056.39 2633.62 2030.72 2637.76 2024.24C2641.91 2017.77 2603.95 2049.4 2603.01 2056.39Z" fill="black"/>
<path opacity="0.1" d="M2535.26 1320.91C2535.26 1320.91 2495.8 1340.88 2467.1 1332.98C2438.39 1325.08 2535.26 1320.91 2535.26 1320.91Z" fill="black"/>
<path opacity="0.1" d="M2549.3 1361.05C2549.3 1361.05 2543.11 1371.89 2504.42 1369.23C2465.72 1366.58 2549.3 1361.05 2549.3 1361.05Z" fill="black"/>
<g opacity="0.1">
<path opacity="0.1" d="M2423.73 858.539L2425.36 856.314C2426.56 854.631 2427.7 852.891 2428.75 851.122C2426.92 853.487 2425.24 855.964 2423.73 858.539V858.539Z" fill="black"/>
<path opacity="0.1" d="M2407.37 895.621C2399.69 896.62 2392.77 890.544 2389.56 883.869C2386.35 877.194 2385.53 869.606 2382.55 862.902C2381.68 860.364 2379.82 858.263 2377.38 857.055C2372.65 855.286 2367.95 859.508 2364.79 863.302C2361.64 867.096 2357.05 871.346 2352.26 869.692C2349.64 868.443 2347.56 866.304 2346.42 863.673C2341.52 855.115 2336.49 846.072 2336.17 836.317C2336.45 831.509 2336.45 826.69 2336.17 821.883C2334.95 813.467 2328.49 806.45 2321.05 801.715C2313.6 796.98 2305.04 794.013 2296.95 790.305C2292.67 788.609 2288.81 786.042 2285.62 782.774C2282.7 779.351 2275.87 779.722 2277.68 775.671C2279.02 773.047 2280.6 770.508 2282.06 767.998C2278.7 772.629 2275.68 777.491 2273.03 782.546C2271.25 786.596 2278.03 786.225 2280.98 789.649C2284.17 792.917 2288.05 795.484 2292.34 797.179C2300.63 800.439 2308.68 804.252 2316.43 808.59C2323.88 813.353 2330.3 820.371 2331.56 828.786C2331.79 833.586 2331.74 838.396 2331.41 843.191C2331.73 852.976 2336.76 861.961 2341.63 870.576C2342.78 873.199 2344.86 875.334 2347.48 876.595C2352.26 878.249 2356.85 873.999 2360 870.205C2363.16 866.411 2367.86 862.189 2372.59 863.958C2375.04 865.166 2376.89 867.267 2377.76 869.806C2380.68 876.566 2381.56 884.068 2384.77 890.772C2387.98 897.476 2394.87 903.523 2402.58 902.525C2404.89 902.122 2407.07 901.207 2408.96 899.852C2410.85 898.497 2412.39 896.738 2413.48 894.709C2413.94 893.851 2414.35 892.965 2414.7 892.056C2412.67 893.915 2410.12 895.154 2407.37 895.621Z" fill="black"/>
</g>
<path opacity="0.1" d="M2310.38 930.965C2310.38 930.965 2344 929.339 2366.37 930.081C2388.74 930.823 2421.85 913.194 2421.85 913.194" fill="black"/>
<path d="M920.402 1159.51C917.014 1142.68 885.153 1145.39 861.993 1149.73C860.037 1150.1 858.139 1150.47 856.328 1150.87L857.993 1144.11L847.099 1139.72C825.693 1131.09 803.296 1125.02 780.397 1121.66C746.87 1116.75 693.718 1106.23 661.038 1085.83C631.338 1067.29 619.422 1061.93 611.128 1056.93C611.128 1055.45 611.128 1054.08 611.128 1052.57C611.128 1044.3 610.632 1036.71 609.989 1029.95C609.38 1023.73 608.148 1017.59 606.309 1011.61C599.359 989.1 583.705 981.883 568.023 967.791C557.751 958.34 546.11 950.42 533.474 944.286C534.759 936.835 536.996 929.57 540.132 922.663C540.57 921.608 541.038 920.581 541.476 919.526C541.476 919.383 541.476 919.269 541.68 919.126C542.148 918.071 542.615 917.015 543.082 916.017C554.416 909.998 563.885 901.113 570.497 890.293C577.109 879.474 580.622 867.116 580.668 854.516C580.667 845.319 578.797 836.214 575.168 827.729C571.538 819.243 566.221 811.545 559.524 805.081C558.395 803.997 557.227 802.941 556.02 801.914L559.407 800.83C566.621 798.32 574.477 791.417 572.374 785.54H571.323C571.27 785.123 571.172 784.711 571.031 784.314C567.827 784.208 564.748 783.075 562.269 781.09C558.911 777.04 557.889 770.964 551.726 765.287C550.342 763.84 548.806 762.539 547.141 761.408C542.649 758.45 537.594 756.403 532.276 755.389C532.714 755.674 533.182 755.902 533.62 756.216L534.525 756.901C522.289 754.048 508.475 754.476 496.852 749.598C494.056 748.385 491.369 746.944 488.82 745.291L490.339 745.69C484.06 742.153 478.424 737.617 471.911 734.28C468.301 732.503 464.488 731.152 460.551 730.258L463.471 731.941C446.197 728.035 428.044 730.881 412.889 739.871C394.928 750.197 382.195 766.771 372.733 784.2C356.828 813.457 349.073 846.283 350.246 879.39C350.83 895.364 353.458 911.938 347.325 926.942C342.244 939.494 331.584 949.478 325.218 961.515C300.657 1008.07 345.894 1068.54 318.179 1113.56C308.162 1129.85 290.231 1140.63 278.023 1155.6C265.816 1170.58 261.406 1194.8 277.673 1206.04C289.355 1214.14 305.972 1211.51 319.902 1215.62C317.524 1229.65 310.545 1242.55 300.014 1252.36L297.736 1251.94C297.211 1252.42 296.714 1252.93 296.159 1253.39L298.32 1253.93L297.503 1254.7C312.74 1259.01 328.404 1261.73 344.23 1262.8C358.277 1263.77 373.142 1263.26 385.349 1256.76C391.533 1253.33 396.986 1248.78 401.412 1243.35C401.412 1246.2 401.616 1248.71 401.791 1251.31C402.224 1261.81 403.75 1272.23 406.347 1282.43C419.869 1330.32 377.143 1367.86 377.143 1367.86C366.677 1388.68 361.755 1411.73 362.833 1434.9V1434.9C363.623 1448.93 366.577 1462.75 371.594 1475.92C372.003 1476.97 372.383 1478 372.791 1479C373.58 1481 374.427 1482.94 375.245 1484.71C376.5 1487.56 377.756 1490.04 379.012 1492.38C379.83 1493.98 380.647 1495.46 381.436 1496.83C384.175 1501.76 387.32 1506.46 390.84 1510.89C395.162 1508.02 399.484 1505.31 403.806 1502.76C403.806 1504.39 403.806 1506.1 403.806 1507.87C404.04 1525.53 402.229 1547.8 402.229 1547.8C402.229 1547.8 388.679 1595.07 387.335 1608.68C385.992 1622.28 380.764 1706.44 380.764 1706.44C380.764 1706.44 362.482 1760.83 328.664 1793.84C294.845 1826.84 302.38 1921.38 302.38 1921.38C302.38 1921.38 278.695 2000.99 286.814 2004.87C288.126 2005.28 289.522 2005.35 290.873 2005.1V2008.32C276.271 2018.22 265.173 2026.24 265.173 2026.24C265.173 2026.24 261.114 2091.62 255.682 2104.25C250.25 2116.89 262.457 2131.78 262.457 2131.78C262.457 2131.78 382.925 2128.53 393.41 2127.87C398.228 2127.59 414.291 2122.48 430.908 2115.27C445.189 2112.16 488.295 2095.75 503.919 2080.49C506.234 2078.47 508.102 2076 509.409 2073.25C516.857 2055.1 449.511 2068.71 431.229 2068.71C412.947 2068.71 410.932 2055.1 402.463 2044.75C393.994 2034.4 400.098 2017.25 400.098 2017.25L398.345 1968.76L406.376 1965.59C406.376 1965.59 417.211 1924.14 434.792 1904.09C452.373 1884.04 483.534 1807.62 484.206 1803.74C484.878 1799.86 485.549 1792.73 498.399 1775.21C511.249 1757.7 523.866 1720.27 523.866 1720.27C523.866 1720.27 553.07 1630.93 575.294 1584.97C588.933 1556.87 596.526 1507.1 600.352 1472.58C604.554 1473.7 608.689 1475.05 612.734 1476.63C612.734 1476.63 618.984 1437.52 621.496 1392.88C622.987 1370.08 622.801 1347.2 620.941 1324.42C617.378 1287.34 595.212 1215.54 596.526 1148.73C601.87 1152.1 607.069 1155.29 611.741 1158.14C611.741 1156.46 611.946 1154.81 612.063 1153.12C624.037 1160.4 632.681 1165.39 632.681 1165.39C632.681 1165.39 704.407 1204.21 767.342 1204.87C830.278 1205.52 841.112 1212.63 841.112 1212.63L845.084 1196.6L850.721 1195.57C877.238 1190.61 924.286 1178.82 920.402 1159.51Z" fill="url(#paint1_linear)"/>
<path d="M579.792 788.279L576.521 785.912C577.114 786.571 577.57 787.337 577.865 788.165L579.792 788.279Z" fill="url(#paint2_linear)"/>
<path d="M572.436 785.541H574.393L572.553 784.2H573.049L569.778 781.861C570.357 782.514 570.803 783.27 571.092 784.086H571.823C572.089 784.544 572.295 785.032 572.436 785.541Z" fill="url(#paint3_linear)"/>
<path d="M482.517 902.61H430.445V981.997H482.517V902.61Z" fill="#965D7B"/>
<path opacity="0.1" d="M482.517 902.61H430.445V981.997H482.517V902.61Z" fill="black"/>
<path d="M299.049 2029.52H346.39V1967.22H299.049V2029.52Z" fill="#E8F4FF"/>
<path d="M436.255 903.808C448.959 908.544 463.269 933.618 463.97 954.556C464.262 963.998 452.902 980.029 452.902 980.029L464.583 978.689C470.57 977.918 478.339 976.892 486.574 975.693C493.467 974.667 500.68 973.525 507.455 972.299C526.059 968.933 541.274 964.911 537.098 961.202C535.083 959.405 534.557 955.954 535.083 951.561C536.348 944.18 538.525 936.977 541.566 930.109C542.471 927.856 543.464 925.631 544.486 923.52C548.78 913.935 552.927 906.404 552.927 906.404C552.927 906.404 513.179 903.552 479.916 902.211C468.555 901.726 457.925 901.412 449.806 901.384H446.623C436.547 901.327 431.699 902.125 436.255 903.808Z" fill="#FFC1C7"/>
<path d="M603.248 1438.21C603.248 1438.21 597.407 1541.61 575.649 1587.2C553.892 1632.78 525.681 1721.44 525.681 1721.44C525.681 1721.44 513.181 1758.69 500.682 1776.04C488.182 1793.38 487.54 1800.46 486.868 1804.31C486.197 1808.16 455.97 1883.95 438.856 1903.86C421.742 1923.77 411.258 1964.88 411.258 1964.88C411.258 1964.88 336.291 1995.69 328.405 1991.84C320.52 1987.98 343.533 1909.11 343.533 1909.11C343.533 1909.11 336.291 1815.32 369.175 1782.57C402.059 1749.82 419.815 1695.88 419.815 1695.88C419.815 1695.88 425.072 1612.36 426.386 1598.89C427.7 1585.43 440.842 1538.51 440.842 1538.51C440.842 1538.51 444.785 1489.04 440.2 1479.43C435.615 1469.82 603.248 1438.21 603.248 1438.21Z" fill="#575A89"/>
<path opacity="0.05" d="M603.248 1438.21C603.248 1438.21 597.407 1541.61 575.649 1587.2C553.892 1632.78 525.681 1721.44 525.681 1721.44C525.681 1721.44 513.181 1758.69 500.682 1776.04C488.182 1793.38 487.54 1800.46 486.868 1804.31C486.197 1808.16 455.97 1883.95 438.856 1903.86C421.742 1923.77 411.258 1964.88 411.258 1964.88C411.258 1964.88 336.291 1995.69 328.405 1991.84C320.52 1987.98 343.533 1909.11 343.533 1909.11C343.533 1909.11 336.291 1815.32 369.175 1782.57C402.059 1749.82 419.815 1695.88 419.815 1695.88C419.815 1695.88 425.072 1612.36 426.386 1598.89C427.7 1585.43 440.842 1538.51 440.842 1538.51C440.842 1538.51 444.785 1489.04 440.2 1479.43C435.615 1469.82 603.248 1438.21 603.248 1438.21Z" fill="black"/>
<path d="M402.699 1961.03L404.684 2016.57C404.684 2016.57 398.844 2033.68 406.962 2043.87C415.081 2054.05 417.155 2067.63 434.911 2067.63C452.667 2067.63 518.114 2054.14 510.842 2072.14C503.57 2090.13 442.124 2113.24 431.99 2113.87C421.857 2114.5 304.835 2117.72 304.835 2117.72C304.835 2117.72 293.007 2102.97 298.264 2090.45C303.521 2077.93 307.463 2013.03 307.463 2013.03C307.463 2013.03 398.756 1945.37 402.699 1961.03Z" fill="#444053"/>
<path opacity="0.05" d="M403.196 1960.54L405.153 2016.11C405.153 2016.11 399.312 2033.23 407.46 2043.38C415.608 2053.54 417.652 2067.17 435.408 2067.17C453.165 2067.17 518.582 2053.68 511.34 2071.65C504.097 2089.62 442.622 2112.76 432.488 2113.41C422.354 2114.07 305.245 2117.26 305.245 2117.26C305.245 2117.26 293.563 2102.49 298.674 2089.96C303.784 2077.44 307.756 2012.57 307.756 2012.57C307.756 2012.57 399.253 1944.8 403.196 1960.54Z" fill="black"/>
<path d="M295.079 2003.84C302.964 2007.7 377.844 1976.75 377.844 1976.75C377.844 1976.75 388.358 1935.64 405.472 1915.73C422.585 1895.82 452.812 1820.02 453.454 1816.17C454.097 1812.32 454.769 1805.25 467.268 1787.9C479.768 1770.56 492.267 1733.31 492.267 1733.31C492.267 1733.31 520.537 1644.68 542.236 1599.09C557.305 1567.43 564.752 1507.81 567.936 1474.46C569.308 1459.75 569.863 1450.08 569.863 1450.08C569.863 1450.08 402.172 1481.45 406.786 1491.18C408.305 1494.38 408.889 1501.93 408.976 1510.66C409.21 1528.18 407.428 1550.26 407.428 1550.26C407.428 1550.26 394.286 1597.15 392.972 1610.65C391.658 1624.14 386.401 1707.63 386.401 1707.63C386.401 1707.63 368.645 1761.58 335.761 1794.32C302.877 1827.07 310.119 1920.86 310.119 1920.86C310.119 1920.86 287.311 1999.99 295.079 2003.84Z" fill="#575A89"/>
<path opacity="0.1" d="M471.304 1560.01C471.304 1560.01 437.106 1551.03 425.278 1561.3C413.45 1571.57 471.304 1560.01 471.304 1560.01Z" fill="black"/>
<path opacity="0.1" d="M470.659 1602.4C470.659 1602.4 416.718 1590.99 416.076 1607.54C415.433 1624.08 470.659 1602.4 470.659 1602.4Z" fill="black"/>
<path opacity="0.1" d="M448.958 1648.7C448.958 1648.7 430.414 1664.08 418.732 1658.94C407.05 1653.81 448.958 1648.7 448.958 1648.7Z" fill="black"/>
<path opacity="0.1" d="M398.993 1732.14C398.993 1732.14 436.462 1745.63 427.905 1759.78C419.349 1773.93 412.778 1775.84 409.507 1771.96C406.236 1768.08 398.993 1732.14 398.993 1732.14Z" fill="black"/>
<path d="M369.375 1973.01L371.361 2028.58C371.361 2028.58 365.52 2045.69 373.668 2055.85C381.816 2066 383.86 2079.64 401.617 2079.64C419.373 2079.64 484.791 2066.14 477.548 2084.12C470.305 2102.09 408.83 2125.22 398.696 2125.88C388.562 2126.53 271.453 2129.73 271.453 2129.73C271.453 2129.73 259.625 2114.95 264.882 2102.43C270.139 2089.91 274.081 2025.04 274.081 2025.04C274.081 2025.04 365.433 1957.26 369.375 1973.01Z" fill="#444053"/>
<path opacity="0.1" d="M350.305 2047.52C350.305 2047.52 348.67 2058.44 313.478 2047.83C278.287 2037.22 350.305 2047.52 350.305 2047.52Z" fill="black"/>
<path opacity="0.1" d="M286.202 2055.53C286.202 2055.53 278.317 2066.14 306.265 2070.97C334.214 2075.79 286.202 2055.53 286.202 2055.53Z" fill="black"/>
<path opacity="0.1" d="M293.769 2047.18C293.769 2047.18 321.396 2070.62 329.923 2070.62Z" fill="black"/>
<path opacity="0.1" d="M446.386 901.327C458.593 922.949 480.964 919.213 509.233 937.612C518.871 943.916 531.838 934.93 541.533 930.081C546.644 917.644 552.835 906.348 552.835 906.348C552.835 906.348 476.379 901.07 446.386 901.327Z" fill="black"/>
<path d="M437.569 862.503C437.569 876.347 441.772 889.88 449.645 901.391C457.519 912.903 468.71 921.875 481.804 927.174C494.898 932.473 509.306 933.861 523.208 931.162C537.109 928.464 549.879 921.799 559.903 912.012C569.927 902.225 576.755 889.755 579.524 876.178C582.292 862.6 580.877 848.526 575.457 835.735C570.037 822.943 560.856 812.008 549.074 804.313C537.292 796.617 523.439 792.507 509.266 792.501C499.84 792.456 490.498 794.236 481.781 797.737C473.063 801.239 465.142 806.393 458.476 812.902C451.809 819.411 446.529 827.145 442.941 835.659C439.352 844.173 437.527 853.297 437.569 862.503V862.503Z" fill="#FFC1C7"/>
<path opacity="0.1" d="M406.873 1491.3C408.391 1494.49 408.976 1502.05 409.063 1510.78C472.028 1472.61 530.232 1470.01 568.022 1474.58C569.395 1459.86 569.95 1450.19 569.95 1450.19C569.95 1450.19 402.259 1481.65 406.873 1491.3Z" fill="black"/>
<path d="M369.291 1438.32C370.653 1465.5 380.046 1491.7 396.334 1513.77C510.231 1436.75 612.037 1479.74 612.037 1479.74C612.037 1479.74 618.083 1440.95 620.448 1396.65C621.871 1374.04 621.696 1351.37 619.923 1328.78C616.214 1289.68 592.091 1211.57 596.705 1141.88C598.749 1111.22 610.928 1082.64 610.489 1058.99C610.489 1050.8 610.022 1043.27 609.409 1036.57C608.818 1030.4 607.615 1024.31 605.817 1018.37C599.1 996.004 583.855 988.872 568.64 974.895C558.692 965.532 547.373 957.668 535.055 951.561C510.348 939.779 485.407 939.779 463.971 954.556C459.96 957.338 456.208 960.459 452.757 963.884C448.35 968.282 444.353 973.055 440.812 978.147C440.199 978.974 439.644 979.83 439.089 980.657C435.935 985.478 433.015 994.207 430.328 1005.02C420.428 1045.67 414.674 1115.53 414.674 1115.53C414.674 1115.53 403.489 1199.93 406.964 1256.13C407.384 1266.54 408.862 1276.89 411.374 1287.02C424.545 1334.55 383.104 1371.8 383.104 1371.8C372.943 1392.52 368.197 1415.37 369.291 1438.32V1438.32Z" fill="#FF6584"/>
<path d="M826.399 1203.84C826.399 1203.84 833.321 1202.87 843.163 1200.99C868.892 1195.97 914.742 1184.27 910.946 1165.13C907.675 1148.44 876.718 1151.13 854.202 1155.43C840.914 1157.94 830.576 1161.14 830.576 1161.14L826.399 1203.84Z" fill="#FFC1C7"/>
<path opacity="0.1" d="M485.905 1071.45C499.719 1081.72 533.917 1109.99 560.201 1129.9C575.007 1141.11 595.655 1154.35 610.87 1163.82C612.915 1133.13 614.346 1103.92 613.937 1080.38C603.598 1072.22 600.152 1061.61 584.557 1043.84C556.93 1012.46 507.604 1001.45 507.604 1001.45C474.807 994.378 472.179 1061.07 485.905 1071.45Z" fill="black"/>
<path opacity="0.1" d="M826.399 1203.84C826.399 1203.84 833.321 1202.87 843.163 1200.99L854.202 1155.35C840.914 1157.86 830.576 1161.05 830.576 1161.05L826.399 1203.84Z" fill="black"/>
<path d="M507.688 996.317C507.688 996.317 557.015 1007.21 584.642 1038.71C612.269 1070.2 602.164 1055.82 658.938 1092.02C690.683 1112.25 742.316 1122.69 774.908 1127.54C797.18 1130.9 818.944 1136.93 839.713 1145.48L850.285 1149.81L833.843 1217.96C833.843 1217.96 823.329 1210.89 762.175 1210.26C701.021 1209.63 631.31 1171.07 631.31 1171.07C631.31 1171.07 586.599 1144.74 560.285 1124.83C533.972 1104.91 499.803 1076.59 485.902 1066.32C472.001 1056.05 474.804 989.243 507.688 996.317Z" fill="#E8F4FF"/>
<path opacity="0.1" d="M430.412 1010.18C439.991 1015.89 451.585 1013.55 465.457 996.745C502.78 951.275 564.752 996.574 605.872 1023.5C599.155 1001.17 583.91 994.006 568.695 980.029C524.596 939.551 475.241 934.559 440.867 983.309C440.254 984.136 439.699 984.992 439.144 985.819C435.932 990.64 433.011 999.369 430.412 1010.18Z" fill="black"/>
<path d="M430.412 1005.05C439.991 1010.75 451.585 1008.41 465.457 991.611C465.794 991.164 466.155 990.736 466.538 990.327C471.876 983.896 478.772 978.866 486.601 975.693C493.231 973.109 500.353 971.951 507.482 972.299C540.396 973.326 577.981 1000.08 605.872 1018.37C599.155 996.004 583.91 988.872 568.695 974.895C558.747 965.532 547.428 957.667 535.11 951.561C510.403 939.779 485.462 939.779 464.026 954.556C460.015 957.338 456.263 960.459 452.812 963.884C448.405 968.282 444.408 973.055 440.867 978.146C440.254 978.974 439.699 979.829 439.144 980.657C435.932 985.506 433.011 994.235 430.412 1005.05Z" fill="#FF6584"/>
<path opacity="0.1" d="M369.285 1433.19C370.647 1460.36 380.04 1486.57 396.328 1508.64C510.225 1431.62 612.032 1474.61 612.032 1474.61C612.032 1474.61 618.077 1435.81 620.442 1391.51C577.074 1391.14 453.569 1392.14 412.128 1414.33C398.424 1421.8 384.091 1428.11 369.285 1433.19Z" fill="black"/>
<path d="M369.285 1438.32C370.647 1465.5 380.04 1491.7 396.328 1513.77C510.225 1436.75 612.032 1479.74 612.032 1479.74C612.032 1479.74 618.077 1440.95 620.442 1396.65C577.074 1396.28 453.569 1397.27 412.128 1419.47C398.424 1426.93 384.091 1433.24 369.285 1438.32Z" fill="#E8F4FF"/>
<path opacity="0.1" d="M580.03 796.78L576.847 794.44C577.425 795.094 577.871 795.849 578.161 796.666L580.03 796.78Z" fill="black"/>
<path opacity="0.1" d="M407.05 1256.16C410.957 1252.27 414.468 1248.02 417.534 1243.46C445.045 1203.75 450.681 1152.92 440.022 1106.54C437.656 1096.24 434.56 1085.34 438.357 1075.42C443.555 1061.78 459.91 1054.68 467.357 1042.01C476.439 1026.52 470.131 1007.78 466.481 990.269C466.481 989.555 466.218 988.899 466.072 988.215C465.429 985.048 464.933 981.825 464.553 978.63C462.285 959.361 464.358 939.84 470.628 921.436C470.949 920.495 471.27 919.553 471.621 918.584C473.703 912.816 476.405 907.279 479.681 902.067C486.398 891.484 495.802 882.698 508.243 879.589C511.768 879.165 515.14 877.933 518.085 875.995C525.474 869.691 517.063 858.879 515.398 849.58C513.354 838.683 522.057 828.3 532.337 822.88C541.098 818.287 550.881 816.233 560.373 813.352C547.872 800.869 531.048 793.398 513.2 792.404C495.351 791.41 477.767 796.964 463.894 807.979C450.022 818.993 440.863 834.672 438.213 851.941C435.563 869.21 439.614 886.823 449.571 901.326H446.388C436.546 901.326 431.786 902.096 436.254 903.779C448.958 908.514 452.054 942.916 452.755 963.854C448.348 968.253 444.351 973.026 440.81 978.117C440.197 978.944 439.642 979.8 439.087 980.627C435.933 985.448 433.013 994.177 430.326 1004.99C420.425 1045.64 414.672 1115.5 414.672 1115.5C414.672 1115.5 403.575 1199.96 407.05 1256.16Z" fill="black"/>
<path d="M571.586 791.873C576.93 798.063 568.198 806.421 560.254 809.217C549.244 813.125 537.358 814.922 527.078 820.427C516.798 825.933 508.124 836.231 510.11 847.127C511.833 856.398 520.215 867.095 512.826 873.542C509.877 875.478 506.508 876.718 502.985 877.165C484.411 881.786 472.641 899.044 466.362 916.131C458.168 938.419 456.252 962.447 460.813 985.705C464.347 1003.76 471.531 1023.42 462.098 1039.5C454.651 1052.2 438.297 1059.27 433.099 1072.91C429.302 1082.84 432.398 1093.73 434.763 1104.03C445.423 1150.36 439.786 1201.19 412.276 1240.95C406.971 1249.39 399.707 1256.48 391.073 1261.66C379.216 1268.08 364.79 1268.59 351.122 1267.65C335.721 1266.57 320.485 1263.86 305.68 1259.58C317.316 1249.51 325.016 1235.81 327.466 1220.81C313.916 1216.71 297.824 1219.33 286.434 1211.29C270.635 1200.16 274.899 1176.11 286.756 1161.25C298.613 1146.39 315.96 1135.58 325.802 1119.55C352.699 1074.88 308.746 1014.86 332.606 968.704C338.798 956.723 349.165 946.825 354.101 934.473C359.942 919.583 357.459 903.095 356.875 887.292C355.737 854.496 363.271 821.967 378.749 792.843C387.919 775.557 400.302 759.126 417.737 748.885C435.172 738.644 458.36 735.535 476.438 744.72C484.44 748.771 491.04 754.932 499.363 758.47C515.309 765.287 535.518 761.607 549.536 771.449C563.554 781.29 557.159 793.927 574.769 794.269" fill="#965D7B"/>
<path opacity="0.1" d="M499.684 1277.87C492.85 1281.2 479.241 1311.3 448.343 1333.04C417.445 1354.77 499.684 1277.87 499.684 1277.87Z" fill="black"/>
<path opacity="0.1" d="M513.379 1217.68C513.379 1217.68 474.012 1297.92 427.81 1309.62C381.609 1321.31 513.379 1217.68 513.379 1217.68Z" fill="black"/>
<path opacity="0.1" d="M586.161 1412.51C586.161 1412.51 573.019 1452.76 575.647 1456.18C578.276 1459.6 586.161 1412.51 586.161 1412.51Z" fill="black"/>
<path opacity="0.1" d="M560.723 1414.22C560.723 1414.22 547.581 1454.47 550.21 1457.89C552.838 1461.31 560.723 1414.22 560.723 1414.22Z" fill="black"/>
<path opacity="0.1" d="M531.807 1413.36C531.807 1413.36 518.636 1453.61 521.265 1457.03C523.893 1460.46 531.807 1413.36 531.807 1413.36Z" fill="black"/>
<path opacity="0.1" d="M391.37 1445.23C391.37 1445.23 399.81 1486.65 403.811 1488.41C407.812 1490.18 391.37 1445.23 391.37 1445.23Z" fill="black"/>
<path opacity="0.1" d="M440.457 1427.23C440.457 1427.23 448.897 1468.67 452.898 1470.41C456.899 1472.15 440.457 1427.23 440.457 1427.23Z" fill="black"/>
<path opacity="0.1" d="M412.426 1439.23C412.426 1439.23 420.866 1480.65 424.867 1482.42C428.868 1484.19 412.426 1439.23 412.426 1439.23Z" fill="black"/>
<path opacity="0.1" d="M660.689 1114.07C658.499 1114.5 667.26 1135.04 642.261 1136.32C617.263 1137.6 660.689 1114.07 660.689 1114.07Z" fill="black"/>
<path opacity="0.1" d="M828.584 1165.87C828.584 1165.87 818.946 1185.56 803.147 1189.41C787.348 1193.26 828.584 1165.87 828.584 1165.87Z" fill="black"/>
<path opacity="0.1" d="M752.744 1153.47C752.744 1153.47 773.8 1174.86 744.42 1179.57C715.04 1184.27 752.744 1153.47 752.744 1153.47Z" fill="black"/>
<path opacity="0.1" d="M585.725 1071.25C585.725 1071.25 542.766 1058.39 536.078 1067.8C529.39 1077.22 585.725 1071.25 585.725 1071.25Z" fill="black"/>
<path opacity="0.1" d="M510.522 1123.83C503.659 1127.16 490.079 1157.26 459.151 1179C428.224 1200.73 510.522 1123.83 510.522 1123.83Z" fill="black"/>
<g opacity="0.1">
<path opacity="0.1" d="M484.909 751.938C477.374 748.715 471.153 743.38 464.086 739.33C467.919 740.216 471.626 741.557 475.125 743.323C481.433 746.518 486.953 751.025 493.027 754.534C490.249 753.902 487.532 753.033 484.909 751.938Z" fill="black"/>
<path opacity="0.1" d="M573.513 792.929L571.615 792.787C571.329 791.984 570.893 791.239 570.33 790.59L573.513 792.929Z" fill="black"/>
<path opacity="0.1" d="M313.009 1214.37C312.863 1215.25 312.629 1216.14 312.454 1217.05C302.729 1215.99 292.945 1215.42 285.265 1210.09C294.26 1211.86 304.16 1211.69 313.009 1214.37Z" fill="black"/>
<path opacity="0.1" d="M336.668 1261.15C350.306 1262.12 364.762 1261.61 376.619 1255.16C385.252 1249.99 392.516 1242.9 397.822 1234.48C425.332 1194.74 430.968 1143.91 420.309 1097.56C417.943 1087.26 414.848 1076.33 418.615 1066.43C423.843 1052.8 440.197 1045.7 447.644 1033.03C457.077 1016.94 449.893 997.287 446.33 979.231C441.782 955.972 443.698 931.947 451.879 909.657C458.158 892.541 469.927 875.426 488.53 870.662C492.05 870.219 495.418 868.989 498.372 867.068C505.732 860.735 497.35 849.952 495.656 840.653C493.641 829.756 502.344 819.344 512.595 813.953C522.845 808.561 534.761 806.65 545.771 802.742C552.809 800.26 560.373 793.414 558.416 787.595L560.285 787.738L557.131 785.399C557.696 786.046 558.132 786.791 558.416 787.595C543.23 786.311 548.633 774.388 535.053 764.775L533.739 763.947C538.967 764.956 543.933 766.984 548.341 769.909C561.892 779.437 556.489 791.389 571.704 792.73C573.749 798.435 566.097 805.395 559.088 807.877C548.078 811.785 536.192 813.582 525.912 819.087C515.632 824.593 506.958 834.891 508.944 845.787C510.667 855.058 519.049 865.756 511.66 872.202C508.711 874.138 505.342 875.378 501.818 875.825C483.244 880.446 471.475 897.704 465.196 914.791C456.996 937.097 455.07 961.142 459.618 984.422C463.181 1002.48 470.365 1022.13 460.932 1038.22C453.485 1050.92 437.131 1057.99 431.932 1071.63C428.136 1081.55 431.231 1092.45 433.597 1102.75C444.256 1149.07 438.62 1199.91 411.11 1239.67C405.797 1248.1 398.535 1255.19 389.907 1260.38C378.05 1266.8 363.623 1267.31 349.956 1266.37C334.555 1265.29 319.319 1262.58 304.514 1258.3C305.069 1257.84 305.536 1257.33 306.061 1256.84C316.141 1259.01 326.371 1260.45 336.668 1261.15V1261.15Z" fill="black"/>
</g>
<path d="M2371.71 181.852C2371.71 181.852 2125.84 167.389 2154.81 335.691C2154.81 335.691 2148.97 365.443 2176.66 378.936C2176.66 378.936 2177.1 366.47 2201.89 370.692C2210.71 372.135 2219.67 372.557 2228.58 371.947C2240.66 371.152 2252.13 366.524 2261.26 358.768V358.768C2261.26 358.768 2330.39 330.898 2357.26 220.532C2357.26 220.532 2377.15 196.485 2376.36 190.295L2334.86 207.582C2334.86 207.582 2349.05 236.849 2337.78 261.125C2337.78 261.125 2336.43 208.666 2328.46 209.778C2326.83 210.035 2306.88 219.905 2306.88 219.905C2306.88 219.905 2331.3 270.852 2312.72 307.878C2312.72 307.878 2319.73 245.122 2299.14 223.585L2269.94 240.244C2269.94 240.244 2298.47 292.874 2279.14 335.776C2279.14 335.776 2284.1 269.939 2263.8 244.323L2237.34 264.491C2237.34 264.491 2264.45 316.55 2248.03 352.036C2248.03 352.036 2245.9 275.387 2231.83 269.597C2231.83 269.597 2208.7 289.565 2205.16 297.752C2205.16 297.752 2223.5 335.377 2212.11 355.259C2212.11 355.259 2205.13 304.17 2199.41 303.913C2199.41 303.913 2176.34 337.745 2173.94 360.965C2173.94 360.965 2174.94 326.477 2193.83 300.69C2193.83 300.69 2171.52 304.427 2158.49 318.575C2158.49 318.575 2162.09 294.642 2199.38 292.56C2199.38 292.56 2218.42 266.887 2223.53 265.346C2223.53 265.346 2186.3 262.294 2163.72 272.078C2163.72 272.078 2183.61 249.515 2230.37 259.755L2256.65 238.932C2256.65 238.932 2207.62 232.371 2186.85 239.616C2186.85 239.616 2210.77 219.648 2263.69 234.196L2292.13 217.566C2292.13 217.566 2250.34 208.78 2225.46 211.861C2225.46 211.861 2251.74 198.026 2300.46 213.03L2320.9 204.102C2320.9 204.102 2290.29 198.225 2281.33 197.313C2272.36 196.4 2271.86 193.975 2271.86 193.975C2291.26 190.799 2311.19 192.962 2329.4 200.222C2329.4 200.222 2372.5 184.533 2371.71 181.852Z" fill="#6DD5ED"/>
<path d="M2119.5 107.028C2119.5 107.028 2008.53 100.467 2021.49 176.517C2021.49 176.517 2018.89 189.952 2031.36 196.057C2031.36 196.057 2031.57 190.352 2042.75 192.349C2046.75 193.004 2050.81 193.195 2054.84 192.919C2060.24 192.515 2065.36 190.424 2069.45 186.957V186.957C2069.45 186.957 2100.67 174.349 2112.81 124.486C2112.81 124.486 2121.81 113.618 2121.58 110.822L2102.83 118.638C2102.83 118.638 2109.22 131.874 2104.2 142.828C2104.2 142.828 2103.59 119.123 2099.99 119.694C2099.23 119.694 2090.24 124.258 2090.24 124.258C2090.24 124.258 2101.25 147.278 2092.96 163.994C2092.96 163.994 2096.11 135.64 2086.79 125.941L2073.59 133.443C2073.59 133.443 2086.47 157.233 2077.74 176.631C2077.74 176.631 2079.99 146.879 2070.82 135.297L2058.87 144.397C2058.87 144.397 2070.97 167.817 2063.58 183.905C2063.58 183.905 2062.61 149.275 2056.28 146.822C2056.28 146.822 2045.82 155.807 2044.21 159.516C2044.21 159.516 2052.51 176.631 2047.37 185.502C2047.37 185.502 2044.21 162.425 2041.53 162.34C2041.53 162.34 2031.1 177.629 2030.02 188.013C2030.53 178.319 2033.63 168.925 2039.02 160.771C2033 161.877 2027.44 164.684 2023.04 168.843C2023.04 168.843 2024.68 158.032 2041.59 157.091C2041.59 157.091 2050.2 145.509 2052.51 144.796C2052.51 144.796 2035.69 143.427 2025.46 147.849C2025.46 147.849 2034.46 137.636 2055.57 142.143L2067.4 132.73C2067.4 132.73 2045.24 129.877 2035.86 133.044C2035.86 133.044 2046.67 124.001 2070.56 130.59L2083.44 123.06C2083.44 123.06 2064.54 119.095 2053.3 120.521C2053.3 120.521 2065.15 114.274 2087.2 121.063L2096.37 117.012C2096.37 117.012 2082.56 114.359 2078.5 113.96C2074.44 113.561 2074.24 112.448 2074.24 112.448C2083 111.024 2092 112.011 2100.23 115.301C2100.23 115.301 2119.85 108.312 2119.5 107.028Z" fill="#6DD5ED"/>
<path opacity="0.1" d="M3089.35 2066.8C3132.79 2066.8 3168 2060.99 3168 2053.82C3168 2046.65 3132.79 2040.84 3089.35 2040.84C3045.92 2040.84 3010.71 2046.65 3010.71 2053.82C3010.71 2060.99 3045.92 2066.8 3089.35 2066.8Z" fill="#6DD5ED"/>
<path opacity="0.1" d="M92.0526 2282.71C135.488 2282.71 170.7 2276.9 170.7 2269.73C170.7 2262.56 135.488 2256.75 92.0526 2256.75C48.6169 2256.75 13.4053 2262.56 13.4053 2269.73C13.4053 2276.9 48.6169 2282.71 92.0526 2282.71Z" fill="#6DD5ED"/>
<path opacity="0.1" d="M548.605 2298.97C592.041 2298.97 627.253 2293.16 627.253 2285.99C627.253 2278.82 592.041 2273.01 548.605 2273.01C505.17 2273.01 469.958 2278.82 469.958 2285.99C469.958 2293.16 505.17 2298.97 548.605 2298.97Z" fill="#6DD5ED"/>
<path d="M2917.22 2212.31C2982.08 2212.31 3034.66 2203.63 3034.66 2192.91C3034.66 2182.2 2982.08 2173.52 2917.22 2173.52C2852.37 2173.52 2799.79 2182.2 2799.79 2192.91C2799.79 2203.63 2852.37 2212.31 2917.22 2212.31Z" fill="#6DD5ED"/>
<path d="M2965.76 2161.19C2971.1 2156.92 2975 2151.18 2976.94 2144.7C2978.4 2138.14 2975.54 2130.27 2969.12 2127.87C2961.93 2125.19 2954.25 2130.07 2948.44 2134.98C2942.63 2139.88 2935.94 2145.5 2928.32 2144.45C2932.24 2140.98 2935.18 2136.58 2936.84 2131.68C2938.5 2126.77 2938.84 2121.53 2937.81 2116.46C2937.47 2114.36 2936.55 2112.39 2935.15 2110.76C2931.18 2106.59 2923.94 2108.39 2919.18 2111.67C2903.99 2122.08 2899.76 2142.25 2899.67 2160.37C2898.15 2153.83 2899.44 2147.02 2899.38 2140.4C2899.32 2133.78 2897.48 2126.13 2891.67 2122.65C2888.1 2120.72 2884.07 2119.74 2879.99 2119.8C2873.15 2119.55 2865.56 2120.23 2860.91 2125.11C2855.07 2131.16 2856.62 2141.31 2861.64 2147.93C2866.67 2154.55 2874.35 2158.8 2881.42 2163.39C2887.07 2166.68 2891.89 2171.18 2895.52 2176.54C2895.96 2177.29 2896.31 2178.08 2896.57 2178.91H2939.39C2948.95 2174.17 2957.81 2168.22 2965.76 2161.19V2161.19Z" fill="#6DD5ED"/>
<path d="M128.731 1922C128.731 1922 144.764 1942.49 121.342 1973.35C97.9203 2004.21 78.5578 2030.4 86.297 2049.68C86.297 2049.68 121.693 1992.23 150.547 1991.44C179.4 1990.64 160.418 1956.55 128.731 1922Z" fill="#6DD5ED"/>
<path opacity="0.1" d="M128.73 1922C130.135 1923.98 131.237 1926.14 132.001 1928.42C160.096 1960.66 175.078 1990.75 148.064 1991.52C122.919 1992.21 92.7213 2036.16 85.5078 2047.26C85.7414 2048.09 86.0335 2048.94 86.3547 2049.77C86.3547 2049.77 121.75 1992.32 150.604 1991.52C179.458 1990.72 160.417 1956.55 128.73 1922Z" fill="black"/>
<path d="M158.549 1948.22C158.549 1955.44 157.731 1961.28 156.709 1961.28C155.687 1961.28 154.869 1955.58 154.869 1948.22C154.869 1940.86 155.891 1944.43 156.913 1944.43C157.936 1944.43 158.549 1940.89 158.549 1948.22Z" fill="#FFD037"/>
<path d="M168.804 1956.78C162.321 1960.23 156.655 1962.31 156.159 1961.46C155.662 1960.6 160.539 1957.06 167.023 1953.61C173.506 1950.16 170.965 1952.67 171.433 1953.61C171.9 1954.55 175.288 1953.27 168.804 1956.78Z" fill="#FFD037"/>
<path d="M43.9809 1922C43.9809 1922 27.9477 1942.49 51.3988 1973.35C74.8499 2004.21 94.1831 2030.4 86.444 2049.68C86.444 2049.68 51.0775 1992.23 22.1944 1991.44C-6.68867 1990.64 12.3234 1956.55 43.9809 1922Z" fill="#6DD5ED"/>
<path opacity="0.1" d="M43.9829 1922C42.5906 1923.98 41.4895 1926.14 40.712 1928.42C12.6174 1960.66 -2.33525 1990.75 24.6496 1991.52C49.8237 1992.21 80.1378 2036.16 87.2345 2047.26C86.9717 2048.09 86.7088 2048.94 86.3584 2049.77C86.3584 2049.77 50.9919 1992.32 22.1088 1991.52C-6.7743 1990.72 12.3253 1956.55 43.9829 1922Z" fill="black"/>
<path d="M14.165 1948.22C14.165 1955.44 14.9828 1961.28 16.0341 1961.28C17.0855 1961.28 17.874 1955.58 17.874 1948.22C17.874 1940.86 16.8226 1944.43 15.8005 1944.43C14.7783 1944.43 14.165 1940.89 14.165 1948.22Z" fill="#FFD037"/>
<path d="M4.03631 1956.78C10.5197 1960.23 16.1561 1962.31 16.6526 1961.46C17.1491 1960.6 12.2719 1957.06 5.78857 1953.61C-0.694797 1950.16 1.87519 1952.67 1.37872 1953.61C0.882242 1954.55 -2.53467 1953.27 4.03631 1956.78Z" fill="#FFD037"/>
<path d="M19.2734 2047.09C19.2734 2047.09 64.1313 2045.75 77.6821 2036.34C91.2329 2026.92 146.663 2015.71 150.051 2030.94C153.438 2046.18 217.483 2105.94 166.814 2106.34C116.144 2106.74 49.1495 2098.64 35.6571 2090.59C22.1647 2082.55 19.2734 2047.09 19.2734 2047.09Z" fill="#A8A8A8"/>
<path opacity="0.2" d="M167.577 2100.95C116.936 2101.35 49.9124 2093.24 36.42 2085.2C26.1401 2079.1 22.0515 2057.16 20.6789 2047.03H19.1895C19.1895 2047.03 22.1099 2082.38 35.5147 2090.39C48.9195 2098.41 116.031 2106.54 166.671 2106.14C181.274 2106.14 186.355 2100.95 186.063 2093.42C184.136 2098.01 178.558 2100.86 167.577 2100.95Z" fill="black"/>
</g>
<defs>
<linearGradient id="paint0_linear" x1="2234.72" y1="2139.37" x2="2234.72" y2="734.023" gradientUnits="userSpaceOnUse">
<stop stop-color="#808080" stop-opacity="0.25"/>
<stop offset="0.54" stop-color="#808080" stop-opacity="0.12"/>
<stop offset="1" stop-color="#808080" stop-opacity="0.1"/>
</linearGradient>
<linearGradient id="paint1_linear" x1="172656" y1="1.11405e+06" x2="172656" y2="425414" gradientUnits="userSpaceOnUse">
<stop stop-color="#808080" stop-opacity="0.25"/>
<stop offset="0.54" stop-color="#808080" stop-opacity="0.12"/>
<stop offset="1" stop-color="#808080" stop-opacity="0.1"/>
</linearGradient>
<linearGradient id="paint2_linear" x1="1412.49" y1="1551.55" x2="1412.49" y2="1549.58" gradientUnits="userSpaceOnUse">
<stop stop-color="#808080" stop-opacity="0.25"/>
<stop offset="0.54" stop-color="#808080" stop-opacity="0.12"/>
<stop offset="1" stop-color="#808080" stop-opacity="0.1"/>
</linearGradient>
<linearGradient id="paint3_linear" x1="1739.54" y1="1968.43" x2="1739.54" y2="1963.72" gradientUnits="userSpaceOnUse">
<stop stop-color="#808080" stop-opacity="0.25"/>
<stop offset="0.54" stop-color="#808080" stop-opacity="0.12"/>
<stop offset="1" stop-color="#808080" stop-opacity="0.1"/>
</linearGradient>
<clipPath id="clip0">
<rect width="3168" height="2299" fill="white"/>
</clipPath>
</defs>
</svg>
