<svg width="3168" height="2299" viewBox="0 0 3168 2299" fill="none" xmlns="http://www.w3.org/2000/svg">
<g clip-path="url(#clip0)">
<path opacity="0.1" d="M34.1016 1102.23C84.1263 1292.43 189.936 1456.85 357.145 1536.55C704.755 1702.19 1488.71 1616.76 2073.8 1518.7C2376.45 1467.98 2642.47 1328.01 2835.72 1131.04L34.1016 1102.23Z" fill="#6DD5ED"/>
<path opacity="0.1" d="M3102.28 206.919H2781.25C2766.02 206.919 2753.52 195.812 2753.52 182.24C2753.52 168.669 2766.02 157.534 2781.25 157.534H2836.78C2821.51 157.534 2809.04 146.427 2809.04 132.827C2809.04 119.227 2821.51 108.149 2836.78 108.149H2797.15C2781.88 108.149 2769.39 97.0419 2769.39 83.4419C2769.39 69.8419 2781.88 58.7635 2797.15 58.7635H2964.7C2927.52 43.3785 2884.06 32.4418 2833.98 26.6901C2377.08 -25.5283 2213.96 9.01007 2156.42 44.5118C2084.69 89.3139 2005.02 120.401 1921.59 136.142C1639.7 187.907 1112.52 250.184 634.71 116.309C397.23 49.6401 220.718 162.152 114.938 350.229H3158.03C3154.06 295.574 3142.17 245.084 3120.34 200.912C3115.17 204.839 3108.81 206.953 3102.28 206.919V206.919Z" fill="#6DD5ED"/>
<path opacity="0.1" d="M6.88142 705.219C-5.44919 815.837 -1.25765 927.635 19.3228 1037.06L2837.87 1128.83C2915.46 1049.66 2981.38 960.185 3033.71 863.007L6.88142 705.219ZM1121.65 941.944H1066.15C1081.42 941.944 1093.92 953.079 1093.92 966.651C1093.92 980.223 1081.42 991.329 1066.15 991.329H745.127C729.892 991.329 717.393 980.223 717.393 966.651C717.393 953.079 729.892 941.944 745.127 941.944H800.653C785.389 941.944 772.919 930.838 772.919 917.266C772.919 903.694 785.389 892.559 800.653 892.559H760.996C745.732 892.559 733.233 881.452 733.233 867.881C733.233 854.309 745.732 843.174 760.996 843.174H1082.02C1097.29 843.174 1109.76 854.281 1109.76 867.881C1109.76 881.481 1097.29 892.559 1082.02 892.559H1121.65C1136.92 892.559 1149.39 903.666 1149.39 917.266C1149.39 930.866 1136.92 941.944 1121.65 941.944Z" fill="#6DD5ED"/>
<path opacity="0.1" d="M3158.15 351.929L80.9811 418.513C43.5418 504.164 18.7166 601.008 7.2832 701.365H3104.24C3124.39 642.65 3139.35 582.33 3148.93 521.08C3158.18 462.118 3161.86 405.083 3158.15 351.929ZM632.059 570.238H576.563C591.826 570.238 604.325 581.373 604.325 594.945C604.325 608.516 591.826 619.651 576.563 619.651H255.535C240.3 619.651 227.801 608.516 227.801 594.945C227.801 581.373 240.3 570.238 255.535 570.238H311.06C295.796 570.238 283.326 559.131 283.326 545.56C283.326 531.988 295.796 520.853 311.06 520.853H271.403C256.14 520.853 243.641 509.746 243.641 496.174C243.641 482.603 256.14 471.468 271.403 471.468H592.431C607.695 471.468 620.165 482.574 620.165 496.174C620.165 509.775 607.695 520.853 592.431 520.853H632.059C647.323 520.853 659.793 531.988 659.793 545.56C659.793 559.131 647.323 570.238 632.059 570.238Z" fill="#6DD5ED"/>
<path opacity="0.1" d="M1569.8 2213.06C2280.74 2213.06 2857.08 2160.9 2857.08 2096.56C2857.08 2032.21 2280.74 1980.05 1569.8 1980.05C858.856 1980.05 282.521 2032.21 282.521 2096.56C282.521 2160.9 858.856 2213.06 1569.8 2213.06Z" fill="#6DD5ED"/>
<path d="M2881.79 1134.24C2881.78 1134.04 2881.78 1133.85 2881.79 1133.65C2881.79 1133.34 2881.79 1133.05 2881.79 1132.77C2881.21 1129.52 2879.97 1126.43 2878.13 1123.67C2871.54 1113.3 2862.36 1104.75 2851.47 1098.85C2832.46 1088.6 2806.34 1084.21 2798.73 1064.63C2796.4 1058.56 2796.34 1051.96 2795.19 1045.62C2793.18 1035.73 2788.55 1026.53 2781.78 1018.96C2775.01 1011.39 2766.34 1005.7 2756.63 1002.46C2747.59 999.489 2737.82 998.667 2729.04 994.984C2709.4 986.767 2699.03 966.509 2690.25 947.78C2678.88 923.602 2667.51 899.415 2656.15 875.218C2647.51 879.497 2636.33 877.485 2628.24 872.13C2620.44 866.419 2614.23 858.867 2610.18 850.172C2598.46 827.788 2593.42 802.43 2579.66 781.123C2565.89 759.817 2538.39 742.987 2514.08 752.252C2509.33 754.584 2504.43 756.582 2499.39 758.23C2478.57 763.018 2455.53 739.615 2437.7 750.977C2434.74 752.845 2432.33 755.443 2430.71 758.513C2430.69 758.325 2430.69 758.135 2430.71 757.947C2428.39 762.555 2427.09 767.597 2426.9 772.737V772.737C2426.9 773.785 2426.9 774.805 2426.9 775.797C2426.9 775.967 2426.9 776.137 2426.9 776.307C2426.9 780.387 2427.16 784.523 2427.22 788.66C2427.28 792.134 2427.02 795.606 2426.41 799.03V798.747C2426.08 800.673 2425.58 802.569 2424.92 804.413C2420.28 816.653 2407.44 824.672 2401.42 836.175V835.608C2400.74 836.86 2400.15 838.157 2399.66 839.49C2398.59 842.505 2398.03 845.675 2398.02 848.868C2397.5 870.487 2420.8 890.83 2423.51 914.035C2425.44 930.469 2429.27 935.739 2443.46 945.032L2446.57 947.072C2445.34 947.072 2444.07 947.242 2442.66 947.27C2442.11 947.28 2441.56 947.337 2441.02 947.44C2438.51 946.762 2435.88 946.638 2433.32 947.079C2430.76 947.52 2428.33 948.514 2426.21 949.99C2415.33 958.49 2389.58 951.945 2378.15 949.99C2366.71 948.035 2327.55 953.305 2322.07 974.669C2316.6 996.032 2307.21 1040.12 2307.21 1040.12C2307.21 1040.12 2307.21 1068.08 2303.73 1073.3C2303.59 1073.66 2303.59 1074.06 2303.73 1074.43C2303.73 1082.28 2304.02 1129.45 2296.3 1141.61C2294.4 1144.44 2294.54 1150.7 2295.95 1158.41C2287.83 1168.7 2280.2 1180.71 2281.55 1188.59C2284.03 1204.71 2317.26 1255.4 2364.9 1228.25C2364.9 1228.25 2392 1179.49 2357.9 1153.57L2359.37 1147.9C2369.68 1160.37 2377.31 1169.32 2377.31 1169.32C2377.31 1169.32 2377.71 1170.37 2378.35 1172.15H2377.31C2381.76 1184.07 2384.46 1196.55 2385.32 1209.21C2385.19 1213.86 2384.33 1218.45 2382.78 1222.84H2383.68C2383.42 1223.8 2383.13 1224.77 2382.78 1225.67C2381.11 1230.46 2377.98 1234.62 2373.83 1237.6C2350.01 1254.21 2322.74 1372.78 2322.74 1372.78C2322.74 1372.78 2268.71 1564.46 2257.91 1575.36C2248.98 1584.32 2305.08 1609.53 2347.19 1606.53C2353.06 1606.19 2358.87 1605.1 2364.47 1603.3C2364.73 1606.13 2365.01 1608.97 2365.3 1611.55C2366.19 1620.05 2367.12 1627.92 2367.69 1630.39C2369.19 1636.56 2372.16 1699.64 2372.16 1699.64C2372.16 1699.64 2366.08 1740.61 2367.55 1769.11C2367.55 1771.06 2367.81 1772.93 2367.98 1774.78L2362.74 1775.57C2354.79 1793.14 2387.53 1939.7 2392 1952.03C2394.96 1961.74 2396.62 1971.79 2396.95 1981.92C2396.95 1981.92 2394.07 1992.35 2396.46 1998.04C2397.95 2001.52 2398.92 2005.2 2399.34 2008.95C2399.34 2008.95 2397.38 2018.41 2400.35 2024.59C2403.32 2030.77 2399.86 2041.59 2399.86 2041.59C2399.86 2041.59 2398.88 2084.29 2389.95 2107.52C2387.52 2113.77 2386.82 2120.55 2387.9 2127.16C2388.99 2133.76 2391.83 2139.97 2396.15 2145.15C2396.77 2145.96 2397.44 2146.72 2398.16 2147.44C2398.16 2147.44 2447.41 2147.84 2456.08 2147.44H2457.2C2460.69 2146.96 2469.61 2108.54 2461.66 2090.04C2453.72 2071.54 2460.69 2048.76 2460.69 2048.76V2015.1C2460.69 2015.1 2469.61 2007 2460.69 1989.6C2451.76 1972.2 2453.23 1966.93 2453.23 1966.93C2453.23 1966.93 2463.16 1938.94 2452.74 1929.93C2442.31 1920.92 2454.72 1886.75 2454.72 1886.75L2458.24 1772.85C2456.4 1772.26 2454.52 1771.79 2452.62 1771.43C2452.42 1769.56 2452.22 1767.64 2452.02 1765.6C2449.97 1744.97 2448.22 1716.92 2452.77 1708.93C2457.32 1700.94 2459.5 1631.18 2460.22 1582.7L2505.61 1584.4C2506.56 1607.07 2507.57 1627.75 2508.2 1630.39C2509.7 1636.56 2512.7 1699.64 2512.7 1699.64C2512.7 1699.64 2506.59 1740.61 2508.06 1769.11C2508.06 1771.06 2508.32 1772.93 2508.49 1774.78L2503.25 1775.57C2495.3 1793.14 2528.05 1939.7 2532.51 1952.03C2535.47 1961.74 2537.15 1971.79 2537.49 1981.92C2537.49 1981.92 2534.61 1992.35 2536.98 1998.04C2538.46 2001.52 2539.43 2005.2 2539.86 2008.95C2539.86 2008.95 2537.9 2018.41 2540.86 2024.59C2543.83 2030.77 2540.37 2041.59 2540.37 2041.59C2540.37 2041.59 2539.39 2084.29 2530.47 2107.52C2528.07 2113.78 2527.4 2120.56 2528.53 2127.15C2529.65 2133.75 2532.52 2139.94 2536.86 2145.09C2537.48 2145.9 2538.15 2146.67 2538.88 2147.39C2538.88 2147.39 2588.12 2147.78 2596.79 2147.39H2597.92C2601.4 2146.91 2610.33 2108.49 2602.38 2089.98C2594.43 2071.48 2601.4 2048.7 2601.4 2048.7V2015.1C2601.4 2015.1 2610.33 2007 2601.4 1989.6C2592.47 1972.2 2593.94 1966.93 2593.94 1966.93C2593.94 1966.93 2603.88 1938.94 2593.45 1929.93C2583.03 1920.92 2595.44 1886.75 2595.44 1886.75L2599.01 1772.85C2597.12 1772.25 2595.2 1771.78 2593.25 1771.43C2593.05 1769.56 2592.85 1767.64 2592.64 1765.6C2590.6 1744.97 2588.84 1716.92 2593.39 1708.93C2597.05 1702.38 2599.15 1660.22 2600.1 1619.05C2600.1 1616.22 2600.1 1613.39 2600.33 1610.55C2621.19 1609.7 2641.96 1607.41 2662.48 1603.7C2662.48 1603.7 2638.21 1519.24 2645.64 1505.49C2648.83 1499.57 2644.22 1468.04 2637.92 1434.07C2646.71 1441.07 2657.65 1444.96 2668.96 1445.12C2679.82 1465.66 2712.85 1512.92 2731.46 1520.2C2753.29 1528.7 2736.9 1453.33 2726.5 1442.42C2721.58 1436.47 2717.44 1429.93 2714.18 1422.96C2714.47 1422.62 2714.78 1422.34 2715.07 1422.02C2715.36 1421.71 2715.59 1341.84 2710.61 1343.29C2705.63 1344.73 2699.69 1331.41 2699.69 1331.41L2684.31 1198.62L2677.86 1143.03C2683.25 1146.94 2689.64 1149.43 2695.14 1153.31C2710.12 1164.11 2715.01 1183.06 2721.58 1199.83C2726.99 1213.63 2734.6 1227.32 2747.07 1235.99C2759.54 1244.66 2777.83 1246.95 2790.27 1238.17C2801.79 1229.92 2805.18 1215.05 2807.72 1201.48C2828.63 1208.7 2854 1189.38 2851.29 1168.27C2850.63 1163.06 2848.67 1157.36 2851.44 1152.8C2856.97 1143.79 2874.48 1149.03 2880.24 1140.14C2881.2 1138.6 2881.7 1136.82 2881.68 1135.01C2881.76 1134.61 2881.79 1134.44 2881.79 1134.24ZM2602.12 1207.29C2601.8 1212.36 2608.89 1253.1 2614.65 1285.34C2609.92 1265.26 2600.45 1243.81 2581.79 1229.1C2581.79 1229.1 2581.79 1228.08 2581.56 1226.27H2581.79C2581.79 1226.27 2581.01 1218.17 2580.89 1206.63C2580.93 1196.41 2581.7 1186.21 2583.2 1176.09V1175.84H2582.82C2582.82 1174.99 2583.05 1174.11 2583.2 1173.26C2584.34 1164.72 2586.7 1156.39 2590.2 1148.49C2591.74 1145.4 2593.52 1142.43 2595.52 1139.6C2598.61 1167 2602.41 1202.16 2602.12 1207.29V1207.29ZM2617.61 1301.69C2620.15 1315.6 2621.96 1325.38 2621.96 1325.38L2637.26 1428.68V1429.16C2629.02 1385.56 2618.51 1339.6 2618.51 1339.6C2619.58 1326.97 2619.28 1314.26 2617.61 1301.69V1301.69Z" fill="url(#paint0_linear)"/>
<path d="M2430.19 919.702C2427.31 893.522 2398.51 870.94 2407.15 846.035C2411.84 832.464 2426.53 824.162 2431.49 810.675C2434.77 801.778 2433.3 792.003 2433.33 782.54C2433.36 773.077 2435.6 762.508 2443.61 757.267C2460.89 745.933 2483.12 769.252 2503.28 764.492C2508.16 762.852 2512.9 760.863 2517.48 758.542C2541.01 749.333 2567.62 766.107 2580.84 787.3C2594.06 808.493 2599.01 833.767 2610.36 856.037C2614.23 864.637 2620.23 872.147 2627.81 877.882C2635.64 883.209 2646.36 885.22 2654.82 880.97L2687.8 953.22C2696.44 971.835 2706.35 992.009 2725.24 1000.2C2733.71 1003.85 2743.15 1004.67 2751.91 1007.65C2761.42 1010.95 2769.89 1016.65 2776.46 1024.19C2783.03 1031.72 2787.48 1040.82 2789.35 1050.57C2790.47 1056.92 2790.5 1063.49 2792.77 1069.53C2800.12 1089.02 2825.38 1093.39 2843.78 1103.53C2854.42 1109.43 2863.35 1117.93 2869.7 1128.21C2872.58 1133.11 2875.05 1139.54 2871.97 1144.36C2866.41 1153.2 2849.51 1147.98 2844.15 1156.97C2841.45 1161.5 2843.35 1167.17 2844.15 1172.38C2846.77 1193.37 2822.21 1212.61 2801.99 1205.42C2799.54 1218.93 2796.23 1233.75 2785.11 1241.94C2773.16 1250.72 2755.45 1248.4 2743.38 1239.78C2731.32 1231.17 2724 1217.54 2718.76 1203.8C2712.4 1187.08 2707.64 1168.21 2693.16 1157.48C2687.92 1153.62 2681.64 1151.13 2676.51 1147.25C2664.99 1138.58 2659.23 1124.27 2655.11 1110.41C2649.79 1093.13 2645.55 1075.37 2637.83 1059.05C2630.11 1042.73 2617.9 1027.54 2601.17 1020.09C2585.48 1013.15 2567.39 1013.6 2551.18 1007.96C2523.27 998.27 2502.62 975.179 2474.86 964.299C2465.98 960.629 2457.57 955.95 2449.8 950.359C2435.83 941.32 2432.03 936.079 2430.19 919.702Z" fill="#3F3D56"/>
<g opacity="0.1">
<path opacity="0.1" d="M2432.78 805.121C2433.38 804.013 2433.9 802.868 2434.34 801.693C2437.59 792.796 2436.15 783.021 2436.18 773.558C2436.18 770.402 2436.48 767.252 2437.07 764.151C2434.42 769.749 2433.12 775.881 2433.3 782.058C2433.27 789.679 2434.19 797.669 2432.78 805.121Z" fill="black"/>
<path opacity="0.1" d="M2787.82 1233.04C2775.87 1241.8 2758.15 1239.5 2746.09 1230.86C2734.02 1222.22 2726.68 1208.65 2721.58 1194.85C2715.21 1178.13 2710.49 1159.26 2695.98 1148.52C2690.76 1144.67 2684.46 1142.15 2679.36 1138.29C2667.84 1129.62 2662.08 1115.32 2657.93 1101.6C2652.6 1084.32 2648.4 1066.55 2640.65 1050.23C2632.91 1033.91 2620.75 1018.73 2603.99 1011.27C2588.32 1004.33 2570.24 1004.79 2554.02 999.148C2526.09 989.458 2505.44 966.366 2477.71 955.486C2468.83 951.805 2460.41 947.128 2452.62 941.546C2438.97 932.281 2435.34 927.039 2433.32 910.691C2430.44 886.154 2405.1 864.763 2409.05 841.643C2408.4 842.893 2407.84 844.18 2407.35 845.496C2398.71 870.429 2427.51 893.011 2430.39 919.163C2432.26 935.511 2436.15 940.753 2449.68 950.018C2457.47 955.599 2465.89 960.277 2474.77 963.958C2502.5 974.838 2523.15 997.958 2551.09 1007.62C2567.3 1013.29 2585.39 1012.8 2601.05 1019.75C2617.81 1027.2 2629.85 1042.41 2637.72 1058.7C2645.58 1075 2649.78 1092.7 2654.99 1110.07C2659.23 1123.79 2664.79 1138.1 2676.42 1146.77C2681.63 1150.62 2687.94 1153.14 2693.04 1156.99C2707.44 1167.73 2712.28 1186.6 2718.64 1203.32C2723.88 1217.06 2731.23 1230.66 2743.29 1239.27C2755.36 1247.89 2773.07 1250.21 2785.02 1241.46C2792.66 1235.79 2796.54 1227.15 2799.11 1217.88C2796.83 1223.86 2792.92 1229.1 2787.82 1233.04V1233.04Z" fill="black"/>
<path opacity="0.1" d="M2847 1148.07C2845.9 1150.1 2845.42 1152.4 2845.62 1154.7C2852.13 1148.38 2866.82 1152.09 2871.94 1143.96C2873.13 1141.95 2873.6 1139.6 2873.27 1137.3C2866.59 1143.54 2851.9 1139.82 2847 1148.07Z" fill="black"/>
<path opacity="0.1" d="M2804.69 1196.52C2804.14 1199.35 2803.6 1202.38 2802.91 1205.33C2820.53 1210.74 2840.89 1196.83 2843.77 1179.26C2836.77 1192.78 2819.49 1201.82 2804.69 1196.52Z" fill="black"/>
</g>
<path d="M2467.4 933.33C2467.4 933.33 2476.99 952.37 2448.68 952.767C2420.37 953.163 2466.91 1076.41 2466.91 1076.41L2513.97 1135.35L2572.51 1104.18L2575.88 1018.22L2580.2 966.282C2580.2 966.282 2525.49 948.8 2535.57 925.68C2545.65 902.56 2467.4 933.33 2467.4 933.33Z" fill="#FBBEBE"/>
<path d="M2637.34 1435.85C2637.34 1435.85 2671.9 1469.31 2712.22 1424.91L2681.26 1392.59H2642.09L2637.34 1435.85Z" fill="#575A89"/>
<path opacity="0.1" d="M2641.08 1392.59L2636.33 1435.85C2636.33 1435.85 2670.89 1469.31 2711.21 1424.91" fill="black"/>
<path d="M2699.23 1398.48C2699.23 1398.48 2713.14 1434.38 2723.22 1445.23C2733.3 1456.08 2749.14 1531.16 2728.03 1522.66C2706.92 1514.16 2666.6 1450.9 2664.18 1440.04C2661.77 1429.19 2660.84 1398.48 2660.84 1398.48H2699.23Z" fill="#FBBEBE"/>
<path d="M2397.33 1582.65L2583.54 1589.73L2561.94 1512.27L2468.14 1510.4L2397.33 1582.65Z" fill="#575A89"/>
<path opacity="0.1" d="M2423.21 1582.65L2609.46 1589.73L2587.86 1512.27L2494.03 1510.4L2423.21 1582.65Z" fill="black"/>
<path d="M2458.27 1710.52C2453.86 1718.59 2455.56 1746.53 2457.55 1767.18C2458.81 1780.33 2460.2 1790.44 2460.2 1790.44C2460.2 1790.44 2390.59 1811.69 2380.05 1793.28C2377.37 1788.6 2376.04 1780.41 2375.58 1770.81C2374.14 1742.48 2380.05 1701.65 2380.05 1701.65C2380.05 1701.65 2377.17 1638.86 2375.73 1632.71C2375.15 1630.25 2374.26 1622.43 2373.39 1613.96C2372.13 1601.38 2370.92 1587.38 2370.92 1587.38L2465.96 1537.79C2465.96 1537.79 2465.96 1547.09 2465.78 1561.4C2465.27 1606.33 2463.74 1700.6 2458.27 1710.52Z" fill="#FBBEBE"/>
<path opacity="0.1" d="M2460.19 1790.44C2460.19 1790.44 2390.59 1811.69 2380.05 1793.28C2377.37 1788.6 2376.04 1780.41 2375.58 1770.81C2389.98 1768.66 2433.81 1762.71 2457.55 1767.18C2458.81 1780.33 2460.19 1790.44 2460.19 1790.44Z" fill="black"/>
<path d="M2462.58 2147.44H2461.49C2453.11 2147.76 2405.47 2147.44 2405.47 2147.44C2404.77 2146.73 2404.12 2145.97 2403.51 2145.18C2399.3 2139.99 2396.52 2133.83 2395.44 2127.28C2394.35 2120.73 2395 2114.01 2397.32 2107.78C2405.96 2084.63 2406.91 2042.13 2406.91 2042.13C2406.91 2042.13 2410.28 2031.28 2407.4 2025.13C2404.52 2018.98 2406.42 2009.55 2406.42 2009.55C2405.98 2005.81 2405.01 2002.16 2403.54 1998.69C2401.15 1993.03 2404.03 1982.63 2404.03 1982.63C2403.7 1972.55 2402.09 1962.56 2399.22 1952.88C2394.9 1940.61 2363.22 1794.69 2370.91 1777.21C2370.91 1777.21 2438.1 1765.88 2463.56 1774.38L2460.19 1887.71C2460.19 1887.71 2448.18 1921.71 2458.26 1930.69C2468.34 1939.68 2458.75 1967.53 2458.75 1967.53C2458.75 1967.53 2457.31 1972.71 2465.95 1990.19C2474.59 2007.68 2465.95 2015.69 2465.95 2015.69V2049.21C2465.95 2049.21 2459.24 2071.88 2466.9 2090.3C2474.56 2108.71 2465.95 2146.85 2462.58 2147.44Z" fill="#3F3D56"/>
<path d="M2594.45 1710.52C2590.05 1718.59 2591.75 1746.53 2593.73 1767.18C2595 1780.33 2596.38 1790.44 2596.38 1790.44C2596.38 1790.44 2526.78 1811.69 2516.23 1793.28C2513.56 1788.6 2512.23 1780.41 2511.77 1770.81C2510.33 1742.48 2516.23 1701.65 2516.23 1701.65C2516.23 1701.65 2513.35 1638.86 2511.91 1632.71C2511.14 1629.4 2509.78 1597.78 2508.72 1569.42C2507.83 1545.22 2507.11 1523.35 2507.11 1523.35L2602.14 1537.8C2602.14 1537.8 2602.14 1578.91 2600.96 1621.15C2599.93 1662.12 2598 1704.11 2594.45 1710.52Z" fill="#FBBEBE"/>
<path opacity="0.1" d="M2596.39 1790.44C2596.39 1790.44 2526.78 1811.69 2516.24 1793.28C2513.56 1788.6 2512.24 1780.41 2511.78 1770.81C2526.18 1768.66 2570.01 1762.71 2593.74 1767.18C2595.01 1780.33 2596.39 1790.44 2596.39 1790.44Z" fill="black"/>
<path d="M2598.78 2147.45H2597.69C2589.3 2147.76 2541.67 2147.45 2541.67 2147.45C2540.97 2146.73 2540.32 2145.97 2539.71 2145.18C2535.5 2139.99 2532.72 2133.83 2531.64 2127.28C2530.55 2120.73 2531.2 2114.01 2533.52 2107.78C2542.16 2084.52 2543.02 2042.02 2543.02 2042.02C2543.02 2042.02 2546.39 2031.17 2543.51 2025.02C2540.63 2018.87 2542.53 2009.43 2542.53 2009.43C2542.09 2005.7 2541.12 2002.05 2539.65 1998.58C2537.26 1992.91 2540.14 1982.52 2540.14 1982.52C2539.81 1972.44 2538.2 1962.45 2535.33 1952.77C2531.01 1940.5 2499.34 1794.58 2507.03 1777.1C2507.03 1777.1 2574.21 1765.77 2599.67 1774.27L2596.3 1887.6C2596.3 1887.6 2584.29 1921.6 2594.37 1930.58C2604.45 1939.56 2594.86 1967.41 2594.86 1967.41C2594.86 1967.41 2593.42 1972.6 2602.06 1990.08C2610.7 2007.56 2602.06 2015.58 2602.06 2015.58V2049.1C2602.06 2049.1 2595.35 2071.77 2603.01 2090.18C2610.67 2108.6 2602.15 2146.85 2598.78 2147.45Z" fill="#3F3D56"/>
<path opacity="0.1" d="M2504.83 955.6C2542.21 955.6 2572.51 925.79 2572.51 889.017C2572.51 852.244 2542.21 822.434 2504.83 822.434C2467.45 822.434 2437.15 852.244 2437.15 889.017C2437.15 925.79 2467.45 955.6 2504.83 955.6Z" fill="black"/>
<path d="M2504.83 952.767C2542.21 952.767 2572.51 922.956 2572.51 886.183C2572.51 849.41 2542.21 819.6 2504.83 819.6C2467.45 819.6 2437.15 849.41 2437.15 886.183C2437.15 922.956 2467.45 952.767 2504.83 952.767Z" fill="#FBBEBE"/>
<path opacity="0.1" d="M2370.92 1587.38L2465.96 1537.79C2465.96 1537.79 2465.96 1547.09 2465.78 1561.4C2451.9 1569.56 2430.97 1581.82 2410.83 1593.41C2399.89 1599.73 2389.21 1605.85 2380.05 1610.98C2377.92 1612.12 2375.69 1613.06 2373.39 1613.81C2372.13 1601.37 2370.92 1587.38 2370.92 1587.38Z" fill="black"/>
<path opacity="0.1" d="M2602.15 1537.68C2602.15 1537.68 2602.15 1578.79 2600.97 1621.04H2600.62C2593.52 1621.29 2586.41 1621.07 2579.34 1620.39C2566.93 1619.08 2556.99 1615.85 2553.42 1609.45C2546.19 1596.98 2525.94 1581.12 2508.84 1569.3C2507.94 1545.1 2507.22 1523.23 2507.22 1523.23L2602.15 1537.68Z" fill="black"/>
<path d="M2584.47 1177.59C2582.06 1196.04 2581.6 1214.67 2583.09 1233.21C2626.75 1268.63 2618.59 1343.23 2618.59 1343.23C2618.59 1343.23 2652.2 1494.36 2645 1508.05C2637.8 1521.73 2661.3 1605.8 2661.3 1605.8C2641.27 1609.53 2620.99 1611.82 2600.62 1612.65C2593.52 1612.9 2586.41 1612.68 2579.34 1612C2566.93 1610.7 2556.99 1607.47 2553.42 1601.06C2540 1577.94 2481.91 1543.46 2481.91 1543.46C2481.91 1543.46 2445.11 1565.17 2410.84 1584.91C2399.89 1591.23 2389.21 1597.35 2380.05 1602.48C2372.62 1606.36 2364.4 1608.57 2356 1608.97C2315.25 1611.94 2260.96 1586.84 2269.6 1577.94C2280.17 1567.06 2332.5 1376.3 2332.5 1376.3C2332.5 1376.3 2358.88 1258.23 2381.92 1241.71C2385.96 1238.71 2388.97 1234.57 2390.56 1229.84C2398.45 1208.28 2385.26 1173.71 2385.26 1173.71C2385.26 1173.71 2310.87 1083.53 2314.21 1078.31C2317.55 1073.1 2317.58 1045.28 2317.58 1045.28C2317.58 1045.28 2326.71 1001.36 2331.98 980.109C2337.25 958.859 2375.18 953.646 2386.21 955.544C2397.24 957.442 2422.18 964.044 2432.72 955.544C2443.26 947.044 2461.06 958.859 2461.06 958.859L2504.78 970.702L2544.09 948.036C2544.09 948.036 2583.49 950.019 2586.86 955.204C2590.23 960.389 2642.07 970.334 2642.07 970.334C2668.45 987.787 2667.5 1070.92 2667.5 1070.92C2667.5 1070.92 2604.14 1125.2 2591.18 1153.08C2587.82 1160.92 2585.56 1169.16 2584.47 1177.59V1177.59Z" fill="#575A89"/>
<path d="M2653.15 1059.42L2667.55 1070.75L2682.44 1202.5L2697.3 1334.73C2697.3 1334.73 2703.06 1347.96 2707.87 1346.55C2712.68 1345.13 2712.19 1424.92 2712.19 1424.92C2712.19 1424.92 2657.07 1391.57 2637.31 1435.85L2621.93 1329.06C2621.93 1329.06 2602.24 1219.98 2602.73 1211.48C2603.21 1202.98 2592.65 1110.9 2592.65 1110.9L2653.15 1059.42Z" fill="#575A89"/>
<path d="M2324.84 1065.56L2314.27 1078.31C2314.27 1078.31 2315.25 1133.08 2307.07 1146.31C2298.89 1159.54 2329.65 1236.98 2341.17 1232.25C2352.69 1227.52 2378.61 1106.65 2378.61 1105.23C2378.61 1103.81 2324.84 1065.56 2324.84 1065.56Z" fill="#575A89"/>
<path d="M2323.89 1143.48C2323.89 1143.48 2290.28 1177 2292.67 1193.06C2295.06 1209.13 2327.23 1259.59 2373.31 1232.47C2373.31 1232.47 2416.04 1153.4 2323.89 1143.48Z" fill="#575A89"/>
<path opacity="0.1" d="M2461.49 2147.53C2453.11 2147.84 2405.47 2147.53 2405.47 2147.53C2404.77 2146.81 2404.12 2146.06 2403.51 2145.26C2415.7 2141.18 2442.02 2135.06 2461.49 2147.53Z" fill="black"/>
<path opacity="0.1" d="M2597.74 2147.53C2589.36 2147.84 2541.73 2147.53 2541.73 2147.53C2541.03 2146.81 2540.38 2146.06 2539.77 2145.26C2551.9 2141.18 2578.22 2135.06 2597.74 2147.53Z" fill="black"/>
<path opacity="0.1" d="M2414.23 1316.99C2406.89 1386.3 2409.31 1523.83 2410.83 1584.91C2399.89 1591.23 2389.2 1597.35 2380.05 1602.48C2372.61 1606.36 2364.4 1608.57 2356 1608.97C2352.95 1590.49 2395.22 1400.75 2414.23 1316.99Z" fill="black"/>
<path opacity="0.1" d="M2423.22 1277.67C2423.01 1278.66 2419.53 1293.73 2414.23 1316.99C2416.3 1297.13 2419.18 1282.88 2423.22 1277.67Z" fill="black"/>
<path opacity="0.1" d="M2540.14 1270.19C2540.14 1270.19 2580.95 1522.35 2460.11 1553.52C2460.08 1553.41 2543.71 1540.91 2540.14 1270.19Z" fill="black"/>
<path opacity="0.1" d="M2600.62 1612.65C2593.52 1612.9 2586.41 1612.68 2579.34 1612L2546.73 1267.21C2567.53 1280.58 2592.41 1525.27 2600.62 1612.65Z" fill="black"/>
<path opacity="0.1" d="M2454.44 847.026C2456.6 846.857 2458.78 847.078 2460.86 847.678C2463.92 849.176 2466.67 851.212 2468.98 853.684C2472.74 856.772 2477.23 858.873 2482.03 859.789C2486.84 860.706 2491.8 860.409 2496.46 858.926C2499.74 857.482 2503.23 856.527 2506.8 856.093C2512.3 856.093 2517.05 860.059 2519.9 864.593C2522.75 869.126 2524.22 874.509 2526.67 879.354C2529.12 884.199 2533.03 888.789 2538.42 889.979C2541 890.078 2543.54 890.655 2545.91 891.679C2547.35 892.838 2548.47 894.353 2549.13 896.071C2553.62 905.619 2557.19 916.896 2566.78 921.571C2570.31 923.18 2574.16 924.002 2578.05 923.98C2582 924.265 2585.96 923.563 2589.57 921.939C2593.11 919.992 2596.04 917.119 2598.03 913.638C2604.02 903.891 2604.71 891.821 2603.3 880.516C2601.54 866.255 2596.38 852.604 2588.24 840.679C2579.66 828.618 2567.98 819.014 2554.4 812.846C2540.81 806.678 2525.81 804.169 2510.91 805.574C2505.71 806.149 2500.57 807.096 2495.51 808.408C2477.19 813.224 2459.22 822.234 2448.1 837.336C2445.41 841.106 2442.46 844.684 2439.26 848.046C2444.3 847.564 2449.37 847.139 2454.44 847.026Z" fill="black"/>
<path d="M2454.44 844.194C2456.6 844.025 2458.78 844.246 2460.86 844.846C2463.92 846.345 2466.67 848.38 2468.98 850.853C2472.74 853.941 2477.23 856.041 2482.03 856.958C2486.84 857.875 2491.8 857.577 2496.46 856.094C2499.74 854.65 2503.23 853.695 2506.8 853.261C2512.3 853.261 2517.05 857.228 2519.9 861.761C2522.75 866.295 2524.22 871.678 2526.67 876.523C2529.12 881.368 2533.03 885.958 2538.42 887.148C2541 887.247 2543.54 887.823 2545.91 888.848C2547.35 890.007 2548.47 891.522 2549.13 893.24C2553.62 902.788 2557.19 914.065 2566.78 918.74C2570.31 920.348 2574.16 921.17 2578.05 921.148C2582 921.433 2585.96 920.732 2589.57 919.108C2593.11 917.16 2596.04 914.287 2598.03 910.806C2604.02 901.06 2604.71 888.99 2603.3 877.685C2601.54 863.423 2596.38 849.773 2588.24 837.848C2579.66 825.787 2567.98 816.182 2554.4 810.014C2540.81 803.847 2525.81 801.337 2510.91 802.743C2505.71 803.318 2500.57 804.265 2495.51 805.576C2477.19 810.393 2459.22 819.403 2448.1 834.504C2445.41 838.274 2442.46 841.853 2439.26 845.214C2444.3 844.733 2449.37 844.308 2454.44 844.194Z" fill="#3F3D56"/>
<path opacity="0.1" d="M2380.99 1002.75C2380.99 1002.75 2384.36 1029.21 2372.84 1035.81C2361.32 1042.41 2380.99 1002.75 2380.99 1002.75Z" fill="black"/>
<path opacity="0.1" d="M2625.3 1207.71C2625.3 1207.71 2652.66 1168.04 2656.52 1179.38C2660.38 1190.71 2625.3 1207.71 2625.3 1207.71Z" fill="black"/>
<path opacity="0.1" d="M2627.23 1220.92C2627.23 1220.92 2654.22 1188.33 2656.81 1201.08C2659.4 1213.83 2627.23 1220.92 2627.23 1220.92Z" fill="black"/>
<path opacity="0.1" d="M2547.98 1182.13C2538.19 1182.26 2528.64 1179.17 2520.85 1173.34H2518.49C2510.41 1180.6 2499.8 1184.53 2488.85 1184.31C2483.16 1184.44 2477.51 1183.43 2472.23 1181.34C2466.94 1179.26 2462.15 1176.14 2458.13 1172.18H2454.99C2446.7 1178.82 2436.28 1182.36 2425.59 1182.17C2414.9 1181.98 2404.62 1178.07 2396.58 1171.13L2385.32 1170.93C2385.32 1170.93 2398.51 1205.5 2390.62 1227.06L2583.09 1230.43C2581.6 1211.9 2582.06 1193.26 2584.47 1174.82V1174.56L2573.9 1174.36C2566.3 1179.55 2557.23 1182.26 2547.98 1182.13Z" fill="black"/>
<path opacity="0.1" d="M2547.98 1187.79C2538.19 1187.93 2528.64 1184.84 2520.85 1179.01H2518.49C2510.41 1186.27 2499.8 1190.2 2488.85 1189.97C2483.16 1190.1 2477.51 1189.1 2472.23 1187.01C2466.94 1184.93 2462.15 1181.81 2458.13 1177.85H2454.99C2446.7 1184.49 2436.28 1188.03 2425.59 1187.84C2414.9 1187.65 2404.62 1183.74 2396.58 1176.8L2385.32 1176.6C2385.32 1176.6 2398.51 1211.17 2390.62 1232.73L2583.09 1236.1C2581.6 1217.56 2582.06 1198.93 2584.47 1180.48V1180.23L2573.9 1180.03C2566.3 1185.22 2557.23 1187.93 2547.98 1187.79Z" fill="black"/>
<path d="M2547.98 1184.96C2538.19 1185.09 2528.64 1182 2520.85 1176.17H2518.49C2510.41 1183.44 2499.8 1187.36 2488.85 1187.14C2483.16 1187.27 2477.51 1186.26 2472.23 1184.18C2466.94 1182.09 2462.15 1178.98 2458.13 1175.01H2454.99C2446.7 1181.66 2436.28 1185.2 2425.59 1185.01C2414.9 1184.81 2404.62 1180.9 2396.58 1173.96L2385.32 1173.77C2385.32 1173.77 2398.51 1208.33 2390.62 1229.9L2583.09 1233.27C2581.6 1214.73 2582.06 1196.09 2584.47 1177.65V1177.39L2573.9 1177.19C2566.3 1182.38 2557.23 1185.1 2547.98 1184.96V1184.96Z" fill="#3F3D56"/>
<path opacity="0.1" d="M2539.42 996.031C2539.42 996.031 2579.94 998.581 2580.2 1004.25C2580.46 1009.91 2539.42 996.031 2539.42 996.031Z" fill="black"/>
<path opacity="0.1" d="M2440.99 971.864C2440.99 971.864 2400.47 974.414 2400.21 980.08C2399.95 985.747 2440.99 971.864 2440.99 971.864Z" fill="black"/>
<path opacity="0.1" d="M2595.84 1087.72C2595.43 1087.44 2595.03 1087.21 2594.63 1086.95C2605 1096.13 2603.27 1116.19 2590.54 1132.74C2577.81 1149.29 2558.48 1156.17 2546.73 1148.75C2547.11 1149.06 2547.43 1149.4 2547.83 1149.71C2559.35 1158.38 2579.51 1151.58 2592.81 1134.47C2606.12 1117.36 2607.41 1096.42 2595.84 1087.72Z" fill="black"/>
<path opacity="0.1" d="M2373.25 1130.62C2362.99 1112.43 2364.32 1092.34 2375.93 1084.72C2375.49 1084.91 2375.03 1085.08 2374.6 1085.31C2361.87 1092.28 2360.2 1113.16 2370.74 1131.98C2381.28 1150.79 2400.29 1160.31 2413.02 1153.45C2413.44 1153.21 2413.84 1152.95 2414.23 1152.66C2401.53 1158.33 2383.5 1148.81 2373.25 1130.62Z" fill="black"/>
<path opacity="0.1" d="M2386.96 977.218L2383.24 982.885L2373.77 977.927L2378.75 970.39C2382.04 971.923 2384.87 974.277 2386.96 977.218V977.218Z" fill="black"/>
<path d="M2326.77 1186.91C2326.77 1186.91 2335.21 1147.87 2323.89 1135.46C2312.57 1123.05 2316.2 1058 2333.48 1059.41C2350.76 1060.83 2376.68 1112.28 2372.36 1123.16C2368.04 1134.04 2351.71 1189.75 2351.71 1189.75L2326.77 1186.91Z" fill="#FBBEBE"/>
<path opacity="0.1" d="M2597.74 905.224C2595.75 908.705 2592.82 911.577 2589.28 913.525C2585.67 915.149 2581.71 915.851 2577.76 915.565C2573.87 915.588 2570.02 914.765 2566.5 913.157C2556.91 908.454 2553.33 897.177 2548.84 887.657C2548.27 885.94 2547.26 884.397 2545.9 883.18C2543.57 882.137 2541.06 881.531 2538.5 881.395C2533.12 880.205 2529.23 875.587 2526.75 870.77C2524.28 865.954 2522.81 860.627 2519.98 856.009C2517.16 851.39 2512.38 847.339 2506.88 847.509C2503.3 847.975 2499.81 848.979 2496.54 850.483C2491.88 851.955 2486.92 852.243 2482.12 851.322C2477.31 850.4 2472.82 848.299 2469.07 845.214C2466.75 842.741 2464 840.705 2460.95 839.207C2458.86 838.607 2456.69 838.386 2454.52 838.555C2451.21 838.555 2447.93 838.867 2444.62 839.122C2442.98 841.238 2441.22 843.262 2439.35 845.185C2444.39 844.76 2449.45 844.335 2454.52 844.222C2456.69 844.053 2458.86 844.274 2460.95 844.874C2464 846.372 2466.75 848.408 2469.07 850.88C2472.82 853.966 2477.31 856.067 2482.12 856.988C2486.92 857.91 2491.88 857.621 2496.54 856.15C2499.81 854.645 2503.3 853.642 2506.88 853.175C2512.38 853.175 2517.13 857.142 2519.98 861.675C2522.84 866.209 2524.3 871.592 2526.75 876.437C2529.2 881.282 2533.12 885.872 2538.5 887.062C2541.06 887.198 2543.57 887.803 2545.9 888.847C2547.35 890.006 2548.47 891.521 2549.13 893.239C2553.62 902.787 2557.19 914.064 2566.78 918.739C2570.31 920.347 2574.16 921.17 2578.04 921.147C2582 921.433 2585.96 920.731 2589.56 919.107C2593.11 917.159 2596.04 914.286 2598.03 910.805C2602.5 902.796 2604.5 893.679 2603.79 884.569C2603.57 891.844 2601.49 898.948 2597.74 905.224V905.224Z" fill="black"/>
<path d="M2339.53 1217.88C2353.84 1217.88 2365.45 1210.15 2365.45 1200.6C2365.45 1191.05 2353.84 1183.32 2339.53 1183.32C2325.21 1183.32 2313.61 1191.05 2313.61 1200.6C2313.61 1210.15 2325.21 1217.88 2339.53 1217.88Z" fill="#575A89"/>
<path d="M1494.67 2162.66C1985.35 2162.66 2383.13 1771.32 2383.13 1288.58C2383.13 805.832 1985.35 414.49 1494.67 414.49C1003.98 414.49 606.205 805.832 606.205 1288.58C606.205 1771.32 1003.98 2162.66 1494.67 2162.66Z" fill="#6DD5ED"/>
<path d="M1960.84 1727.83C1960.84 1865.81 1740.36 1739.61 1503.97 1739.61C1267.58 1739.61 1028.49 1860.6 1028.49 1722.61C1028.49 1643.93 1104.69 1534.51 1214.02 1455.03C1296.38 1395.14 1397.53 1352.24 1499.13 1352.24C1603.62 1352.24 1705.97 1398.68 1787.62 1462.43C1890.66 1542.81 1960.84 1650.82 1960.84 1727.83Z" fill="#444053"/>
<path d="M1787.59 1462.37C1661.93 1443.76 1434.68 1421.06 1214.02 1454.98C1296.38 1395.08 1397.53 1352.18 1499.13 1352.18C1603.59 1352.18 1705.94 1398.62 1787.59 1462.37Z" fill="#F6F8FB"/>
<path opacity="0.05" d="M1028.49 671.559C1028.49 671.559 760.852 839.887 763.041 1103.19C765.229 1366.49 1028.49 671.559 1028.49 671.559Z" fill="black"/>
<path d="M2382.78 196.153C2382.78 196.153 2140.29 181.788 2168.89 348.955C2168.89 348.955 2163.13 378.478 2190.43 391.908C2190.43 391.908 2190.86 379.526 2215.29 383.72C2223.99 385.152 2232.83 385.571 2241.64 384.966C2253.53 384.171 2264.84 379.574 2273.83 371.876V371.876C2273.83 371.876 2342 344.195 2368.53 234.573C2368.53 234.573 2388.14 210.659 2387.36 204.539L2346.44 221.709C2346.44 221.709 2360.41 250.751 2349.32 274.891C2349.32 274.891 2347.99 222.786 2340.13 223.891C2338.55 224.146 2318.88 233.949 2318.88 233.949C2318.88 233.949 2342.92 284.553 2324.64 321.301C2324.64 321.301 2331.52 258.968 2311.22 237.604L2282.42 254.151C2282.42 254.151 2310.53 306.398 2291.46 349.04C2291.46 349.04 2296.36 283.646 2276.37 258.175L2250.25 278.206C2250.25 278.206 2276.66 329.716 2260.56 365.076C2260.56 365.076 2258.46 288.945 2244.6 283.193C2244.6 283.193 2221.77 303.026 2218.28 311.158C2218.28 311.158 2236.37 348.53 2225.16 368.25C2225.16 368.25 2218.28 317.533 2212.64 317.25C2212.64 317.25 2189.88 350.853 2187.49 373.916C2187.49 373.916 2188.5 339.633 2207.11 314.048C2207.11 314.048 2185.1 317.76 2172.29 331.813C2172.29 331.813 2175.83 308.041 2212.61 305.973C2212.61 305.973 2231.41 280.473 2236.45 278.943C2236.45 278.943 2199.73 275.911 2177.47 285.63C2177.47 285.63 2197.06 263.218 2243.16 273.39L2269.08 252.706C2269.08 252.706 2220.76 246.19 2200.25 253.386C2200.25 253.386 2223.84 233.553 2276.02 248.003L2304.1 231.484C2304.1 231.484 2262.89 222.758 2238.32 225.818C2238.32 225.818 2264.24 212.076 2312.31 226.979L2332.47 218.111C2332.47 218.111 2302.26 212.274 2293.42 211.368C2284.58 210.461 2284.12 208.024 2284.12 208.024C2303.3 204.956 2322.98 207.202 2340.94 214.513C2340.94 214.513 2383.5 198.788 2382.78 196.153Z" fill="#6DD5ED"/>
<path d="M2134.07 121.833C2134.07 121.833 2024.63 115.317 2037.42 190.854C2037.42 190.854 2034.85 204.199 2047.15 210.262C2047.15 210.262 2047.32 204.595 2058.38 206.579C2062.31 207.215 2066.3 207.405 2070.28 207.145C2075.66 206.768 2080.77 204.691 2084.85 201.224V201.224C2084.85 201.224 2115.63 188.7 2127.62 139.174C2127.62 139.174 2136.49 128.379 2136.26 125.602L2117.77 133.365C2117.77 133.365 2124.1 146.484 2119.12 157.392C2119.12 157.392 2118.51 133.847 2114.97 134.414C2114.25 134.414 2105.35 138.947 2105.35 138.947C2105.35 138.947 2116.24 161.812 2108.03 178.415C2108.03 178.415 2111.14 150.252 2101.98 140.59L2088.97 148.07C2088.97 148.07 2101.67 171.7 2093.06 190.967C2093.06 190.967 2095.25 161.415 2086.23 149.912L2074.42 158.95C2074.42 158.95 2086.35 182.212 2079.09 198.192C2079.09 198.192 2078.14 163.795 2071.86 161.189C2071.86 161.189 2061.55 170.142 2059.97 173.825C2059.97 173.825 2068.14 190.825 2063.08 199.637C2063.08 199.637 2059.97 176.715 2057.32 176.63C2057.32 176.63 2047.04 191.789 2045.97 202.13C2046.47 192.506 2049.51 183.177 2054.81 175.072C2048.89 176.175 2043.42 178.963 2039.09 183.09C2039.09 183.09 2040.67 172.352 2057.35 171.417C2057.35 171.417 2065.84 159.914 2068.12 159.205C2068.12 159.205 2051.53 157.845 2041.48 162.237C2041.48 162.237 2050.32 152.094 2071.17 156.57L2082.69 147.249C2082.69 147.249 2060.86 144.415 2051.59 147.532C2051.59 147.532 2062.24 138.579 2085.83 145.124L2098.5 137.644C2098.5 137.644 2079.9 133.705 2068.78 135.122C2068.78 135.122 2080.5 128.917 2102.21 135.66L2111.29 131.637C2111.29 131.637 2097.64 129.002 2093.66 128.605C2089.69 128.209 2089.43 127.104 2089.43 127.104C2098.07 125.689 2106.95 126.67 2115.06 129.937C2115.06 129.937 2134.38 123.023 2134.07 121.833Z" fill="#6DD5ED"/>
<path opacity="0.1" d="M3090.44 2068.37C3133.27 2068.37 3168 2062.59 3168 2055.47C3168 2048.35 3133.27 2042.58 3090.44 2042.58C3047.61 2042.58 3012.88 2048.35 3012.88 2055.47C3012.88 2062.59 3047.61 2068.37 3090.44 2068.37Z" fill="#6DD5ED"/>
<path opacity="0.1" d="M134.694 2282.82C177.527 2282.82 212.251 2277.05 212.251 2269.93C212.251 2262.81 177.527 2257.04 134.694 2257.04C91.8602 2257.04 57.1367 2262.81 57.1367 2269.93C57.1367 2277.05 91.8602 2282.82 134.694 2282.82Z" fill="#6DD5ED"/>
<path opacity="0.1" d="M584.92 2299C627.754 2299 662.477 2293.23 662.477 2286.11C662.477 2278.99 627.754 2273.22 584.92 2273.22C542.087 2273.22 507.363 2278.99 507.363 2286.11C507.363 2293.23 542.087 2299 584.92 2299Z" fill="#6DD5ED"/>
<path d="M2920.7 2212.89C2984.66 2212.89 3036.5 2204.27 3036.5 2193.63C3036.5 2182.99 2984.66 2174.36 2920.7 2174.36C2856.75 2174.36 2804.9 2182.99 2804.9 2193.63C2804.9 2204.27 2856.75 2212.89 2920.7 2212.89Z" fill="#6DD5ED"/>
<path d="M2968.57 2162.15C2973.85 2157.91 2977.71 2152.19 2979.62 2145.74C2981.04 2139.26 2978.21 2131.44 2971.91 2129.06C2964.82 2126.39 2957.25 2131.24 2951.52 2136.11C2945.78 2140.98 2939.19 2146.54 2931.67 2145.52C2935.54 2142.07 2938.43 2137.7 2940.07 2132.83C2941.7 2127.96 2942.02 2122.75 2941 2117.72C2940.68 2115.64 2939.78 2113.68 2938.41 2112.06C2934.47 2107.92 2927.35 2109.68 2922.63 2112.93C2907.65 2123.3 2903.48 2143.31 2903.39 2161.33C2901.89 2154.84 2903.16 2148.07 2903.13 2141.49C2903.1 2134.92 2901.23 2127.33 2895.53 2123.84C2891.99 2121.98 2888.02 2121.07 2884.01 2121.18C2877.27 2120.92 2869.78 2121.58 2865.17 2126.42C2859.41 2132.46 2860.94 2142.54 2865.92 2149.09C2870.91 2155.63 2878.45 2159.88 2885.39 2164.44C2890.98 2167.71 2895.74 2172.18 2899.33 2177.51C2899.75 2178.26 2900.1 2179.04 2900.37 2179.86H2942.56C2952 2175.14 2960.75 2169.18 2968.57 2162.15V2162.15Z" fill="#6DD5ED"/>
<path d="M170.896 1924.57C170.896 1924.57 186.707 1944.92 163.581 1975.57C140.455 2006.23 121.39 2032.24 129.022 2051.39C129.022 2051.39 163.898 1994.33 192.381 1993.51C220.863 1992.69 202.115 1958.89 170.896 1924.57Z" fill="#6DD5ED"/>
<path opacity="0.1" d="M170.894 1924.57C172.267 1926.54 173.353 1928.69 174.12 1930.95C201.825 1962.97 216.57 1992.86 189.959 1993.59C165.134 1994.3 135.24 2037.94 128.242 2048.96C128.487 2049.81 128.775 2050.65 129.106 2051.48C129.106 2051.48 163.982 1994.42 192.465 1993.59C220.948 1992.77 202.113 1958.89 170.894 1924.57Z" fill="black"/>
<path d="M200.296 1950.5C200.296 1957.67 199.461 1963.48 198.453 1963.48C197.445 1963.48 196.639 1957.81 196.639 1950.5C196.639 1943.19 197.647 1946.7 198.683 1946.7C199.72 1946.7 200.296 1943.33 200.296 1950.5Z" fill="#FFD037"/>
<path d="M210.267 1959.06C203.873 1962.48 198.315 1964.55 197.825 1963.67C197.336 1962.8 202.145 1959.34 208.539 1955.91C214.932 1952.48 212.398 1954.98 212.887 1955.91C213.377 1956.85 216.775 1955.63 210.267 1959.06Z" fill="#FFD037"/>
<path d="M87.3224 1924.57C87.3224 1924.57 71.5115 1944.92 94.6087 1975.57C117.706 2006.23 136.8 2032.24 129.168 2051.39C129.168 2051.39 94.2631 1994.33 65.8092 1993.51C37.3553 1992.69 56.075 1958.89 87.3224 1924.57Z" fill="#6DD5ED"/>
<path opacity="0.1" d="M87.3173 1924.57C85.9317 1926.53 84.845 1928.68 84.0918 1930.95C56.3867 1962.97 41.6125 1992.86 68.2521 1993.59C93.0484 1994.3 122.971 2037.94 129.941 2048.96C129.706 2049.81 129.427 2050.65 129.105 2051.48C129.105 2051.48 94.2004 1994.42 65.7465 1993.59C37.2926 1992.77 56.0699 1958.89 87.3173 1924.57Z" fill="black"/>
<path d="M57.9121 1950.5C57.9121 1957.67 58.7185 1963.48 59.7265 1963.48C60.7345 1963.48 61.5408 1957.81 61.5408 1950.5C61.5408 1943.19 60.5329 1946.7 59.5249 1946.7C58.5169 1946.7 57.9121 1943.33 57.9121 1950.5Z" fill="#FFD037"/>
<path d="M47.8093 1959.06C54.2028 1962.48 59.7899 1964.55 60.2795 1963.67C60.7691 1962.8 55.9595 1959.34 49.5661 1955.91C43.1726 1952.48 45.6782 1954.98 45.2174 1955.91C44.7566 1956.85 41.4158 1955.63 47.8093 1959.06Z" fill="#FFD037"/>
<path d="M62.9551 2048.82C62.9551 2048.82 107.191 2047.48 120.554 2038.13C133.917 2028.78 188.607 2017.65 191.919 2032.47C195.231 2047.29 258.388 2106.98 208.45 2107.38C158.512 2107.78 92.4169 2099.7 79.1116 2091.74C65.8062 2083.78 62.9551 2048.82 62.9551 2048.82Z" fill="#A8A8A8"/>
<path opacity="0.2" d="M209.285 2102.31C159.347 2102.71 93.2521 2094.63 79.9468 2086.67C69.8094 2080.61 65.7774 2058.82 64.4239 2048.76H62.9551C62.9551 2048.76 65.835 2083.86 79.054 2091.83C92.2729 2099.79 158.454 2107.86 208.392 2107.47C222.792 2107.47 227.774 2102.28 227.515 2094.83C225.499 2099.39 220.027 2102.22 209.285 2102.31Z" fill="black"/>
<path d="M1178.79 1173.97C1195.7 1173.03 1275.27 1167.14 1325.81 1138.78C1333.93 1134.08 1343.1 1131.42 1352.51 1131.04C1368.58 1130.59 1387.07 1137.19 1375.23 1174.14C1356.05 1234.57 1244.68 1302.57 1175.57 1298.8C1109.1 1295.18 1030.24 1268.83 978.175 1176.18C973.186 1167.26 970.728 1157.19 971.061 1147.02C971.666 1128.32 978.578 1104.89 1014.26 1131.01C1062.47 1166.29 1153.94 1172.97 1172.28 1173.97C1174.45 1174.08 1176.62 1174.08 1178.79 1173.97V1173.97Z" fill="#444053"/>
<path d="M1818.14 1173.97C1835.05 1173.03 1914.62 1167.14 1965.16 1138.78C1973.28 1134.08 1982.45 1131.42 1991.86 1131.04C2007.93 1130.59 2026.42 1137.19 2014.58 1174.14C1995.4 1234.57 1884.03 1302.57 1814.92 1298.8C1748.45 1295.18 1669.59 1268.83 1617.52 1176.18C1612.53 1167.26 1610.08 1157.19 1610.41 1147.02C1611.01 1128.32 1617.93 1104.89 1653.61 1131.01C1701.82 1166.29 1793.29 1172.97 1811.63 1173.97C1813.8 1174.08 1815.97 1174.08 1818.14 1173.97V1173.97Z" fill="#444053"/>
</g>
<defs>
<linearGradient id="paint0_linear" x1="2569.32" y1="2147.64" x2="2569.32" y2="747.86" gradientUnits="userSpaceOnUse">
<stop stop-color="#808080" stop-opacity="0.25"/>
<stop offset="0.54" stop-color="#808080" stop-opacity="0.12"/>
<stop offset="1" stop-color="#808080" stop-opacity="0.1"/>
</linearGradient>
<clipPath id="clip0">
<rect width="3168" height="2299" fill="white"/>
</clipPath>
</defs>
</svg>
