<svg width="3166" height="2451" viewBox="0 0 3166 2451" fill="none" xmlns="http://www.w3.org/2000/svg">
<g clip-path="url(#clip0)">
<path d="M2261.81 554.889H2239.31C2234.88 554.889 2231.28 558.244 2231.28 562.383V843.901C2231.28 848.04 2234.88 851.396 2239.31 851.396H2261.81C2266.25 851.396 2269.85 848.04 2269.85 843.901V562.383C2269.85 558.244 2266.25 554.889 2261.81 554.889Z" fill="#3F3D56"/>
<path d="M2115.31 0H1098.77C1023.23 0 962 57.1272 962 127.597V2318.49C962 2388.96 1023.23 2446.09 1098.77 2446.09H2115.31C2190.85 2446.09 2252.08 2388.96 2252.08 2318.49V127.597C2252.08 57.1272 2190.85 0 2115.31 0Z" fill="#3F3D56"/>
<path d="M2072.52 63.7129H1924.54V80.3211C1924.54 90.6591 1922.35 100.896 1918.11 110.446C1913.87 119.997 1907.65 128.674 1899.81 135.982C1891.98 143.29 1882.67 149.086 1872.43 153.038C1862.19 156.991 1851.22 159.022 1840.14 159.016H1369.51C1358.42 159.022 1347.45 156.991 1337.21 153.038C1326.97 149.086 1317.67 143.29 1309.83 135.982C1301.99 128.674 1295.78 119.997 1291.53 110.446C1287.29 100.896 1285.11 90.6591 1285.11 80.3211V63.7129H1146.55C1119.38 63.7129 1093.32 73.7837 1074.1 91.71C1054.89 109.636 1044.09 133.95 1044.09 159.301V2286.96C1044.09 2312.31 1054.89 2336.62 1074.1 2354.55C1093.32 2372.47 1119.38 2382.54 1146.55 2382.54H2072.52C2099.7 2382.54 2125.76 2372.47 2144.97 2354.55C2164.19 2336.62 2174.98 2312.31 2174.98 2286.96V159.465C2175 146.898 2172.37 134.451 2167.23 122.834C2162.09 111.218 2154.55 100.661 2145.03 91.7678C2135.52 82.8743 2124.21 75.8187 2111.77 71.0047C2099.33 66.1908 2085.99 63.7129 2072.52 63.7129V63.7129Z" fill="white"/>
<path d="M1649.17 73.0498H1496.18C1488.68 73.0498 1482.6 78.72 1482.6 85.7146V94.4949C1482.6 101.49 1488.68 107.16 1496.18 107.16H1649.17C1656.67 107.16 1662.75 101.49 1662.75 94.4949V85.7146C1662.75 78.72 1656.67 73.0498 1649.17 73.0498Z" fill="#E6E8EC"/>
<path d="M1710.76 109.476C1722.23 109.476 1731.52 100.804 1731.52 90.1056C1731.52 79.4077 1722.23 70.7354 1710.76 70.7354C1699.29 70.7354 1690 79.4077 1690 90.1056C1690 100.804 1699.29 109.476 1710.76 109.476Z" fill="#E6E8EC"/>
<path d="M1614.92 1480.76C1749.71 1480.76 1858.97 1378.82 1858.97 1253.08C1858.97 1127.33 1749.71 1025.39 1614.92 1025.39C1480.14 1025.39 1370.88 1127.33 1370.88 1253.08C1370.88 1378.82 1480.14 1480.76 1614.92 1480.76Z" fill="white"/>
<path d="M1935.91 1221.28C1935.91 1281.47 1916.78 1340.3 1880.94 1390.34C1845.09 1440.39 1794.15 1479.39 1734.55 1502.42C1674.95 1525.45 1609.36 1531.47 1546.09 1519.73C1482.82 1507.99 1424.7 1479 1379.09 1436.44C1333.47 1393.88 1302.41 1339.66 1289.82 1280.63C1277.24 1221.6 1283.7 1160.42 1308.39 1104.81C1333.08 1049.21 1374.89 1001.68 1428.53 968.247C1482.17 934.811 1545.23 916.966 1609.75 916.968C1652.58 916.969 1694.99 924.841 1734.57 940.135C1774.14 955.429 1810.1 977.845 1840.38 1006.1C1870.67 1034.36 1894.7 1067.91 1911.09 1104.83C1927.48 1141.75 1935.91 1181.32 1935.91 1221.28V1221.28ZM1572.04 1382.36L1814 1156.63C1815.95 1154.81 1817.51 1152.64 1818.57 1150.26C1819.63 1147.87 1820.17 1145.32 1820.17 1142.74C1820.17 1140.16 1819.63 1137.61 1818.57 1135.22C1817.51 1132.84 1815.95 1130.67 1814 1128.85L1784.23 1101.28C1782.28 1099.46 1779.96 1098.01 1777.41 1097.02C1774.86 1096.03 1772.12 1095.52 1769.36 1095.52C1766.6 1095.52 1763.86 1096.03 1761.31 1097.02C1758.76 1098.01 1756.45 1099.46 1754.5 1101.28L1557.16 1285.39L1465.02 1199.23C1461.06 1195.56 1455.71 1193.5 1450.13 1193.5C1444.55 1193.5 1439.2 1195.56 1435.24 1199.23L1405.47 1227.16C1401.54 1230.85 1399.33 1235.85 1399.33 1241.05C1399.33 1246.26 1401.54 1251.25 1405.47 1254.94L1542.28 1382.52C1544.23 1384.35 1546.55 1385.8 1549.1 1386.79C1551.66 1387.78 1554.4 1388.29 1557.16 1388.29C1559.93 1388.29 1562.67 1387.78 1565.22 1386.79C1567.77 1385.8 1570.09 1384.35 1572.05 1382.52L1572.04 1382.36Z" fill="#6DD5ED"/>
<path d="M1002.39 482.235H999.015C994.578 482.235 990.982 485.59 990.982 489.729V562.488C990.982 566.627 994.578 569.982 999.015 569.982H1002.39C1006.83 569.982 1010.43 566.627 1010.43 562.488V489.729C1010.43 485.59 1006.83 482.235 1002.39 482.235Z" fill="#3F3D56"/>
<path d="M1004.16 642.908H998.311C993.875 642.908 990.278 646.263 990.278 650.402V788.131C990.278 792.27 993.875 795.625 998.311 795.625H1004.16C1008.59 795.625 1012.19 792.27 1012.19 788.131V650.402C1012.19 646.263 1008.59 642.908 1004.16 642.908Z" fill="#3F3D56"/>
<path d="M1003.45 849.062H998.658C994.221 849.062 990.625 852.418 990.625 856.557V995.598C990.625 999.737 994.221 1003.09 998.658 1003.09H1003.45C1007.88 1003.09 1011.48 999.737 1011.48 995.598V856.557C1011.48 852.418 1007.88 849.062 1003.45 849.062Z" fill="#3F3D56"/>
<path d="M732.217 1256.37C732.774 1256.87 733.49 1257.19 734.259 1257.28C735.027 1257.38 735.807 1257.23 736.482 1256.88C735.042 1256.9 733.605 1256.73 732.217 1256.37Z" fill="url(#paint0_linear)"/>
<path d="M893.444 1315.21L889.234 1336.6L885.986 1352.96L880.079 1382.89L822.801 1420.3C822.801 1420.3 817.637 1416.18 809.12 1409.68C785.646 1391.65 736.31 1354.93 700.081 1335.22C690.763 1329.68 680.68 1325.34 670.111 1322.33L893.444 1315.21Z" fill="#FEB9B9"/>
<path d="M851.428 1331.12C851.428 1331.12 918.212 1341.82 922.123 1315.21C926.035 1288.6 887.747 1274.22 855.3 1272.43C822.853 1270.64 628.109 1283.12 628.109 1283.12C628.109 1283.12 593.757 1325.86 717.82 1333.02L851.428 1331.12Z" fill="#3F3D56"/>
<path d="M997.474 453.07H648.1V839.572H997.474V453.07Z" fill="#2F2E41"/>
<path opacity="0.1" d="M997.474 454.825H648.1V841.327H997.474V454.825Z" fill="black"/>
<path d="M238.637 1114.71C232.884 1116.06 225.531 1121.26 217.355 1128.76C182.144 1161.29 131.713 1237.61 131.713 1237.61C67.2361 1165.96 138.584 1109.34 168.997 1089.89C176.391 1085.18 181.358 1082.59 181.358 1082.59L238.637 1114.71Z" fill="#FEB9B9"/>
<path d="M889.612 575.055C889.612 575.055 906.8 687.258 965.979 713.975C1025.16 740.692 889.612 790.625 889.612 790.625L704.44 726.456C704.44 726.456 809.449 694.385 788.437 599.982L889.612 575.055Z" fill="#FEB9B9"/>
<path d="M691.063 1250.09L686.874 1271.41L683.472 1287.83L677.565 1317.76L620.286 1355.14C620.286 1355.14 615.123 1351.05 606.606 1344.55C583.132 1326.52 533.799 1289.8 497.514 1270.09C488.2 1264.55 478.117 1260.21 467.544 1257.21L691.063 1250.09Z" fill="#FEB9B9"/>
<path d="M641.514 1276.38C641.514 1276.38 701.451 1276.77 705.057 1250.09C708.663 1223.4 672.393 1209.1 641.514 1207.31C610.635 1205.52 423.018 1218.84 423.018 1218.84C423.018 1218.84 396.401 1269.23 514.413 1276.37L641.514 1276.38Z" fill="#2F2E41"/>
<path d="M1061.75 1695.58C1059.13 1694.37 1056.51 1693.13 1053.93 1691.93L1046.89 1683.64L954.515 1574.36V1576.26C953.891 1594.51 947.24 1739.12 895.36 1752.48C840 1766.72 773.216 1770.3 742.772 1674.12C712.328 1577.94 656.702 1367.77 599.578 1355.29L684.553 1290.28C684.553 1290.28 740.815 1351.68 763.738 1410.44C762.878 1406.79 724.026 1237.43 755.912 1207.46H1034.69C1034.69 1207.46 1077.73 1321.82 1107.23 1378.47C1130.19 1422.45 1164.66 1526.44 1186.85 1596.81C1208.82 1666.3 1131.63 1727.66 1061.75 1695.58Z" fill="#3F3D56"/>
<path opacity="0.1" d="M1053.81 1239.39C1010.77 1263.16 821.845 1253.48 760.382 1249.61L743.636 1248.48C741.836 1248.48 743.91 1247.53 743.91 1247.53L745.632 1231.36L791.447 1122.74L1036.75 990.022C1031.78 1004 1030.14 1025.39 1030.53 1049.88C1031.67 1128.58 1053.81 1239.39 1053.81 1239.39Z" fill="black"/>
<path d="M1053.82 1234.03C1010.78 1257.79 821.852 1248.12 760.389 1244.25L743.643 1243.15L740.865 1242.94L743.916 1242.21L759.017 1238.56L791.45 1117.45L1036.76 984.77C1031.79 998.75 1030.14 1020.14 1030.54 1044.63C1031.67 1123.25 1053.82 1234.03 1053.82 1234.03Z" fill="#EFEFEF"/>
<path opacity="0.1" d="M1030.38 1044.56C980.492 1055.29 870.713 1086.77 828.536 1162.82C800.407 1213.44 776.736 1235.16 760.225 1244.25L743.479 1243.15C743.589 1242.84 743.68 1242.52 743.753 1242.2L758.854 1238.55L791.286 1117.45L1036.59 984.771C1031.68 998.676 1029.98 1020.07 1030.38 1044.56Z" fill="black"/>
<path opacity="0.1" d="M181.355 1082.67L238.633 1114.71C232.88 1116.06 225.528 1121.26 217.351 1128.77C212.577 1115.77 182.624 1097.63 168.993 1089.89C176.384 1085.26 181.355 1082.67 181.355 1082.67Z" fill="black"/>
<path opacity="0.1" d="M733.278 1245.24C732.65 1245.54 731.936 1245.65 731.235 1245.56C730.534 1245.47 729.881 1245.18 729.367 1244.73C730.637 1245.07 731.954 1245.24 733.278 1245.24V1245.24Z" fill="black"/>
<path d="M862.895 706.857C862.895 706.857 811.33 712.185 775.063 676.563C775.063 676.563 622.475 717.552 570.799 810.153C519.122 902.753 167.822 1084.45 167.822 1084.45C167.822 1084.45 228.935 1116.5 223.182 1132.52L454.207 1007.84C454.207 1007.84 536.366 952.65 559.178 940.168C581.989 927.687 708.121 851.109 734.843 1059.49C761.565 1267.87 734.843 1242.94 734.843 1242.94C734.843 1242.94 773.029 1255.42 828.389 1155.67C883.748 1055.91 1055.54 1032.77 1055.54 1032.77L1065.09 927.719C1065.09 927.719 1099.16 858.076 1072.91 829.169C1064.96 820.61 1059.67 810.184 1057.61 799.019C1053.27 772.338 1057.61 727.88 1118.41 690.943C1211.96 633.929 1248.22 587.648 1248.22 587.648C1248.22 587.648 1250.14 553.777 1192.86 537.751C1135.59 521.725 902.683 434.456 902.683 434.456L894.857 464.75L1078.62 585.75C1078.62 585.75 986.996 655.099 914.304 653.42C914.301 653.42 927.799 705.067 862.895 706.857Z" fill="#6DD5ED"/>
<path opacity="0.1" d="M898.256 623.891C893.741 609.614 890.213 595.081 887.694 580.382L786.52 605.319C790.98 623.338 790.183 642.143 784.211 659.778C804.897 664.927 826.751 664.269 847.037 657.885C867.323 651.502 885.14 639.677 898.256 623.891V623.891Z" fill="black"/>
<path d="M814.224 657.876C874.315 657.876 923.028 612.43 923.028 556.368C923.028 500.307 874.315 454.86 814.224 454.86C754.133 454.86 705.42 500.307 705.42 556.368C705.42 612.43 754.133 657.876 814.224 657.876Z" fill="#FEB9B9"/>
<path opacity="0.1" d="M932.568 1373.86C932.568 1373.86 995.557 1489.64 976.464 1525.23Z" fill="black"/>
<path d="M872.084 321.926C902.286 325.139 930.966 337.218 960.701 343.826C968.133 345.981 976.044 346.257 983.628 344.627C995.168 341.306 1004.56 330.029 1016.53 330.356C1023.9 330.575 1030.42 335.248 1036.48 339.735C1046.21 346.679 1055.36 354.293 1063.87 362.512C1084.37 383.28 1097.08 411.24 1115.78 433.834C1134.48 456.428 1161.15 482.923 1187.72 472.562C1169.64 538.262 1113.28 579.362 1049.24 583.452C1023.69 585.089 997.515 580.131 972.789 587.101C966.63 589.457 960.126 590.933 953.496 591.48C939.254 591.48 927.791 579.29 918.909 567.427C898.094 539.541 881.625 507.895 858.19 482.455C850.364 474.024 841.328 466.03 830.373 464.498C819.418 462.966 809.365 467.856 799.624 472.565C783.544 480.34 767.114 488.368 754.633 501.766C742.153 515.164 734.288 534.943 739.452 552.867C742.23 562.577 748.572 571.337 748.684 581.482C748.919 597.688 733.583 609.515 730.57 625.282C729.89 631.905 729.641 638.561 729.826 645.212C728.497 666.811 713.34 684.483 697.555 698.1C691.374 703.356 684.576 709.05 682.766 717.189C681.552 722.772 682.766 728.643 681.984 734.308C679.676 748.324 664.691 755.442 651.428 757.268C635.932 759.408 620.104 757.658 605.574 752.195C624.12 744.014 635.544 720.733 631.24 699.89C625.333 670.98 594.191 650.213 596.864 620.796C598.328 611.769 601.229 602.998 605.472 594.772C612.259 578.875 617.191 562.343 620.184 545.461C622.531 532.43 623.667 518.597 619.282 506.151C615.371 494.835 607.195 485.822 600.267 476.256C590.879 463.243 583.467 449.08 578.241 434.171C576.348 429.749 575.626 424.965 576.137 420.227C577.706 414.631 581.047 409.606 585.724 405.808C602.743 389.118 620.935 371.79 643.746 367.008C654.629 365.323 665.698 364.93 676.687 365.84C695.8 366.399 714.93 365.643 733.923 363.576C749.572 361.861 776.017 362.08 789.283 352.626C801.644 343.79 808.611 332.696 823.828 327.077C839.238 321.748 855.803 319.981 872.105 321.929L872.084 321.926Z" fill="#2F2E41"/>
<path d="M2893.78 2440.01C2980.95 2440.01 3051.61 2428.87 3051.61 2415.11C3051.61 2401.36 2980.95 2390.21 2893.78 2390.21C2806.61 2390.21 2735.95 2401.36 2735.95 2415.11C2735.95 2428.87 2806.61 2440.01 2893.78 2440.01Z" fill="#6DD5ED"/>
<path d="M2959.05 2374.39C2966.25 2368.9 2971.49 2361.51 2974.09 2353.19C2976.05 2344.8 2972.2 2334.86 2963.56 2331.62C2953.91 2328.18 2943.57 2334.44 2935.77 2340.74C2927.98 2347.03 2918.97 2354.25 2908.73 2352.89C2914 2348.45 2917.95 2342.8 2920.19 2336.5C2922.43 2330.21 2922.88 2323.48 2921.5 2316.97C2921.04 2314.27 2919.81 2311.74 2917.93 2309.65C2912.59 2304.3 2902.85 2306.57 2896.46 2310.82C2876.05 2324.18 2870.36 2350.09 2870.24 2373.32C2868.16 2364.94 2869.92 2356.19 2869.84 2347.69C2869.77 2339.2 2867.29 2329.36 2859.48 2324.88C2854.66 2322.47 2849.25 2321.28 2843.78 2321.44C2834.6 2321.11 2824.39 2321.99 2818.11 2328.25C2810.26 2336.01 2812.38 2349.05 2819.13 2357.54C2825.88 2366.04 2836.21 2371.49 2845.71 2377.39C2853.3 2381.62 2859.77 2387.39 2864.65 2394.27C2865.23 2395.24 2865.7 2396.25 2866.05 2397.31H2923.4C2936.33 2391.21 2948.32 2383.5 2959.04 2374.4L2959.05 2374.39Z" fill="#6DD5ED"/>
<path d="M747.903 2451C805.429 2451 852.062 2443.65 852.062 2434.57C852.062 2425.49 805.429 2418.13 747.903 2418.13C690.377 2418.13 643.743 2425.49 643.743 2434.57C643.743 2443.65 690.377 2451 747.903 2451Z" fill="#EFEFEF"/>
<path d="M790.977 2407.69C795.724 2404.07 799.183 2399.19 800.897 2393.7C801.652 2390.94 801.376 2388.03 800.113 2385.44C798.851 2382.85 796.678 2380.74 793.955 2379.46C787.582 2377.19 780.77 2381.33 775.617 2385.48C770.464 2389.64 764.529 2394.4 757.769 2393.51C761.249 2390.57 763.853 2386.84 765.328 2382.69C766.804 2378.53 767.1 2374.09 766.188 2369.8C765.884 2368.02 765.07 2366.35 763.831 2364.97C760.323 2361.44 753.883 2362.94 749.663 2365.74C736.193 2374.58 732.436 2391.65 732.359 2406.99C730.987 2401.46 732.152 2395.68 732.099 2390.08C732.047 2384.47 730.416 2378 725.259 2375.02C722.079 2373.43 718.505 2372.65 714.897 2372.75C708.836 2372.54 702.101 2373.12 697.955 2377.25C692.774 2382.37 694.173 2390.98 698.628 2396.58C703.083 2402.19 709.895 2405.79 716.167 2409.67C721.18 2412.46 725.457 2416.26 728.679 2420.8C729.067 2421.44 729.38 2422.11 729.612 2422.81H767.458C775.991 2418.77 783.902 2413.68 790.977 2407.68V2407.69Z" fill="#EFEFEF"/>
<path d="M158.832 2451C216.358 2451 262.992 2443.65 262.992 2434.57C262.992 2425.49 216.358 2418.13 158.832 2418.13C101.306 2418.13 54.6724 2425.49 54.6724 2434.57C54.6724 2443.65 101.306 2451 158.832 2451Z" fill="#EFEFEF"/>
<path d="M201.913 2407.69C206.66 2404.07 210.119 2399.19 211.833 2393.7C212.589 2390.94 212.312 2388.03 211.05 2385.44C209.787 2382.85 207.614 2380.74 204.891 2379.46C198.518 2377.19 191.706 2381.33 186.553 2385.48C181.4 2389.64 175.465 2394.4 168.705 2393.51C172.185 2390.57 174.789 2386.84 176.264 2382.69C177.74 2378.53 178.036 2374.09 177.124 2369.8C176.82 2368.02 176.006 2366.35 174.767 2364.97C171.259 2361.44 164.819 2362.94 160.599 2365.74C147.129 2374.58 143.372 2391.65 143.295 2406.99C141.923 2401.46 143.088 2395.68 143.035 2390.08C142.983 2384.47 141.352 2378 136.195 2375.02C133.015 2373.43 129.441 2372.65 125.833 2372.75C119.772 2372.54 113.037 2373.12 108.891 2377.25C103.71 2382.37 105.109 2390.98 109.564 2396.58C114.019 2402.19 120.831 2405.79 127.103 2409.67C132.116 2412.46 136.393 2416.26 139.615 2420.8C140.003 2421.44 140.316 2422.11 140.548 2422.81H178.394C186.927 2418.77 194.838 2413.68 201.913 2407.68V2407.69Z" fill="#EFEFEF"/>
<path d="M3166 2441.62H0V2447.58H3166V2441.62Z" fill="#2F2E41"/>
<path d="M3011.46 165.342C3011.46 165.342 2680.95 146.737 2719.89 362.798C2719.89 362.798 2712.04 400.992 2749.25 418.314C2749.25 418.314 2749.84 402.311 2783.17 407.767C2795.03 409.601 2807.08 410.141 2819.08 409.377C2835.27 408.383 2850.67 402.51 2862.97 392.641V392.641C2862.97 392.641 2955.88 356.826 2991.99 215.18C2991.99 215.18 3018.72 184.274 3017.66 176.325L2961.88 198.552C2961.88 198.552 2980.96 236.088 2965.81 267.276C2965.81 267.276 2964 199.894 2953.29 201.36C2951.13 201.654 2924.32 214.358 2924.32 214.358C2924.32 214.358 2957.1 279.725 2932.37 327.262C2932.37 327.262 2941.75 246.698 2914.07 219.084L2874.82 240.47C2874.82 240.47 2913.13 307.999 2887.15 363.113C2887.15 363.113 2893.81 278.592 2866.54 245.67L2830.98 271.559C2830.98 271.559 2866.97 338.097 2845.03 383.808C2845.03 383.808 2842.16 285.445 2823.28 278.013C2823.28 278.013 2792.15 303.647 2787.4 314.119C2787.4 314.119 2812.05 362.458 2796.75 387.945C2796.75 387.945 2787.37 322.395 2779.67 322.029C2779.67 322.029 2748.66 365.459 2745.44 395.269C2745.44 395.269 2746.78 350.994 2772.17 317.928C2772.17 317.928 2742.18 322.726 2724.68 340.836C2724.68 340.836 2729.5 310.149 2779.82 307.44C2779.82 307.44 2805.46 274.482 2812.29 272.505C2812.29 272.505 2762.28 268.578 2731.94 281.148C2731.94 281.148 2758.63 252.183 2821.47 265.365L2856.6 238.595C2856.6 238.595 2790.74 230.207 2762.79 239.475C2762.79 239.475 2794.94 213.841 2866.06 232.518L2904.3 211.204C2904.3 211.204 2848.13 199.923 2814.68 203.88C2814.68 203.88 2850.01 186.119 2915.52 205.382L2943 193.928C2943 193.928 2901.86 186.385 2889.81 185.177C2877.76 183.969 2877.13 180.893 2877.13 180.893C2903.19 176.839 2929.95 179.616 2954.42 188.914C2954.42 188.914 3012.44 168.749 3011.46 165.342Z" fill="#6DD5ED"/>
<path d="M2558.61 50.9577C2558.61 50.9577 2409.46 42.5701 2426.88 140.2C2426.88 140.2 2423.37 157.45 2440.15 165.285C2440.15 165.285 2440.42 157.961 2455.49 160.487C2460.85 161.328 2466.29 161.574 2471.7 161.22C2479.03 160.768 2485.99 158.092 2491.53 153.602V153.602C2491.53 153.602 2533.53 137.415 2549.85 73.4042C2549.85 73.4042 2561.9 59.4533 2561.43 55.8633L2536.23 65.8969C2536.23 65.8969 2544.83 82.8521 2538.07 96.9502C2538.07 96.9502 2537.25 66.5154 2532.42 67.2158C2531.44 67.2158 2519.31 73.1064 2519.31 73.1064C2519.31 73.1064 2534.15 102.658 2522.96 124.119C2522.96 124.119 2527.2 87.7184 2514.68 75.2303L2496.94 85.048C2496.94 85.048 2514.25 115.551 2502.51 140.456C2502.51 140.456 2505.54 102.262 2493.21 87.3944L2477.16 99.1134C2477.16 99.1134 2493.41 129.178 2483.51 149.838C2483.51 149.838 2482.18 105.38 2473.66 102.013C2473.66 102.013 2459.61 113.585 2457.45 118.346C2457.45 118.346 2468.6 140.318 2461.69 151.707C2461.69 151.707 2457.45 122.08 2453.84 121.926C2453.84 121.926 2439.83 141.562 2438.37 154.884C2439.08 142.456 2443.24 130.414 2450.46 119.95C2442.38 121.379 2434.92 124.981 2428.99 130.314C2428.99 130.314 2431.19 116.435 2453.92 115.228C2453.92 115.228 2465.7 100.324 2468.6 99.408C2468.6 99.408 2445.99 97.6506 2432.29 103.335C2432.29 103.335 2444.34 90.2611 2472.72 96.1943L2488.42 84.1087C2488.42 84.1087 2458.64 80.4107 2446.01 84.4883C2446.01 84.4883 2460.54 72.9165 2492.68 81.3401L2509.96 71.709C2509.96 71.709 2484.56 66.6202 2469.45 68.4364C2469.45 68.4364 2485.42 60.4154 2515.02 69.0909L2527.39 63.9268C2527.39 63.9268 2508.8 60.5201 2503.32 59.9703C2497.85 59.4205 2497.59 58.0297 2497.59 58.0297C2509.37 56.2009 2521.47 57.4689 2532.53 61.6917C2532.53 61.6917 2559.07 52.4827 2558.61 50.9577Z" fill="#3F3D56"/>
<path d="M258.425 1541.4C258.425 1541.4 109.268 1533.01 126.695 1630.64C126.695 1630.64 123.187 1647.89 139.961 1655.73C139.961 1655.73 140.234 1648.4 155.307 1650.93C160.661 1651.77 166.101 1652.02 171.517 1651.66C178.839 1651.21 185.801 1648.54 191.339 1644.05V1644.05C191.339 1644.05 233.338 1627.86 249.667 1563.85C249.667 1563.85 261.716 1549.9 261.242 1546.31L236.042 1556.34C236.042 1556.34 244.64 1573.3 237.887 1587.39C237.887 1587.39 237.063 1556.96 232.236 1557.66C231.254 1557.66 219.124 1563.55 219.124 1563.55C219.124 1563.55 233.962 1593.1 222.776 1614.56C222.776 1614.56 227.013 1578.16 214.494 1565.67L196.752 1575.49C196.752 1575.49 214.063 1606 202.326 1630.9C202.326 1630.9 205.349 1592.71 193.023 1577.84L176.968 1589.56C176.968 1589.56 193.219 1619.62 183.327 1640.28C183.327 1640.28 181.995 1595.82 173.474 1592.46C173.474 1592.46 159.422 1604.03 157.261 1608.79C157.261 1608.79 168.409 1630.76 161.502 1642.15C161.502 1642.15 157.261 1612.52 153.652 1612.37C153.652 1612.37 139.638 1632.01 138.186 1645.33C138.888 1632.9 143.056 1620.86 150.277 1610.39C142.191 1611.82 134.728 1615.43 128.806 1620.76C128.806 1620.76 131.006 1606.88 153.732 1605.67C153.732 1605.67 165.508 1590.77 168.412 1589.85C168.412 1589.85 145.805 1588.09 132.103 1593.78C132.103 1593.78 144.153 1580.71 172.534 1586.64L188.235 1574.55C188.235 1574.55 158.454 1570.86 145.826 1574.93C145.826 1574.93 160.348 1563.36 192.497 1571.78L209.769 1562.15C209.769 1562.15 184.373 1557.06 169.261 1558.88C169.261 1558.88 185.236 1550.86 214.834 1559.54L227.199 1554.37C227.199 1554.37 208.608 1550.96 203.136 1550.41C197.664 1549.86 197.404 1548.47 197.404 1548.47C209.187 1546.65 221.284 1547.91 232.338 1552.14C232.338 1552.14 258.885 1542.93 258.425 1541.4Z" fill="#3F3D56"/>
</g>
<defs>
<linearGradient id="paint0_linear" x1="734.371" y1="1257.32" x2="734.371" y2="1256.37" gradientUnits="userSpaceOnUse">
<stop stop-color="#808080" stop-opacity="0.251"/>
<stop offset="0.54" stop-color="#808080" stop-opacity="0.122"/>
<stop offset="1" stop-color="#808080" stop-opacity="0.102"/>
</linearGradient>
<clipPath id="clip0">
<rect width="3166" height="2451" fill="white"/>
</clipPath>
</defs>
</svg>
